<?xml version="1.0" encoding="iso-8859-1"?>
<!-- Generator: Adobe Illustrator 19.0.0, SVG Export Plug-In . SVG Version: 6.00 Build 0)  -->
<svg version="1.1" id="Layer_1" xmlns="http://www.w3.org/2000/svg" xmlns:xlink="http://www.w3.org/1999/xlink" x="0px" y="0px"
	 viewBox="0 0 451.296 451.296" style="enable-background:new 0 0 451.296 451.296;" xml:space="preserve">
<circle style="fill:#334D5C;" cx="225.648" cy="225.638" r="225.638"/>
<path style="opacity:0.1;enable-background:new    ;" d="M450.224,247.612l-134.121-134.09l-0.611-0.658l-1.128-1.128
	c-3.338-3.103-7.757-5.03-12.74-5.03H132.192c-15.044,0-27.267,12.223-27.267,27.267v191.762c0,5.312,2.21,10.155,5.782,13.539
	l0.376,0.376L222.654,451.22c1.001,0.013,1.99,0.076,2.994,0.076C342.859,451.296,439.174,361.925,450.224,247.612z"/>
<path style="fill:#DC8744;" d="M301.641,106.722H132.194c-15.057,0-27.264,12.207-27.264,27.264s12.206,27.264,27.264,27.264
	h188.209v-35.766C320.403,115.123,312.003,106.722,301.641,106.722z"/>
<path style="fill:#FCD462;" d="M132.192,151.87c-9.862,0-17.883-8.021-17.883-17.883c0-9.862,8.021-17.882,17.883-17.882H301.64
	c5.171,0,9.381,4.209,9.381,9.381v26.385H132.192z"/>
<path style="fill:#DC8744;" d="M325.046,161.251h-4.643H132.197h-0.003c-15.057,0-27.264-12.207-27.264-27.264v191.758
	c0,10.389,8.421,18.81,18.81,18.81h201.307c10.388,0,18.81-8.421,18.81-18.81V180.061
	C343.856,169.672,335.435,161.251,325.046,161.251z"/>
<path style="fill:#FCD462;" d="M343.977,236.533h-50.283c-10.466,0-18.95,8.484-18.95,18.951c0,10.466,8.484,18.95,18.95,18.95
	h50.283c1.319,0,2.389-1.07,2.389-2.389v-33.123C346.366,237.603,345.296,236.533,343.977,236.533z"/>
<circle style="fill:#64798A;" cx="294.819" cy="255.483" r="11.412"/>
<path style="fill:#2F4859;" d="M294.798,246.948c-0.353,0-0.687,0.062-1.028,0.103c4.223,0.514,7.507,4.07,7.507,8.432
	c0,4.362-3.284,7.918-7.507,8.432c0.341,0.041,0.676,0.104,1.028,0.104c4.714,0,8.535-3.822,8.535-8.535
	C303.333,250.77,299.511,246.948,294.798,246.948z"/>
<g>
</g>
<g>
</g>
<g>
</g>
<g>
</g>
<g>
</g>
<g>
</g>
<g>
</g>
<g>
</g>
<g>
</g>
<g>
</g>
<g>
</g>
<g>
</g>
<g>
</g>
<g>
</g>
<g>
</g>
</svg>
