<?xml version="1.0" encoding="iso-8859-1"?>
<!-- Generator: Adobe Illustrator 19.0.0, SVG Export Plug-In . SVG Version: 6.00 Build 0)  -->
<svg version="1.1" id="Layer_1" xmlns="http://www.w3.org/2000/svg" xmlns:xlink="http://www.w3.org/1999/xlink" x="0px" y="0px"
	 viewBox="0 0 451.296 451.296" style="enable-background:new 0 0 451.296 451.296;" xml:space="preserve">
<circle style="fill:#45B39C;" cx="225.638" cy="225.648" r="225.638"/>
<path style="opacity:0.1;enable-background:new    ;" d="M451.296,225.648c0-12.171-0.993-24.108-2.848-35.757l-93.526-93.526
	H96.355v21.884l14.397,14.397v124.079H96.355v21.884l61.592,61.592l-4.303,14.729l95.193,95.193
	C362.566,438.51,451.296,342.442,451.296,225.648z"/>
<rect x="96.353" y="96.363" style="fill:#64798A;" width="258.56" height="21.883"/>
<g>
	<rect x="220.124" y="286.177" style="fill:#3A556A;" width="11.028" height="48.461"/>
	<polygon style="fill:#3A556A;" points="153.645,354.931 165.113,354.931 185.198,286.176 173.731,286.176 	"/>
	<polygon style="fill:#3A556A;" points="286.164,354.931 297.632,354.931 277.546,286.176 266.079,286.176 	"/>
</g>
<g>
	<rect x="220.124" y="267.786" style="fill:#2F4859;" width="11.028" height="18.401"/>
	<polygon style="fill:#2F4859;" points="179.073,267.888 173.731,286.176 185.198,286.176 189.679,270.836 	"/>
	<polygon style="fill:#2F4859;" points="261.597,270.836 266.079,286.176 277.546,286.176 272.204,267.888 	"/>
</g>
<rect x="96.353" y="256.726" style="fill:#64798A;" width="258.56" height="21.883"/>
<rect x="110.751" y="118.23" style="fill:#EBF0F3;" width="229.77" height="138.496"/>
<rect x="110.751" y="118.23" style="fill:#E1E6E9;" width="229.77" height="7.649"/>
<rect x="140.186" y="230.584" style="fill:#F6C358;" width="26.194" height="8.187"/>
<rect x="140.186" y="165.078" style="fill:#FCD462;" width="26.194" height="65.49"/>
<rect x="188.416" y="230.584" style="fill:#3EA69B;" width="26.194" height="8.187"/>
<rect x="188.416" y="136.202" style="fill:#44C4A1;" width="26.194" height="94.382"/>
<rect x="236.646" y="230.584" style="fill:#D15241;" width="26.194" height="8.187"/>
<rect x="236.646" y="179.542" style="fill:#E56353;" width="26.194" height="51.041"/>
<rect x="284.928" y="230.584" style="fill:#2D93BA;" width="26.194" height="8.187"/>
<rect x="284.928" y="154.48" style="fill:#27A2DB;" width="26.194" height="76.083"/>
<g>
</g>
<g>
</g>
<g>
</g>
<g>
</g>
<g>
</g>
<g>
</g>
<g>
</g>
<g>
</g>
<g>
</g>
<g>
</g>
<g>
</g>
<g>
</g>
<g>
</g>
<g>
</g>
<g>
</g>
</svg>
