<?xml version="1.0" encoding="iso-8859-1"?>
<!-- Generator: Adobe Illustrator 19.0.0, SVG Export Plug-In . SVG Version: 6.00 Build 0)  -->
<svg version="1.1" id="Layer_1" xmlns="http://www.w3.org/2000/svg" xmlns:xlink="http://www.w3.org/1999/xlink" x="0px" y="0px"
	 viewBox="0 0 451.296 451.296" style="enable-background:new 0 0 451.296 451.296;" xml:space="preserve">
<circle style="fill:#EA8953;" cx="225.648" cy="225.638" r="225.638"/>
<path style="opacity:0.1;enable-background:new    ;" d="M144.979,103.487l-43.251,48.328v18.852c0,4.137,1.598,7.851,4.231,10.625
	l0.893,0.893l6.77,6.77v142.964H96.369v15.89l101.758,101.758c9.027,1.098,18.198,1.73,27.521,1.73
	c117.283,0,213.639-89.482,224.592-203.894L306.324,103.487H144.979z"/>
<rect x="113.622" y="162.463" style="fill:#FCD462;" width="224.092" height="169.472"/>
<rect x="96.363" y="331.93" style="fill:#64798A;" width="258.56" height="15.882"/>
<rect x="136.54" y="212.275" style="fill:#DC8744;" width="71.24" height="119.649"/>
<circle style="fill:#EBF0F3;" cx="193.658" cy="272.077" r="5.335"/>
<rect x="228.633" y="225.137" style="fill:#DC8744;" width="91.049" height="62.551"/>
<rect x="233.83" y="230.38" style="fill:#27A2DB;" width="80.599" height="52.101"/>
<g>
	<polygon style="fill:#3AB1DB;" points="271.174,282.462 284.31,230.36 287.844,230.36 274.708,282.462 	"/>
	<polygon style="fill:#3AB1DB;" points="260.47,282.462 273.606,230.36 281.096,230.36 267.96,282.462 	"/>
</g>
<path style="fill:#D5D6DB;" d="M101.715,151.796v18.859c0,8.555,6.936,15.491,15.492,15.491s15.491-6.936,15.491-15.491v-18.859
	H101.715z"/>
<path style="fill:#D15241;" d="M132.699,151.796v18.859c0,8.555,6.936,15.491,15.491,15.491h0c8.555,0,15.491-6.936,15.491-15.491
	v-18.859H132.699z"/>
<path style="fill:#D5D6DB;" d="M163.682,151.796v18.859c0,8.555,6.936,15.491,15.491,15.491s15.491-6.936,15.491-15.491v-18.859
	H163.682z"/>
<path style="fill:#D15241;" d="M194.665,151.796v18.859c0,8.555,6.936,15.491,15.492,15.491c8.556,0,15.491-6.936,15.491-15.491
	v-18.859H194.665z"/>
<path style="fill:#D5D6DB;" d="M225.648,151.796v18.859c0,8.555,6.936,15.491,15.491,15.491c8.556,0,15.491-6.936,15.491-15.491
	v-18.859H225.648z"/>
<path style="fill:#D15241;" d="M256.631,151.796v18.859c0,8.555,6.936,15.491,15.492,15.491c8.556,0,15.491-6.936,15.491-15.491
	v-18.859H256.631z"/>
<path style="fill:#D5D6DB;" d="M287.614,151.796v18.859c0,8.555,6.936,15.491,15.491,15.491c8.556,0,15.492-6.936,15.492-15.491
	v-18.859H287.614z"/>
<path style="fill:#D15241;" d="M318.597,151.796v18.859c0,8.555,6.936,15.491,15.491,15.491s15.492-6.936,15.492-15.491v-18.859
	H318.597z"/>
<polygon style="fill:#EBF0F3;" points="165.137,103.469 144.966,103.469 101.715,151.796 132.699,151.796 "/>
<polygon style="fill:#E56353;" points="185.307,103.469 165.137,103.469 132.699,151.796 163.682,151.796 "/>
<polygon style="fill:#EBF0F3;" points="205.478,103.469 185.307,103.469 163.682,151.796 194.665,151.796 "/>
<polygon style="fill:#E56353;" points="225.648,103.469 205.478,103.469 194.665,151.796 225.648,151.796 "/>
<polygon style="fill:#EBF0F3;" points="245.819,103.469 225.648,103.469 225.648,151.796 256.631,151.796 "/>
<polygon style="fill:#E56353;" points="265.989,103.469 245.819,103.469 256.631,151.796 287.614,151.796 "/>
<polygon style="fill:#EBF0F3;" points="286.16,103.469 265.989,103.469 287.614,151.796 318.597,151.796 "/>
<polygon style="fill:#E56353;" points="306.33,103.469 286.16,103.469 318.597,151.796 349.58,151.796 "/>
<g>
</g>
<g>
</g>
<g>
</g>
<g>
</g>
<g>
</g>
<g>
</g>
<g>
</g>
<g>
</g>
<g>
</g>
<g>
</g>
<g>
</g>
<g>
</g>
<g>
</g>
<g>
</g>
<g>
</g>
</svg>
