<?xml version="1.0" encoding="iso-8859-1"?>
<!-- Generator: Adobe Illustrator 19.0.0, SVG Export Plug-In . SVG Version: 6.00 Build 0)  -->
<svg version="1.1" id="Layer_1" xmlns="http://www.w3.org/2000/svg" xmlns:xlink="http://www.w3.org/1999/xlink" x="0px" y="0px"
	 viewBox="0 0 451.296 451.296" style="enable-background:new 0 0 451.296 451.296;" xml:space="preserve">
<circle style="fill:#334D5C;" cx="225.648" cy="225.638" r="225.638"/>
<path style="opacity:0.1;enable-background:new    ;" d="M450.217,247.711L298.849,96.344H96.369v230.547
	c0,7.24,2.727,13.774,7.193,18.711l104.984,104.984c5.652,0.424,11.342,0.71,17.103,0.71
	C342.826,451.296,439.12,361.976,450.217,247.711z M298.85,326.88v0.001V326.88z"/>
<path style="fill:#FFFFFF;" d="M298.85,326.882L298.85,326.882L298.85,326.882V201.274V96.355H96.365v230.525
	c0,15.487,12.554,28.041,28.04,28.041h202.485h0C311.404,354.921,298.851,342.367,298.85,326.882z"/>
<path style="fill:#EBF0F3;" d="M298.85,201.274v125.606v0.001c0,15.486,12.554,28.04,28.04,28.04h0l0,0
	c15.486,0,28.04-12.554,28.04-28.041V201.274H298.85z"/>
<path style="fill:#E1E6E9;" d="M321.875,201.274V323.79c0,2.77,2.245,5.016,5.015,5.016s5.015-2.245,5.015-5.016V201.274H321.875z"
	/>
<rect x="114.237" y="113.408" style="fill:#FCD462;" width="167.654" height="46.807"/>
<g>
	<path style="fill:#E56353;" d="M117.487,181.751v-3.897h12.493v16.941c0,2.985-0.76,5.23-2.279,6.722
		c-1.519,1.493-3.465,2.239-5.843,2.239c-2.988,0-5.534-1.05-7.642-3.156l2.463-3.417c1.666,1.589,3.294,2.388,4.885,2.388
		c1.127,0,2.09-0.384,2.884-1.141c0.797-0.757,1.194-1.898,1.194-3.417v-13.263H117.487z"/>
	<path style="fill:#E56353;" d="M158.38,199.993c-2.596,2.532-5.805,3.801-9.627,3.801c-3.82,0-7.029-1.269-9.625-3.801
		c-2.596-2.538-3.894-5.693-3.894-9.478s1.298-6.946,3.894-9.479c2.596-2.537,5.805-3.806,9.625-3.806
		c3.822,0,7.031,1.269,9.627,3.806c2.596,2.533,3.894,5.694,3.894,9.479S160.976,197.456,158.38,199.993z M155.203,183.921
		c-1.754-1.812-3.902-2.719-6.45-2.719c-2.546,0-4.697,0.906-6.448,2.719s-2.626,4.009-2.626,6.594c0,2.585,0.874,4.782,2.626,6.594
		c1.751,1.813,3.902,2.719,6.448,2.719c2.548,0,4.696-0.906,6.45-2.719c1.751-1.812,2.626-4.009,2.626-6.594
		C157.828,187.93,156.954,185.733,155.203,183.921z"/>
	<path style="fill:#E56353;" d="M178.992,203.539h-11.243v-25.684h9.993c1.74,0,3.241,0.208,4.502,0.629
		c1.26,0.416,2.199,0.975,2.812,1.69c1.176,1.322,1.762,2.815,1.762,4.478c0,2.01-0.637,3.508-1.911,4.484
		c-0.464,0.346-0.784,0.559-0.954,0.645c-0.171,0.085-0.477,0.224-0.92,0.421c1.594,0.346,2.86,1.061,3.804,2.148
		c0.944,1.093,1.415,2.447,1.415,4.062c0,1.786-0.613,3.369-1.836,4.739C184.967,202.744,182.494,203.539,178.992,203.539z
		 M172.086,188.511h5.509c3.137,0,4.704-1.066,4.704-3.198c0-1.221-0.381-2.106-1.141-2.644c-0.76-0.538-1.935-0.805-3.526-0.805
		h-5.546V188.511z M172.086,199.535h6.797c1.591,0,2.809-0.251,3.654-0.757c0.845-0.501,1.269-1.45,1.269-2.847
		c0-2.276-1.826-3.417-5.475-3.417h-6.245V199.535z"/>
</g>
<g>
	<rect x="114.237" y="226.97" style="fill:#EBF0F3;" width="74.035" height="4.7"/>
	<rect x="207.835" y="226.97" style="fill:#EBF0F3;" width="74.035" height="4.7"/>
	<rect x="114.237" y="244.152" style="fill:#EBF0F3;" width="74.035" height="4.7"/>
	<rect x="207.835" y="244.152" style="fill:#EBF0F3;" width="74.035" height="4.7"/>
	<rect x="114.237" y="261.315" style="fill:#EBF0F3;" width="74.035" height="4.7"/>
	<rect x="207.835" y="261.315" style="fill:#EBF0F3;" width="74.035" height="4.7"/>
	<rect x="114.237" y="278.477" style="fill:#EBF0F3;" width="74.035" height="4.7"/>
	<rect x="207.835" y="278.477" style="fill:#EBF0F3;" width="74.035" height="4.7"/>
	<rect x="207.835" y="175.514" style="fill:#EBF0F3;" width="74.035" height="4.7"/>
	<rect x="207.835" y="192.666" style="fill:#EBF0F3;" width="74.035" height="4.7"/>
	<rect x="207.835" y="209.828" style="fill:#EBF0F3;" width="74.035" height="4.7"/>
	<rect x="114.237" y="295.629" style="fill:#EBF0F3;" width="74.035" height="4.7"/>
	<rect x="207.835" y="295.629" style="fill:#EBF0F3;" width="74.035" height="4.7"/>
	<rect x="114.237" y="312.781" style="fill:#EBF0F3;" width="74.035" height="4.7"/>
	<rect x="207.835" y="312.781" style="fill:#EBF0F3;" width="74.035" height="4.7"/>
	<rect x="114.237" y="329.984" style="fill:#EBF0F3;" width="74.035" height="4.7"/>
	<rect x="207.835" y="329.984" style="fill:#EBF0F3;" width="74.035" height="4.7"/>
</g>
<g>
	<path style="fill:#FFFFFF;" d="M152.833,120.996h5.405v32.011h-5.86l-18.138-23.364v23.364h-5.405v-32.011h5.405l18.593,23.9
		V120.996z"/>
	<path style="fill:#FFFFFF;" d="M189.615,120.996v5.084h-17.087v8.469h15.342v4.816h-15.342v8.558h17.631v5.084h-23.036v-32.011
		H189.615z"/>
	<path style="fill:#FFFFFF;" d="M207.067,144.032l7.149-23.036h4.853l7.149,23.036l8.059-23.036h5.815l-11.175,32.011h-5.36
		l-6.732-21.933h-0.365l-6.732,21.933h-5.36l-11.175-32.011h5.815L207.067,144.032z"/>
	<path style="fill:#FFFFFF;" d="M254.763,125.201c-1.573,0-2.863,0.328-3.869,0.969c-1.006,0.641-1.506,1.61-1.506,2.908
		c0,1.297,0.5,2.281,1.506,2.982c1.007,0.685,3.154,1.416,6.434,2.221c3.288,0.79,5.763,1.909,7.425,3.34
		c1.663,1.432,2.498,3.548,2.498,6.337c0,2.803-1.059,5.069-3.161,6.799c-2.11,1.745-4.876,2.624-8.29,2.624
		c-5.01,0-9.453-1.73-13.329-5.189l3.384-4.07c3.243,2.803,6.598,4.219,10.079,4.219c1.745,0,3.123-0.373,4.145-1.133
		c1.021-0.746,1.535-1.73,1.535-2.967c0-1.238-0.484-2.207-1.446-2.893c-0.962-0.686-2.617-1.312-4.965-1.879
		c-2.356-0.566-4.138-1.074-5.36-1.551c-1.223-0.477-2.304-1.088-3.25-1.864c-1.894-1.432-2.84-3.623-2.84-6.59
		c0-2.967,1.073-5.248,3.228-6.844c2.155-1.61,4.816-2.415,7.992-2.415c2.043,0,4.078,0.343,6.091,1.014
		c2.02,0.671,3.757,1.625,5.226,2.833l-2.885,4.085c-0.947-0.85-2.229-1.566-3.854-2.102
		C257.932,125.484,256.336,125.201,254.763,125.201z"/>
</g>
<g>
</g>
<g>
</g>
<g>
</g>
<g>
</g>
<g>
</g>
<g>
</g>
<g>
</g>
<g>
</g>
<g>
</g>
<g>
</g>
<g>
</g>
<g>
</g>
<g>
</g>
<g>
</g>
<g>
</g>
</svg>
