<?xml version="1.0" encoding="iso-8859-1"?>
<!-- Generator: Adobe Illustrator 19.0.0, SVG Export Plug-In . SVG Version: 6.00 Build 0)  -->
<svg version="1.1" id="Layer_1" xmlns="http://www.w3.org/2000/svg" xmlns:xlink="http://www.w3.org/1999/xlink" x="0px" y="0px"
	 viewBox="0 0 451.296 451.296" style="enable-background:new 0 0 451.296 451.296;" xml:space="preserve">
<circle style="fill:#EA8953;" cx="225.638" cy="225.648" r="225.638"/>
<path style="opacity:0.1;enable-background:new    ;" d="M451.296,225.648c0-5.176-0.237-10.295-0.581-15.384l-96.986-96.987
	l-0.033,0.027c-0.914-1.081-2.231-1.806-3.757-1.806H101.338c-2.752,0-4.982,2.23-4.982,4.982v148.813v26.833
	c0,1.288,0.521,2.437,1.323,3.321l-0.023,0.008l0.088,0.089c0.058,0.061,0.114,0.117,0.175,0.175l154.013,154.013
	C364.163,436.699,451.296,341.375,451.296,225.648z"/>
<g>
	<path style="fill:#64798A;" d="M96.355,265.292v26.833c0,2.752,2.23,4.982,4.982,4.982h248.601c2.752,0,4.982-2.231,4.982-4.982
		v-26.833H96.355z"/>
	<path style="fill:#64798A;" d="M354.921,116.48c0-2.752-2.231-4.982-4.982-4.982H101.338c-2.752,0-4.982,2.23-4.982,4.982v148.813
		h258.566V116.48z"/>
</g>
<path style="fill:#EBF0F3;" d="M339.281,131.267c0-2.478-1.961-4.487-4.38-4.487H116.375c-2.419,0-4.38,2.009-4.38,4.487v134.025
	h227.285V131.267z"/>
<g>
	<circle style="fill:#3A556A;" cx="225.638" cy="281.2" r="7.163"/>
	<rect x="175.309" y="297.108" style="fill:#3A556A;" width="100.69" height="32.835"/>
</g>
<g>
	<polygon style="fill:#2F4859;" points="175.294,329.943 175.294,297.107 275.983,297.107 	"/>
	<rect x="164.301" y="329.942" style="fill:#2F4859;" width="122.685" height="9.856"/>
</g>
<rect x="111.995" y="261.416" style="fill:#E1E6E9;" width="227.277" height="3.876"/>
<g>
</g>
<g>
</g>
<g>
</g>
<g>
</g>
<g>
</g>
<g>
</g>
<g>
</g>
<g>
</g>
<g>
</g>
<g>
</g>
<g>
</g>
<g>
</g>
<g>
</g>
<g>
</g>
<g>
</g>
</svg>
