<?xml version="1.0" encoding="iso-8859-1"?>
<!-- Generator: Adobe Illustrator 19.0.0, SVG Export Plug-In . SVG Version: 6.00 Build 0)  -->
<svg version="1.1" id="Layer_1" xmlns="http://www.w3.org/2000/svg" xmlns:xlink="http://www.w3.org/1999/xlink" x="0px" y="0px"
	 viewBox="0 0 451.277 451.277" style="enable-background:new 0 0 451.277 451.277;" xml:space="preserve">
<circle style="fill:#EFC84A;" cx="225.638" cy="225.638" r="225.638"/>
<path style="opacity:0.1;enable-background:new    ;" d="M443.963,282.838L257.487,96.361h-35.165l-12.035,17.865l12.27,27.22
	l-4.795,30.511l-0.846,5.5h-0.047l-49.363,49.363l-1.363,17.535l34.742,34.742l-0.424,2.68l-1.41,9.026l-2.868,18.428h-0.047
	l-1.41,9.027v0.094l0.495,0.401l115.783,115.783C376.068,407.919,425.936,351.831,443.963,282.838z"/>
<g>
	<polygon style="fill:#D15241;" points="244.325,182.37 183.684,243.011 166.165,244.359 167.513,226.84 228.154,166.2 	"/>
	<polygon style="fill:#D15241;" points="257.29,141.439 269.529,114.211 257.492,96.355 222.342,96.355 210.304,114.211 
		222.545,141.439 	"/>
</g>
<polygon style="fill:#E56353;" points="285.111,318.331 239.917,354.921 194.723,318.331 222.565,141.439 257.269,141.439 "/>
<g>
	<polygon style="fill:#EBF0F3;" points="228.679,345.823 283.865,310.411 282.709,303.07 223.11,341.314 	"/>
	<polygon style="fill:#EBF0F3;" points="211.672,332.053 280.336,287.991 279.18,280.65 206.102,327.544 	"/>
	<polygon style="fill:#EBF0F3;" points="194.737,318.24 276.808,265.575 275.652,258.232 196.152,309.248 	"/>
	<polygon style="fill:#EBF0F3;" points="199.059,290.783 273.279,243.155 272.123,235.813 200.474,281.791 	"/>
	<polygon style="fill:#EBF0F3;" points="203.38,263.325 269.75,220.736 268.595,213.395 204.796,254.335 	"/>
	<polygon style="fill:#EBF0F3;" points="207.702,235.869 266.222,198.316 265.066,190.975 209.117,226.878 	"/>
	<polygon style="fill:#EBF0F3;" points="261.537,168.556 213.439,199.421 212.024,208.412 262.693,175.897 	"/>
	<polygon style="fill:#EBF0F3;" points="258.009,146.137 217.761,171.965 216.345,180.955 259.164,153.479 	"/>
</g>
<g>
</g>
<g>
</g>
<g>
</g>
<g>
</g>
<g>
</g>
<g>
</g>
<g>
</g>
<g>
</g>
<g>
</g>
<g>
</g>
<g>
</g>
<g>
</g>
<g>
</g>
<g>
</g>
<g>
</g>
</svg>
