<?xml version="1.0" encoding="iso-8859-1"?>
<!-- Generator: Adobe Illustrator 19.0.0, SVG Export Plug-In . SVG Version: 6.00 Build 0)  -->
<svg version="1.1" id="Layer_1" xmlns="http://www.w3.org/2000/svg" xmlns:xlink="http://www.w3.org/1999/xlink" x="0px" y="0px"
	 viewBox="0 0 451.277 451.277" style="enable-background:new 0 0 451.277 451.277;" xml:space="preserve">
<circle style="fill:#EFC84A;" cx="225.638" cy="225.638" r="225.638"/>
<path style="opacity:0.1;enable-background:new    ;" d="M444.664,279.99L286.544,121.871
	c-15.514-15.749-37.093-25.527-60.928-25.527c-47.2,0-85.468,38.268-85.468,85.467c0,47.2,85.468,173.099,85.468,173.099
	l81.256,81.257C374.85,409.917,426.915,351.741,444.664,279.99z"/>
<path style="fill:#E56353;" d="M140.171,181.822c0,47.202,85.467,173.099,85.467,173.099V96.355
	C178.436,96.355,140.171,134.62,140.171,181.822z"/>
<path style="fill:#D15241;" d="M225.638,96.355v258.566c0,0,85.467-125.897,85.467-173.099S272.84,96.355,225.638,96.355z"/>
<circle style="fill:#EBF0F3;" cx="225.638" cy="181.811" r="53.683"/>
<g>
</g>
<g>
</g>
<g>
</g>
<g>
</g>
<g>
</g>
<g>
</g>
<g>
</g>
<g>
</g>
<g>
</g>
<g>
</g>
<g>
</g>
<g>
</g>
<g>
</g>
<g>
</g>
<g>
</g>
</svg>
