<?xml version="1.0" encoding="iso-8859-1"?>
<!-- Generator: Adobe Illustrator 19.0.0, SVG Export Plug-In . SVG Version: 6.00 Build 0)  -->
<svg version="1.1" id="Layer_1" xmlns="http://www.w3.org/2000/svg" xmlns:xlink="http://www.w3.org/1999/xlink" x="0px" y="0px"
	 viewBox="0 0 451.277 451.277" style="enable-background:new 0 0 451.277 451.277;" xml:space="preserve">
<circle style="fill:#EFC84A;" cx="225.638" cy="225.638" r="225.638"/>
<path style="opacity:0.1;enable-background:new    ;" d="M451.058,235.057L313.421,97.42L293,117.84
	c-19.84-12.641-43.346-20.038-68.617-20.038c-70.707,0-128.027,57.32-128.027,128.027c0,34.068,13.333,65.004,35.032,87.942v0
	c1.638,1.732,3.324,3.417,5.056,5.056L265.356,447.74C368.026,429.499,446.666,341.886,451.058,235.057z"/>
<path style="fill:#E56353;" d="M332.097,254.03c-12.519,47.782-56.06,83.14-107.714,83.14c-61.395,0-111.341-49.946-111.341-111.341
	s49.946-111.341,111.341-111.341c50.88,0,93.866,34.317,107.108,81.011h17.273c-13.625-56.062-64.127-97.697-124.381-97.697
	c-70.707,0-128.027,57.32-128.027,128.027s57.32,128.027,128.027,128.027c61.018,0,112.031-42.7,124.876-99.839L332.097,254.03z"/>
<path style="fill:#FFFFFF;" d="M316.399,247.645c-9.891,41.693-47.344,72.839-92.017,72.839c-52.192,0-94.655-42.464-94.655-94.655
	c0-52.192,42.464-94.655,94.655-94.655c44.018,0,81.008,30.249,91.548,71.021l5.16-6.696h10.4
	c-13.242-46.694-56.228-81.011-107.108-81.011c-61.395,0-111.341,49.947-111.341,111.341S162.988,337.17,224.383,337.17
	c51.654,0,95.195-35.358,107.714-83.14l-10.75,0.008L316.399,247.645z"/>
<path style="fill:#E56353;" d="M224.383,131.174c-52.192,0-94.655,42.464-94.655,94.655c0,52.191,42.464,94.655,94.655,94.655
	c44.673,0,82.125-31.147,92.017-72.839l-14.218-18.373h-0.003c-1.821,41.388-35.966,74.527-77.795,74.527
	c-42.992,0-77.969-34.978-77.969-77.97s34.978-77.97,77.969-77.97c41.088,0,74.773,31.97,77.684,72.328l13.864-17.993
	C305.391,161.423,268.401,131.174,224.383,131.174z"/>
<path style="fill:#FFFFFF;" d="M224.383,287.113c-33.792,0-61.284-27.492-61.284-61.284s27.492-61.284,61.284-61.284
	c31.977,0,58.275,24.629,61.012,55.908h16.468l0.204-0.265c-2.911-40.358-36.597-72.328-77.684-72.328
	c-42.992,0-77.969,34.978-77.969,77.97s34.978,77.97,77.969,77.97c41.829,0,75.975-33.139,77.795-74.527l-16.686,0.006
	C283.687,261.462,257.01,287.113,224.383,287.113z"/>
<path style="fill:#E56353;" d="M224.383,164.545c-33.792,0-61.284,27.493-61.284,61.284s27.492,61.284,61.284,61.284
	c32.628,0,59.305-25.651,61.11-57.836l-16.686,0.006c-1.774,22.979-20.997,41.144-44.424,41.144
	c-24.592,0-44.598-20.006-44.598-44.598s20.006-44.598,44.598-44.598c22.769,0,41.574,17.161,44.242,39.222h16.77
	C282.658,189.174,256.36,164.545,224.383,164.545z"/>
<path style="fill:#FFFFFF;" d="M224.383,253.742c-15.392,0-27.912-12.521-27.912-27.912c0-15.392,12.52-27.912,27.912-27.912
	c13.552,0,24.867,9.71,27.382,22.536h16.86c-2.668-22.061-21.473-39.222-44.242-39.222c-24.592,0-44.598,20.006-44.598,44.598
	s20.006,44.598,44.598,44.598c23.426,0,42.649-18.165,44.424-41.144l-16.749,0.006C250.345,243.051,238.601,253.742,224.383,253.742
	z"/>
<path style="fill:#E56353;" d="M224.383,197.917c-15.392,0-27.912,12.52-27.912,27.912c0,15.392,12.52,27.912,27.912,27.912
	c14.218,0,25.962-10.691,27.675-24.452l-26.732,0.009v-8.846h26.439C249.25,207.627,237.935,197.917,224.383,197.917z"/>
<path style="fill:#D15241;" d="M335.724,225.829c0,9.741-1.266,19.19-3.627,28.201l17.162-0.013
	c2.039-9.074,3.152-18.498,3.152-28.188c0-10.454-1.283-20.603-3.646-30.33h-17.273
	C334.227,205.149,335.724,215.315,335.724,225.829z"/>
<path style="fill:#EBF0F3;" d="M331.491,195.499h-10.4l-5.16,6.696c1.957,7.57,3.108,15.461,3.108,23.634
	c0,7.519-0.975,14.799-2.639,21.816l4.947,6.394l10.75-0.008c2.361-9.011,3.627-18.46,3.627-28.201
	C335.724,215.315,334.227,205.149,331.491,195.499z"/>
<path style="fill:#D15241;" d="M302.353,225.829c0,1.162-0.124,2.293-0.174,3.443h0.003l14.218,18.373
	c1.664-7.017,2.639-14.297,2.639-21.816c0-8.173-1.15-16.064-3.108-23.634l-13.864,17.993
	C302.202,222.058,302.353,223.925,302.353,225.829z"/>
<path style="fill:#EBF0F3;" d="M302.067,220.188l-0.204,0.265h-16.468c0.155,1.775,0.272,3.562,0.272,5.377
	c0,1.164-0.11,2.3-0.174,3.448l16.686-0.006c0.05-1.15,0.174-2.281,0.174-3.443C302.353,223.925,302.202,222.058,302.067,220.188z"
	/>
<path style="fill:#D15241;" d="M268.981,225.829c0,1.166-0.087,2.31-0.175,3.454l16.686-0.006c0.064-1.148,0.174-2.285,0.174-3.448
	c0-1.815-0.117-3.602-0.272-5.377h-16.77C268.838,222.219,268.981,224.006,268.981,225.829z"/>
<path style="fill:#EBF0F3;" d="M268.624,220.452h-16.86c0.341,1.741,0.531,3.537,0.531,5.377c0,1.174-0.096,2.324-0.238,3.46
	l16.749-0.006c0.088-1.144,0.175-2.288,0.175-3.454C268.981,224.006,268.838,222.219,268.624,220.452z"/>
<path style="fill:#D15241;" d="M225.325,229.298l26.732-0.009c0.142-1.136,0.238-2.286,0.238-3.46c0-1.84-0.19-3.635-0.531-5.377
	h-26.439V229.298z"/>
<path style="fill:#64798A;" d="M316.783,129.307l-92.425,92.425c-1.726,1.726-1.726,4.525,0,6.251l0,0
	c1.726,1.726,4.525,1.726,6.251,0l92.425-92.425c1.726-1.726,1.726-4.524,0-6.251C321.307,127.582,318.509,127.581,316.783,129.307z
	"/>
<g>
	<polygon style="fill:#3A556A;" points="313.421,97.42 271.341,139.499 275.35,170.74 317.43,128.66 	"/>
	<polygon style="fill:#3A556A;" points="354.921,138.92 312.842,181 281.601,176.991 323.681,134.911 	"/>
</g>
<g>
</g>
<g>
</g>
<g>
</g>
<g>
</g>
<g>
</g>
<g>
</g>
<g>
</g>
<g>
</g>
<g>
</g>
<g>
</g>
<g>
</g>
<g>
</g>
<g>
</g>
<g>
</g>
<g>
</g>
</svg>
