<?xml version="1.0" encoding="iso-8859-1"?>
<!-- Generator: Adobe Illustrator 19.0.0, SVG Export Plug-In . SVG Version: 6.00 Build 0)  -->
<svg version="1.1" id="Layer_1" xmlns="http://www.w3.org/2000/svg" xmlns:xlink="http://www.w3.org/1999/xlink" x="0px" y="0px"
	 viewBox="0 0 451.296 451.296" style="enable-background:new 0 0 451.296 451.296;" xml:space="preserve">
<circle style="fill:#334D5C;" cx="225.648" cy="225.638" r="225.638"/>
<path style="opacity:0.1;enable-background:new    ;" d="M450.765,240.507l-98.202-98.202c-0.072-0.074-0.144-0.147-0.219-0.218
	l-0.038-0.038l-0.002,0.005c-1.511-1.439-3.545-2.336-5.796-2.336h-14.992l-4.716-4.716h-16.147l-31.046-31.046
	c-0.101-0.108-0.204-0.211-0.312-0.312l-0.014-0.014l-0.001,0.001c-1.242-1.16-2.898-1.883-4.731-1.883h-97.801
	c-3.841,0-6.954,3.114-6.954,6.954v31.016h-18.819v-4.716h-26.479v4.716h-19.708c-4.652,0-8.423,3.771-8.423,8.423v72.433v5.171
	v110.186v5.171c0,2.492,1.103,4.708,2.824,6.25l102.688,102.688c7.813,0.818,15.741,1.254,23.771,1.254
	C345.274,451.296,443.101,358.195,450.765,240.507z"/>
<g>
	<rect x="124.477" y="135.014" style="fill:#DC8744;" width="26.481" height="6.994"/>
	<rect x="300.298" y="135.014" style="fill:#DC8744;" width="26.481" height="6.994"/>
	<path style="fill:#DC8744;" d="M354.931,225.747H96.365v114.607c0,5.066,4.107,9.173,9.174,9.173h240.22
		c5.066,0,9.173-4.107,9.173-9.173V225.747z"/>
</g>
<path style="fill:#F6C358;" d="M354.931,220.576H96.365v114.607c0,5.066,4.107,9.173,9.174,9.173h240.22
	c5.066,0,9.173-4.107,9.173-9.173V220.576z"/>
<g>
	<path style="fill:#DC8744;" d="M281.503,166.05H169.794v-57.346c0-3.841,3.113-6.954,6.954-6.954h97.801
		c3.84,0,6.954,3.114,6.954,6.954V166.05z M185.308,150.536h80.681v-33.273h-80.681V150.536z"/>
	<rect x="96.363" y="220.57" style="fill:#DC8744;" width="258.56" height="5.171"/>
</g>
<path style="fill:#FCD462;" d="M354.931,220.576H96.365v-71.683c0-5.066,4.107-9.173,9.174-9.173h240.22
	c5.066,0,9.173,4.107,9.173,9.173V220.576z"/>
<rect x="286.044" y="208.84" style="fill:#64798A;" width="29.517" height="10.588"/>
<rect x="286.044" y="219.423" style="fill:#3A556A;" width="29.517" height="17.029"/>
<rect x="135.736" y="208.84" style="fill:#64798A;" width="29.517" height="10.588"/>
<rect x="135.736" y="219.423" style="fill:#3A556A;" width="29.517" height="17.029"/>
<g>
</g>
<g>
</g>
<g>
</g>
<g>
</g>
<g>
</g>
<g>
</g>
<g>
</g>
<g>
</g>
<g>
</g>
<g>
</g>
<g>
</g>
<g>
</g>
<g>
</g>
<g>
</g>
<g>
</g>
</svg>
