<?xml version="1.0" encoding="iso-8859-1"?>
<!-- Generator: Adobe Illustrator 19.0.0, SVG Export Plug-In . SVG Version: 6.00 Build 0)  -->
<svg version="1.1" id="Layer_1" xmlns="http://www.w3.org/2000/svg" xmlns:xlink="http://www.w3.org/1999/xlink" x="0px" y="0px"
	 viewBox="0 0 451.296 451.296" style="enable-background:new 0 0 451.296 451.296;" xml:space="preserve">
<circle style="fill:#334D5C;" cx="225.648" cy="225.638" r="225.638"/>
<path style="opacity:0.1;enable-background:new    ;" d="M263.044,111.771c-10.95-10.796-26.491-16.934-43.482-15.094
	c-23.553,2.633-43.157,21.296-46.683,44.755c-2.304,15.373,1.927,29.665,10.343,40.665c10.296,13.493,16.642,29.665,16.642,46.636
	v40.148h-6.112c-9.496,0-17.206,7.71-17.206,17.207H96.343v57.213l106.879,106.879c7.378,0.727,14.856,1.116,22.426,1.116
	c102.071,0,188.27-67.786,216.146-160.783L263.048,111.767L263.044,111.771z"/>
<rect x="109.424" y="343.281" style="fill:#E56353;" width="232.499" height="11.638"/>
<path style="fill:#EBF0F3;" d="M199.842,228.753v40.148h51.612v-40.169c0-16.733,5.805-32.871,16.159-46.013
	c7.151-9.076,11.418-20.528,11.418-32.98c0-31.486-27.259-56.605-59.464-53.046c-23.569,2.604-43.143,21.301-46.675,44.75
	c-2.311,15.34,1.917,29.675,10.313,40.659C193.533,195.61,199.842,211.747,199.842,228.753z"/>
<path style="fill:#E1E6E9;" d="M193.77,268.901c-9.501,0-17.204,7.702-17.204,17.204h98.164c0-9.501-7.703-17.204-17.204-17.204
	h-6.072h-51.612H193.77z"/>
<polygon style="fill:#F6C358;" points="354.931,286.104 96.365,286.104 96.365,343.283 111.73,343.283 339.566,343.283 
	354.931,343.283 "/>
<g>
</g>
<g>
</g>
<g>
</g>
<g>
</g>
<g>
</g>
<g>
</g>
<g>
</g>
<g>
</g>
<g>
</g>
<g>
</g>
<g>
</g>
<g>
</g>
<g>
</g>
<g>
</g>
<g>
</g>
</svg>
