<?xml version="1.0" encoding="iso-8859-1"?>
<!-- Generator: Adobe Illustrator 19.0.0, SVG Export Plug-In . SVG Version: 6.00 Build 0)  -->
<svg version="1.1" id="Layer_1" xmlns="http://www.w3.org/2000/svg" xmlns:xlink="http://www.w3.org/1999/xlink" x="0px" y="0px"
	 viewBox="0 0 451.296 451.296" style="enable-background:new 0 0 451.296 451.296;" xml:space="preserve">
<circle style="fill:#45B39C;" cx="225.648" cy="225.638" r="225.638"/>
<path style="opacity:0.1;enable-background:new    ;" d="M446.043,274.056L322.142,150.154L268.36,96.373H129.158v258.566
	l96.353,96.353c0.046,0,0.091,0.003,0.137,0.003C333.648,451.296,423.876,375.405,446.043,274.056z"/>
<polygon style="fill:#EBF0F3;" points="268.358,96.355 129.157,96.355 129.157,354.921 322.139,354.921 322.139,150.136 "/>
<polygon style="fill:#E1E6E9;" points="268.358,150.136 322.139,150.136 268.358,96.355 "/>
<g>
	<polygon style="fill:#D5D6DB;" points="322.139,150.136 268.358,150.136 322.139,187.415 	"/>
	<rect x="154.122" y="131.441" style="fill:#D5D6DB;" width="83.41" height="7.05"/>
	<rect x="154.122" y="159.181" style="fill:#D5D6DB;" width="83.41" height="7.05"/>
	<rect x="154.122" y="186.931" style="fill:#D5D6DB;" width="143.002" height="7.05"/>
	<rect x="154.122" y="214.692" style="fill:#D5D6DB;" width="143.002" height="7.05"/>
	<rect x="154.122" y="242.432" style="fill:#D5D6DB;" width="143.002" height="7.05"/>
	<rect x="154.122" y="270.193" style="fill:#D5D6DB;" width="143.002" height="7.05"/>
	<rect x="154.122" y="297.933" style="fill:#D5D6DB;" width="143.002" height="7.05"/>
	<rect x="154.122" y="325.683" style="fill:#D5D6DB;" width="143.002" height="7.05"/>
</g>
<path style="fill:#E56353;" d="M246.137,273.817c0-3.329-0.447-6.547-1.206-9.643l10.558-8.587l-9.094-15.751l-12.71,4.846
	c-4.648-4.462-10.352-7.817-16.711-9.658l-2.156-13.419h-18.188l-2.155,13.419c-6.359,1.841-12.063,5.196-16.711,9.658l-12.71-4.847
	l-9.094,15.751l10.558,8.588c-0.759,3.095-1.206,6.313-1.206,9.642c0,3.329,0.447,6.547,1.206,9.643l-10.558,8.588l9.094,15.751
	l12.71-4.847c4.648,4.462,10.352,7.817,16.711,9.658l2.155,13.419h18.188l2.156-13.419c6.359-1.841,12.063-5.196,16.711-9.658
	l12.71,4.847l9.094-15.751l-10.558-8.588C245.69,280.364,246.137,277.147,246.137,273.817z M205.726,301.551
	c-15.317,0-27.734-12.417-27.734-27.734c0-15.317,12.417-27.734,27.734-27.734c15.317,0,27.734,12.417,27.734,27.734
	C233.46,289.134,221.043,301.551,205.726,301.551z"/>
<path style="fill:#D15241;" d="M205.726,246.083c-15.317,0-27.734,12.417-27.734,27.734c0,15.317,12.417,27.734,27.734,27.734
	c15.317,0,27.734-12.417,27.734-27.734C233.46,258.5,221.043,246.083,205.726,246.083z M205.726,297.267
	c-12.951,0-23.45-10.499-23.45-23.45c0-12.951,10.499-23.45,23.45-23.45c12.951,0,23.45,10.499,23.45,23.45
	C229.176,286.768,218.677,297.267,205.726,297.267z"/>
<path style="fill:#44C4A1;" d="M289.335,217.007c0-2.136-0.286-4.2-0.774-6.185l6.773-5.509L289.5,195.21l-8.152,3.109
	c-2.982-2.862-6.64-5.014-10.719-6.195l-1.383-8.607h-11.666l-1.383,8.607c-4.078,1.181-7.737,3.333-10.719,6.195l-8.152-3.109
	l-5.833,10.103l6.772,5.509c-0.487,1.985-0.773,4.049-0.773,6.185c0,2.135,0.287,4.199,0.773,6.185l-6.772,5.508l5.833,10.103
	l8.152-3.109c2.982,2.862,6.64,5.014,10.719,6.195l1.383,8.607h11.666l1.383-8.607c4.079-1.181,7.738-3.333,10.719-6.195
	l8.152,3.109l5.833-10.103l-6.773-5.508C289.048,221.207,289.335,219.142,289.335,217.007z M263.414,234.796
	c-9.825,0-17.789-7.965-17.789-17.789c0-9.825,7.964-17.789,17.789-17.789c9.825,0,17.789,7.964,17.789,17.789
	C281.203,226.832,273.239,234.796,263.414,234.796z"/>
<path style="fill:#3EA69B;" d="M263.414,199.218c-9.825,0-17.789,7.964-17.789,17.789c0,9.825,7.964,17.789,17.789,17.789
	c9.825,0,17.789-7.965,17.789-17.789C281.203,207.182,273.239,199.218,263.414,199.218z M263.414,232.048
	c-8.308,0-15.042-6.734-15.042-15.042c0-8.307,6.734-15.042,15.042-15.042c8.307,0,15.041,6.734,15.041,15.042
	C278.455,225.314,271.721,232.048,263.414,232.048z"/>
<g>
</g>
<g>
</g>
<g>
</g>
<g>
</g>
<g>
</g>
<g>
</g>
<g>
</g>
<g>
</g>
<g>
</g>
<g>
</g>
<g>
</g>
<g>
</g>
<g>
</g>
<g>
</g>
<g>
</g>
</svg>
