<?xml version="1.0" encoding="iso-8859-1"?>
<!-- Generator: Adobe Illustrator 19.0.0, SVG Export Plug-In . SVG Version: 6.00 Build 0)  -->
<svg version="1.1" id="Layer_1" xmlns="http://www.w3.org/2000/svg" xmlns:xlink="http://www.w3.org/1999/xlink" x="0px" y="0px"
	 viewBox="0 0 451.277 451.277" style="enable-background:new 0 0 451.277 451.277;" xml:space="preserve">
<circle style="fill:#334D5C;" cx="225.638" cy="225.638" r="225.638"/>
<path style="opacity:0.1;enable-background:new    ;" d="M448.161,262.999L318.062,132.9h-61.114l-15.341-15.341h-73.288
	l-21.203-21.203h-13.901v258.566l96.277,96.277C339.652,449.347,430.557,368.603,448.161,262.999z"/>
<rect x="133.212" y="96.353" style="fill:#E1E6E9;" width="13.901" height="258.56"/>
<g>
	<polygon style="fill:#F6C358;" points="313.17,216.586 236.272,216.586 223.571,227.39 318.062,227.39 311.133,212.084 	"/>
	<polygon style="fill:#F6C358;" points="296.671,180.145 318.062,132.9 223.571,132.9 223.571,207.511 309.062,207.511 	"/>
</g>
<g>
	<polygon style="fill:#D15241;" points="309.062,207.511 309.062,207.511 311.133,212.084 	"/>
	<polygon style="fill:#D15241;" points="241.606,212.049 236.272,216.586 313.17,216.586 311.133,212.084 309.062,207.511 
		223.571,207.511 223.571,212.049 	"/>
</g>
<polygon style="fill:#DC8744;" points="223.571,216.586 223.571,227.39 236.272,216.586 "/>
<polygon style="fill:#CE412D;" points="223.571,212.049 223.571,216.586 236.272,216.586 241.606,212.049 "/>
<polygon style="fill:#D15241;" points="223.571,143.704 223.571,152.78 309.061,152.78 313.17,143.704 "/>
<rect x="147.118" y="117.56" style="fill:#FCD462;" width="94.49" height="94.49"/>
<g>
	<rect x="147.118" y="128.358" style="fill:#E56353;" width="94.49" height="9.073"/>
	<rect x="147.118" y="192.154" style="fill:#E56353;" width="94.49" height="9.073"/>
</g>
<g>
</g>
<g>
</g>
<g>
</g>
<g>
</g>
<g>
</g>
<g>
</g>
<g>
</g>
<g>
</g>
<g>
</g>
<g>
</g>
<g>
</g>
<g>
</g>
<g>
</g>
<g>
</g>
<g>
</g>
</svg>
