<?xml version="1.0" encoding="iso-8859-1"?>
<!-- Generator: Adobe Illustrator 19.0.0, SVG Export Plug-In . SVG Version: 6.00 Build 0)  -->
<svg version="1.1" id="Layer_1" xmlns="http://www.w3.org/2000/svg" xmlns:xlink="http://www.w3.org/1999/xlink" x="0px" y="0px"
	 viewBox="0 0 451.277 451.277" style="enable-background:new 0 0 451.277 451.277;" xml:space="preserve">
<circle style="fill:#EA8953;" cx="225.638" cy="225.638" r="225.638"/>
<path style="opacity:0.1;enable-background:new    ;" d="M447.808,264.974L317.055,134.222c-50.489-50.489-132.346-50.489-182.834,0
	c-50.488,50.488-50.489,132.345,0,182.834l130.753,130.753C358.057,431.435,431.435,358.056,447.808,264.974z"/>
<circle style="fill:#64798A;" cx="225.638" cy="225.638" r="129.28"/>
<circle style="fill:#FFFFFF;" cx="225.638" cy="225.638" r="105.533"/>
<path style="fill:#E1E6E9;" d="M125.276,228.223c0-56.856,46.091-102.947,102.946-102.947c56.422,0,102.219,45.397,102.914,101.654
	c0.005-0.432,0.033-0.858,0.033-1.292c0-58.283-47.248-105.531-105.531-105.531s-105.531,47.248-105.531,105.531
	c0,58.284,47.248,105.531,105.531,105.531c0.433,0,0.859-0.027,1.292-0.032C170.672,330.441,125.276,284.645,125.276,228.223z"/>
<path style="fill:#E56353;" d="M279.376,280.911c-0.601,0-1.203-0.23-1.662-0.689l-68.456-68.457c-0.918-0.918-0.918-2.406,0-3.324
	c0.918-0.918,2.406-0.918,3.324,0l68.457,68.457c0.918,0.918,0.918,2.406,0,3.324C280.579,280.681,279.978,280.911,279.376,280.911z
	"/>
<path style="fill:#64798A;" d="M229.164,215.577v-55.465c0-1.947-1.58-3.526-3.526-3.526c-1.947,0-3.526,1.579-3.526,3.526v55.465
	c-2.653,0.933-4.813,2.864-6.046,5.361h-42.339c-2.598,0-4.701,2.103-4.701,4.701c0,2.599,2.103,4.701,4.701,4.701h42.339
	c1.748,3.542,5.362,6.005,9.572,6.005c5.904,0,10.706-4.802,10.706-10.707C236.344,220.977,233.331,217.043,229.164,215.577z"/>
<circle style="fill:#FFFFFF;" cx="225.638" cy="225.638" r="6.006"/>
<g>
	<circle style="fill:#3A556A;" cx="225.638" cy="136.243" r="5.279"/>
	<circle style="fill:#3A556A;" cx="225.638" cy="315.034" r="5.279"/>
	<circle style="fill:#3A556A;" cx="315.034" cy="225.638" r="5.279"/>
	<circle style="fill:#3A556A;" cx="136.243" cy="225.638" r="5.279"/>
</g>
<g>
</g>
<g>
</g>
<g>
</g>
<g>
</g>
<g>
</g>
<g>
</g>
<g>
</g>
<g>
</g>
<g>
</g>
<g>
</g>
<g>
</g>
<g>
</g>
<g>
</g>
<g>
</g>
<g>
</g>
</svg>
