<?xml version="1.0" encoding="iso-8859-1"?>
<!-- Generator: Adobe Illustrator 19.0.0, SVG Export Plug-In . SVG Version: 6.00 Build 0)  -->
<svg version="1.1" id="Layer_1" xmlns="http://www.w3.org/2000/svg" xmlns:xlink="http://www.w3.org/1999/xlink" x="0px" y="0px"
	 viewBox="0 0 451.516 451.516" style="enable-background:new 0 0 451.516 451.516;" xml:space="preserve">
<ellipse style="fill:#E05B49;" cx="225.639" cy="225.758" rx="225.639" ry="225.639"/>
<path style="opacity:0.1;enable-background:new    ;" d="M352.419,111.245c-2.022-2.304-4.936-3.761-8.227-3.761h-94.071
	l-10.437-10.437c-0.329-0.376-0.846-0.612-1.41-0.612h-24.869c-1.034,0-1.88,0.847-1.88,1.928v9.12H107.533
	c-6.065,0-10.954,4.937-10.954,11.048c0,3.713,2.403,3.125,5.176,5.099l-1.008,3.352l10.217,10.307v132.056h-3.432
	c-6.065,0-10.954,4.937-10.954,11.048c0,3.338,1.457,6.3,3.761,8.274l0.235,0.235l159.84,159.84
	C368.638,432.11,451.516,338.595,451.516,225.72c0-5.382-0.256-10.702-0.626-15.99l-98.236-98.203L352.419,111.245z"/>
<path style="fill:#3A556A;" d="M255.282,355.084c-2.69-0.005-5.258-1.573-6.428-4.211l-23.351-57.428l-23.586,57.331
	c-1.61,3.583-5.796,5.174-9.332,3.554c-3.55-1.625-5.125-5.84-3.521-9.419l30.049-71.739c1.144-2.556,3.667-4.191,6.44-4.185
	c2.773,0.006,5.29,1.652,6.424,4.212l29.754,71.862c1.59,3.586-0.002,7.795-3.559,9.405
	C257.234,354.889,256.251,355.086,255.282,355.084z"/>
<g>
	<path style="fill:#64798A;" d="M107.498,129.352l236.682,0.486c6.043,0.012,10.952-4.923,10.965-11.023
		c0.013-6.1-4.876-11.054-10.919-11.067l-236.682-0.486c-6.043-0.012-10.952,4.922-10.965,11.022
		C96.567,124.384,101.455,129.339,107.498,129.352z"/>
	<path style="fill:#64798A;" d="M343.893,269.614l-236.682-0.486c-6.043-0.012-10.952,4.923-10.965,11.022
		c-0.013,6.1,4.876,11.055,10.919,11.068l236.682,0.486c6.043,0.012,10.952-4.923,10.965-11.022
		C354.825,274.582,349.936,269.626,343.893,269.614z"/>
</g>
<rect x="110.811" y="129.592" transform="matrix(-1 -0.002 0.002 -1 450.9841 399.4227)" style="fill:#EBF0F3;" width="229.771" height="139.776"/>
<g>
	
		<rect x="110.947" y="129.593" transform="matrix(-1 -0.002 0.002 -1 451.3901 267.3738)" style="fill:#E1E6E9;" width="229.771" height="7.726"/>
	
		<rect x="110.676" y="261.647" transform="matrix(-1 -0.002 0.002 -1 450.578 531.4819)" style="fill:#E1E6E9;" width="229.771" height="7.726"/>
</g>
<path style="fill:#3A556A;" d="M238.341,96.486l-24.868-0.051c-1.051-0.002-1.905,0.856-1.908,1.918l-0.019,9.123l28.676,0.059
	l0.019-9.123C240.244,97.35,239.392,96.488,238.341,96.486z"/>
<path style="fill:#E56353;" d="M304.401,175.967c-1.291-1.458-3.514-1.601-4.976-0.306l-43.701,38.679l-21.522-6.158
	c-1.169-0.33-2.428-0.039-3.329,0.772l-31.491,28.412l-19.35-12.876c-1.067-0.717-2.458-0.78-3.601-0.18l-28.49,15.05
	c-1.722,0.906-2.379,3.044-1.469,4.765c0.906,1.717,3.027,2.39,4.765,1.468l26.634-14.067l19.888,13.228
	c0.719,0.477,1.564,0.661,2.375,0.564c0.703-0.085,1.383-0.38,1.938-0.882l32.07-28.935l21.502,6.151
	c1.158,0.322,2.402,0.048,3.304-0.75l45.147-39.959C305.553,179.652,305.691,177.425,304.401,175.967z"/>
<path style="fill:#44C4A1;" d="M295.507,143.889c-1.412-1.346-3.643-1.289-4.985,0.117l-43.327,45.459l-17.26-13.106
	c-0.759-0.583-1.754-0.893-2.68-0.67c-0.953,0.148-1.801,0.68-2.347,1.468l-27.018,38.91l-18.408-11.353
	c-1.514-0.932-3.479-0.592-4.594,0.786l-28.044,34.738c-1.222,1.517-0.986,3.736,0.525,4.959c0.774,0.623,1.729,0.869,2.64,0.759
	c0.88-0.106,1.72-0.541,2.319-1.284l26.092-32.324l18.609,11.476c1.589,0.978,3.673,0.551,4.749-0.99l26.825-38.632l16.843,12.786
	c1.43,1.08,3.446,0.92,4.681-0.376l45.498-47.737C296.97,147.462,296.913,145.231,295.507,143.889z"/>
<path style="fill:#E1E6E9;" d="M308.805,251.81l-168.783-0.347l0.211-102.847c0.003-1.299,1.056-2.349,2.356-2.346
	c1.299,0.003,2.348,1.056,2.345,2.355l-0.201,98.147l164.082,0.337c1.299,0.002,2.348,1.056,2.346,2.355
	C311.158,250.764,310.105,251.813,308.805,251.81z"/>
<g>
</g>
<g>
</g>
<g>
</g>
<g>
</g>
<g>
</g>
<g>
</g>
<g>
</g>
<g>
</g>
<g>
</g>
<g>
</g>
<g>
</g>
<g>
</g>
<g>
</g>
<g>
</g>
<g>
</g>
</svg>
