<?xml version="1.0" encoding="iso-8859-1"?>
<!-- Generator: Adobe Illustrator 19.0.0, SVG Export Plug-In . SVG Version: 6.00 Build 0)  -->
<svg version="1.1" id="Layer_1" xmlns="http://www.w3.org/2000/svg" xmlns:xlink="http://www.w3.org/1999/xlink" x="0px" y="0px"
	 viewBox="0 0 451.287 451.287" style="enable-background:new 0 0 451.287 451.287;" xml:space="preserve">
<circle style="fill:#EFC84A;" cx="225.642" cy="225.638" r="225.638"/>
<path style="opacity:0.1;enable-background:new    ;" d="M304.02,96.341v13.117l14.245,14.245l-22.143,22.143l9.261,9.261
	l136.169,136.169c6.309-20.776,9.731-42.809,9.731-65.647c0-12.164-0.991-24.093-2.845-35.735l-93.552-93.553H304.02z"/>
<path style="opacity:0.1;enable-background:new    ;" d="M283.711,158.962c-15.561-13.586-35.917-21.814-58.107-21.814
	c-11.142,0-21.861,2.069-31.686,5.876l-46.683-46.683H96.321v50.914l46.683,46.682c-3.808,9.826-5.877,20.498-5.877,31.686
	c0,22.284,8.274,42.734,21.955,58.295l0.141,0.141c2.492,2.868,5.218,5.594,8.133,8.133l142.728,142.691
	c56.665-22.894,101.883-68.104,124.785-124.765L292.361,167.612C289.682,164.509,286.767,161.595,283.711,158.962z"/>
<path style="opacity:0.1;enable-background:new    ;" d="M123.729,318.286l-14.292-14.292H96.321v50.914l93.527,93.527
	c11.656,1.857,23.599,2.852,35.778,2.852c22.828,0,44.851-3.42,65.619-9.724l-145.42-145.42L123.729,318.286z"/>
<path style="fill:#EBF0F3;" d="M225.626,144.184c-44.982,0-81.446,36.464-81.446,81.445s36.464,81.446,81.446,81.446
	c44.981,0,81.445-36.464,81.445-81.446S270.607,144.184,225.626,144.184z"/>
<g>
	<path style="fill:#F6C358;" d="M225.579,260.595l0.047,0.031l0,0v-0.042l0.021,0.028l0.025-0.017h0l0.008-0.011v0.006
		l17.606-11.765l0.001,0v-8.861c-1.332,0.917-2.61,1.911-3.81,2.995c-7.726,6.984-15.303,5.788-15.303,5.788
		c-4.622,0.121-11.205-4.613-14.012-6.818c-0.714-0.561-1.447-1.097-2.2-1.605v8.502l0.001,0L225.579,260.595z"/>
	<polygon style="fill:#F6C358;" points="225.625,260.628 225.626,260.629 225.626,260.627 225.626,260.627 219.929,268.386 
		219.929,268.386 	"/>
</g>
<path style="fill:#64798A;" d="M206.91,183.962h10.96c0.999,0,1.991-0.151,2.943-0.456c1.985-0.637,5.141-1.81,7.531-2.718
	c2.131-0.81,4.478-0.839,6.629-0.084l11.536,4.05c7.761,2.851,8.553,10.137,8.553,10.137v20.592c0,0,1.018-6.874,4.538-12.519
	c0.855-1.371,1.322-2.948,1.322-4.563v-17.765c0,0-1.109-8.712-9.662-10.771c0,0,3.485-7.419-5.544-9.174h-33.263l0,0
	c-12.16,0-22.018,9.857-22.018,22.018v13.052c0,2.828,0.947,5.58,2.718,7.785c1.393,1.735,2.84,4.463,3.064,8.41v-17.301
	C198.357,185.071,206.91,183.962,206.91,183.962z"/>
<path style="fill:#FCD462;" d="M224.176,248.747c0,0,7.577,1.196,15.303-5.788c1.2-1.085,2.478-2.078,3.81-2.995
	c0.131-0.091,0.26-0.184,0.392-0.273c3.421-2.298,9.991-8.668,11.383-24.208v-20.592c0,0-0.792-7.286-8.553-10.137l-11.536-4.05
	c-2.151-0.755-4.498-0.726-6.629,0.084c-2.39,0.908-5.546,2.081-7.531,2.718c-0.952,0.305-1.944,0.456-2.943,0.456h-10.96
	c0,0-8.553,1.109-10.692,10.692v17.301v4.004c0,0,0.372,16.829,11.515,24.205c0.078,0.052,0.153,0.108,0.23,0.16
	c0.753,0.508,1.486,1.045,2.2,1.605C212.971,244.134,219.554,248.868,224.176,248.747z"/>
<g>
	<polygon style="fill:#D5D6DB;" points="231.657,268.842 228.592,273.243 231.422,291.08 238.515,278.183 	"/>
	<polygon style="fill:#D5D6DB;" points="219.872,291.158 222.714,273.243 219.623,268.803 212.736,278.183 	"/>
	<polygon style="fill:#D5D6DB;" points="219.929,268.386 219.689,268.713 225.626,260.658 225.626,260.629 225.625,260.628 	"/>
</g>
<g>
	<polygon style="fill:#E56353;" points="231.422,291.08 228.592,273.243 231.657,268.842 231.657,268.842 225.626,260.627 
		225.626,260.629 225.626,260.658 219.689,268.713 219.623,268.802 219.622,268.803 219.623,268.803 222.714,273.243 
		219.872,291.158 219.872,291.159 225.626,301.62 231.422,291.081 	"/>
	<polygon style="fill:#E56353;" points="225.661,301.684 226.211,301.135 225.644,301.653 	"/>
	<polygon style="fill:#E56353;" points="225.607,301.653 225.041,301.135 225.591,301.684 	"/>
	<polygon style="fill:#E56353;" points="225.6,301.694 225.626,301.72 225.652,301.694 225.626,301.67 225.626,301.67 
		225.625,301.67 	"/>
	<polygon style="fill:#E56353;" points="225.68,260.584 225.672,260.595 225.68,260.59 	"/>
	<polygon style="fill:#E56353;" points="225.626,260.584 225.626,260.626 225.647,260.612 	"/>
</g>
<g>
	<polygon style="fill:#E1E6E9;" points="225.68,260.59 225.672,260.595 225.672,260.595 225.647,260.612 225.626,260.626 
		225.626,260.626 225.626,260.626 225.626,260.627 225.626,260.627 231.657,268.842 238.517,278.183 252.79,252.231 
		243.288,248.825 243.287,248.824 	"/>
	<polygon style="fill:#E1E6E9;" points="219.622,268.803 219.623,268.802 219.929,268.386 225.626,260.627 225.626,260.626 
		225.626,260.626 225.579,260.595 207.965,248.824 207.963,248.825 198.461,252.231 212.735,278.183 	"/>
</g>
<g>
	<path style="fill:#3A556A;" d="M275.586,293.859c8.768-4.457,12.033-14.321,16.483-22.63c-1.592-3.582-4.565-6.439-8.35-7.808
		l-30.93-11.19l-26.58,48.903l-0.55,0.55l0.019,0.036h19.543C255.323,299.336,266.448,298.504,275.586,293.859z"/>
	
		<rect x="225.658" y="301.679" transform="matrix(-0.7071 0.7071 -0.7071 -0.7071 598.5887 355.4358)" style="fill:#3A556A;" width="0.046" height="0.02"/>
</g>
<g>
	<polygon style="fill:#2F4859;" points="231.422,291.081 225.626,301.62 225.626,301.621 225.644,301.653 226.211,301.135 
		254.216,275.516 250.731,268.863 261.005,268.705 252.79,252.231 238.517,278.183 	"/>
	<polygon style="fill:#2F4859;" points="225.6,301.694 225.625,301.67 225.626,301.67 225.607,301.653 225.591,301.684 	"/>
</g>
<path style="fill:#3A556A;" d="M225.041,301.135l-26.58-48.903l-30.929,11.19c-4.432,1.604-7.664,5.282-8.945,9.749
	c7.964,11.147,16.183,21.132,27.42,28.55h39.62L225.041,301.135z"/>
<polygon style="fill:#2F4859;" points="225.661,301.684 225.644,301.653 225.626,301.621 225.626,301.62 219.872,291.159 
	212.735,278.183 198.461,252.231 190.246,268.705 200.52,268.863 197.035,275.516 225.041,301.135 225.607,301.653 225.626,301.67 
	225.626,301.67 225.652,301.694 225.68,301.72 "/>
<g>
	<polygon style="fill:#2D93BA;" points="304,96.346 304,109.453 332.534,109.453 296.136,145.847 305.404,155.114 341.802,118.72 
		341.802,147.251 354.909,147.251 354.909,96.346 	"/>
	<polygon style="fill:#2D93BA;" points="147.252,96.346 147.252,109.453 118.718,109.453 155.115,145.847 145.848,155.114 
		109.45,118.72 109.45,147.251 96.343,147.251 96.343,96.346 	"/>
	<polygon style="fill:#2D93BA;" points="304,354.912 304,341.805 332.534,341.805 296.136,305.411 305.404,296.144 341.802,332.539 
		341.802,304.008 354.909,304.008 354.909,354.912 	"/>
	<polygon style="fill:#2D93BA;" points="147.252,354.912 147.252,341.805 118.718,341.805 155.115,305.411 145.848,296.144 
		109.45,332.539 109.45,304.008 96.343,304.008 96.343,354.912 	"/>
	<path style="fill:#2D93BA;" d="M225.626,314.127c-48.798,0-88.496-39.698-88.496-88.496s39.698-88.501,88.496-88.501
		s88.496,39.703,88.496,88.501S274.424,314.127,225.626,314.127z M225.626,151.234c-41.021,0-74.393,33.377-74.393,74.397
		s33.372,74.393,74.393,74.393s74.393-33.372,74.393-74.393S266.647,151.234,225.626,151.234z"/>
</g>
<g>
</g>
<g>
</g>
<g>
</g>
<g>
</g>
<g>
</g>
<g>
</g>
<g>
</g>
<g>
</g>
<g>
</g>
<g>
</g>
<g>
</g>
<g>
</g>
<g>
</g>
<g>
</g>
<g>
</g>
</svg>
