<?xml version="1.0" encoding="iso-8859-1"?>
<!-- Generator: Adobe Illustrator 19.0.0, SVG Export Plug-In . SVG Version: 6.00 Build 0)  -->
<svg version="1.1" id="Layer_1" xmlns="http://www.w3.org/2000/svg" xmlns:xlink="http://www.w3.org/1999/xlink" x="0px" y="0px"
	 viewBox="0 0 451.277 451.277" style="enable-background:new 0 0 451.277 451.277;" xml:space="preserve">
<circle style="fill:#EA8953;" cx="225.638" cy="225.638" r="225.638"/>
<path style="opacity:0.1;enable-background:new    ;" d="M247.197,104.861l-0.001-0.001c-5.657-5.268-13.212-8.52-21.536-8.52
	c-17.488,0-31.733,14.245-31.733,31.733c0,14.667,10.014,27.079,23.6,30.652v3.949c-49.41,4.09-88.195,45.46-88.195,95.951
	c0,25.697,10.132,48.985,26.545,66.252l-0.047,0.036l0.879,0.879c0.572,0.587,1.15,1.164,1.736,1.737L276.408,445.49
	c76.749-17.655,138.508-74.415,163.207-148.211l-190.8-190.801C248.295,105.92,247.756,105.381,247.197,104.861z"/>
<path style="fill:#EBF0F3;" d="M225.637,159.792c-17.488,0-31.716-14.229-31.716-31.716c0-17.492,14.229-31.721,31.716-31.721
	c17.49,0,31.719,14.229,31.719,31.721C257.356,145.564,243.127,159.792,225.637,159.792z M225.637,100.633
	c-15.129,0-27.439,12.311-27.439,27.443c0,15.131,12.31,27.439,27.439,27.439c15.132,0,27.441-12.307,27.441-27.439
	C253.078,112.944,240.769,100.633,225.637,100.633z"/>
<rect x="217.498" y="139.571" style="fill:#2F4859;" width="16.23" height="26.296"/>
<circle style="fill:#3A556A;" cx="225.638" cy="258.611" r="96.317"/>
<circle style="fill:#FFFFFF;" cx="225.638" cy="258.611" r="78.152"/>
<g>
	<rect x="224.568" y="186.112" style="fill:#64798A;" width="2.14" height="6.052"/>
	<rect x="224.568" y="325.018" style="fill:#64798A;" width="2.14" height="6.052"/>
	<rect x="292.055" y="257.536" style="fill:#64798A;" width="6.052" height="2.14"/>
	<rect x="153.165" y="257.536" style="fill:#64798A;" width="6.052" height="2.14"/>
	
		<rect x="259.266" y="315.709" transform="matrix(-0.866 0.5 -0.5 -0.866 645.1677 464.5818)" style="fill:#64798A;" width="2.14" height="6.052"/>
	
		<rect x="189.844" y="195.426" transform="matrix(-0.866 0.5 -0.5 -0.866 455.4805 274.847)" style="fill:#64798A;" width="2.14" height="6.052"/>
	
		<rect x="162.463" y="292.253" transform="matrix(-0.866 0.5 -0.5 -0.866 455.4767 464.5895)" style="fill:#64798A;" width="6.052" height="2.14"/>
	
		<rect x="282.779" y="222.81" transform="matrix(-0.8661 0.4999 -0.4999 -0.8661 645.2541 274.8968)" style="fill:#64798A;" width="6.052" height="2.14"/>
	
		<rect x="257.318" y="197.401" transform="matrix(-0.5 0.866 -0.866 -0.5 562.4033 72.2568)" style="fill:#64798A;" width="6.052" height="2.14"/>
	
		<rect x="187.888" y="317.672" transform="matrix(-0.4998 0.8662 -0.8662 -0.4998 562.4081 312.682)" style="fill:#64798A;" width="6.052" height="2.14"/>
	
		<rect x="284.72" y="290.291" transform="matrix(-0.5 0.866 -0.866 -0.5 682.7094 192.4923)" style="fill:#64798A;" width="2.14" height="6.052"/>
	
		<rect x="164.431" y="220.886" transform="matrix(-0.5 0.866 -0.866 -0.5 442.1669 192.5531)" style="fill:#64798A;" width="2.14" height="6.052"/>
</g>
<path style="fill:#E56353;" d="M225.637,274.464c-1.182,0-2.139-0.957-2.139-2.139v-69.161c0-1.182,0.957-2.139,2.139-2.139
	c1.182,0,2.139,0.957,2.139,2.139v69.161C227.777,273.507,226.82,274.464,225.637,274.464z"/>
<circle style="fill:#64798A;" cx="225.638" cy="258.611" r="6.021"/>
<path style="fill:#3A556A;" d="M241.353,126.802h-31.429c-1.287,0-2.329,1.043-2.329,2.329v14.796c0,1.287,1.042,2.329,2.329,2.329
	h31.429c1.287,0,2.329-1.042,2.329-2.329v-14.796C243.683,127.845,242.64,126.802,241.353,126.802z"/>
<g>
</g>
<g>
</g>
<g>
</g>
<g>
</g>
<g>
</g>
<g>
</g>
<g>
</g>
<g>
</g>
<g>
</g>
<g>
</g>
<g>
</g>
<g>
</g>
<g>
</g>
<g>
</g>
<g>
</g>
</svg>
