<?xml version="1.0" encoding="iso-8859-1"?>
<!-- Generator: Adobe Illustrator 19.0.0, SVG Export Plug-In . SVG Version: 6.00 Build 0)  -->
<svg version="1.1" id="Layer_1" xmlns="http://www.w3.org/2000/svg" xmlns:xlink="http://www.w3.org/1999/xlink" x="0px" y="0px"
	 viewBox="0 0 451.277 451.277" style="enable-background:new 0 0 451.277 451.277;" xml:space="preserve">
<circle style="fill:#334D5C;" cx="225.638" cy="225.638" r="225.638"/>
<path style="opacity:0.1;enable-background:new    ;" d="M261.263,131.971l-35.621-35.621c0,0-31.028,53.312-96.61,54.252v108.363
	c0,0,0.045,31.196,29.776,59.931l-0.002,0.001l124.837,124.836c81.079-21.509,144.201-87.011,162.329-169.412l-123.72-123.72
	C296.764,150.238,276.52,141.953,261.263,131.971z"/>
<path style="fill:#FCD462;" d="M225.638,96.355c0,0-31.029,53.322-96.592,54.229v108.372c0,0,0,68.469,96.592,95.965
	c96.592-27.496,96.592-95.965,96.592-95.965V150.585C256.668,149.678,225.638,96.355,225.638,96.355z"/>
<g>
	<path style="fill:#DC8744;" d="M225.639,340.223l-1.405-0.441c-78.768-24.686-81.022-78.653-81.082-80.935v-95.002l4.003-0.606
		c35.81-5.39,60.592-24.654,75.077-39.869l3.406-3.576l3.406,3.576c14.484,15.215,39.267,34.479,75.077,39.869l4.004,0.606v95.112
		c-0.064,2.41-2.47,56.185-81.082,80.825L225.639,340.223z M152.554,171.875v86.853c0.05,1.878,2.047,48.766,73.084,71.638
		c70.908-22.827,73.029-69.55,73.084-71.542v-86.949c-33.67-6.088-57.829-23.529-73.084-38.555
		C210.383,148.346,186.225,165.787,152.554,171.875z"/>
	<path style="fill:#DC8744;" d="M222.765,291.624v-9.544c-11.949-1.224-22.674-5.969-32.165-14.258l9.544-11.374
		c7.32,6.363,14.853,10.161,22.621,11.374v-25.366c-9.853-2.351-17.067-5.437-21.642-9.278c-4.575-3.831-6.863-9.523-6.863-17.067
		c0-7.533,2.628-13.704,7.906-18.492c5.278-4.799,12.14-7.417,20.599-7.852v-6.533h8.363v6.671c9.587,0.692,18.652,3.969,27.196,9.8
		l-8.502,12.034c-5.756-4.096-11.981-6.629-18.694-7.586v24.579h0.393c10.023,2.352,17.386,5.544,22.089,9.544
		c4.713,4.011,7.065,9.831,7.065,17.46c0,7.629-2.703,13.832-8.108,18.631c-5.405,4.788-12.545,7.406-21.44,7.842v9.417H222.765z
		 M213.54,207.226c-2.224,1.958-3.33,4.405-3.33,7.32c0,2.926,0.873,5.224,2.618,6.927c1.734,1.703,5.054,3.341,9.938,4.905v-22.621
		C218.84,204.108,215.764,205.268,213.54,207.226z M241.067,264.555c2.437-2,3.66-4.533,3.66-7.586c0-3.043-0.958-5.469-2.873-7.257
		c-1.926-1.777-5.501-3.458-10.725-5.033v23.536C235.31,267.779,238.619,266.566,241.067,264.555z"/>
</g>
<g>
</g>
<g>
</g>
<g>
</g>
<g>
</g>
<g>
</g>
<g>
</g>
<g>
</g>
<g>
</g>
<g>
</g>
<g>
</g>
<g>
</g>
<g>
</g>
<g>
</g>
<g>
</g>
<g>
</g>
</svg>
