<?xml version="1.0" encoding="iso-8859-1"?>
<!-- Generator: Adobe Illustrator 19.0.0, SVG Export Plug-In . SVG Version: 6.00 Build 0)  -->
<svg version="1.1" id="Layer_1" xmlns="http://www.w3.org/2000/svg" xmlns:xlink="http://www.w3.org/1999/xlink" x="0px" y="0px"
	 viewBox="0 0 451.277 451.277" style="enable-background:new 0 0 451.277 451.277;" xml:space="preserve">
<circle style="fill:#EFC84A;" cx="225.638" cy="225.638" r="225.638"/>
<path style="opacity:0.1;enable-background:new    ;" d="M303.631,98.38c-1.504-1.269-3.432-2.022-5.547-2.022H148.727
	c-4.795,0-8.697,3.902-8.697,8.697v84.998h-33.614c-2.727,0-4.983,2.21-4.983,4.983v61.445c0,1.457,0.658,2.774,1.692,3.667
	l36.904,36.904v49.128c0,2.351,0.893,4.466,2.398,6.018l98.523,98.524c111.009-7.447,199.984-95.127,209.452-205.571L304.807,99.555
	L303.631,98.38z"/>
<path style="fill:#EBF0F3;" d="M298.103,96.355H148.732c-4.817,0-8.723,3.905-8.723,8.723v241.121c0,4.817,3.906,8.723,8.723,8.723
	h149.371c4.818,0,8.723-3.905,8.723-8.723V105.078C306.826,100.261,302.921,96.355,298.103,96.355z"/>
<rect x="154.112" y="117.002" style="fill:#64798A;" width="138.598" height="193.961"/>
<rect x="154.112" y="304.077" style="fill:#3A556A;" width="138.598" height="6.861"/>
<g>
	<path style="fill:#64798A;" d="M223.417,344.955c-6.873,0-12.465-5.592-12.465-12.464c0-6.877,5.592-12.469,12.465-12.469
		c6.875,0,12.467,5.592,12.467,12.469C235.884,339.364,230.292,344.955,223.417,344.955z M223.417,324.723
		c-4.281,0-7.764,3.485-7.764,7.768c0,4.279,3.482,7.763,7.764,7.763c4.281,0,7.765-3.485,7.765-7.763
		C231.182,328.207,227.698,324.723,223.417,324.723z"/>
	<path style="fill:#64798A;" d="M234.14,108.738h-21.443c-1.299,0-2.351-1.051-2.351-2.351c0-1.299,1.052-2.351,2.351-2.351h21.443
		c1.299,0,2.351,1.052,2.351,2.351C236.49,107.687,235.438,108.738,234.14,108.738z"/>
	<circle style="fill:#64798A;" cx="198.815" cy="106.388" r="2.35"/>
</g>
<path style="fill:#44C4A1;" d="M344.858,142.767h-96.815c-2.742,0-4.964,2.223-4.964,4.964v61.452c0,2.742,2.223,4.964,4.964,4.964
	h7.159v16.355c0,3.909,4.726,5.866,7.489,3.102l19.457-19.457h62.71c2.742,0,4.964-2.223,4.964-4.964v-61.452
	C349.823,144.989,347.601,142.767,344.858,142.767z"/>
<path style="fill:#FCD462;" d="M106.418,190.05h96.815c2.742,0,4.964,2.223,4.964,4.965v61.452c0,2.742-2.223,4.964-4.964,4.964
	h-7.159v16.355c0,3.909-4.726,5.866-7.489,3.102l-19.457-19.457h-62.71c-2.742,0-4.964-2.223-4.964-4.964v-61.452
	C101.454,192.273,103.676,190.05,106.418,190.05z"/>
<g>
	<rect x="115.42" y="205.568" style="fill:#FFFFFF;" width="78.807" height="4.7"/>
	<rect x="115.42" y="223.288" style="fill:#FFFFFF;" width="78.807" height="4.7"/>
	<rect x="115.42" y="240.998" style="fill:#FFFFFF;" width="78.807" height="4.7"/>
	<rect x="257.024" y="156.882" style="fill:#FFFFFF;" width="78.807" height="4.7"/>
	<rect x="257.024" y="174.592" style="fill:#FFFFFF;" width="78.807" height="4.7"/>
	<rect x="257.024" y="192.302" style="fill:#FFFFFF;" width="78.807" height="4.7"/>
</g>
<g>
</g>
<g>
</g>
<g>
</g>
<g>
</g>
<g>
</g>
<g>
</g>
<g>
</g>
<g>
</g>
<g>
</g>
<g>
</g>
<g>
</g>
<g>
</g>
<g>
</g>
<g>
</g>
<g>
</g>
</svg>
