<?xml version="1.0" encoding="iso-8859-1"?>
<!-- Generator: Adobe Illustrator 19.0.0, SVG Export Plug-In . SVG Version: 6.00 Build 0)  -->
<svg version="1.1" id="Layer_1" xmlns="http://www.w3.org/2000/svg" xmlns:xlink="http://www.w3.org/1999/xlink" x="0px" y="0px"
	 viewBox="0 0 451.277 451.277" style="enable-background:new 0 0 451.277 451.277;" xml:space="preserve">
<circle style="fill:#E05B49;" cx="225.638" cy="225.638" r="225.638"/>
<path style="opacity:0.1;enable-background:new    ;" d="M446.29,272.945L302.832,129.487l-3.62-3.62l-0.893-0.846v-0.047
	c-19.04-17.771-44.614-28.631-72.681-28.631c-58.906,0-106.623,47.764-106.623,106.623c0,30.511,12.787,58.013,33.285,77.382
	c-2.351,2.069-4.607,4.184-6.77,6.441c-11.518,12.035-20.356,26.562-25.575,42.781c-2.398,7.521-0.047,14.903,4.842,19.745
	l0.329,0.329L226.75,451.268C334.651,450.745,424.619,374.502,446.29,272.945z"/>
<path style="fill:#3A556A;" d="M305.85,286.717c-20.855,19.987-49.113,32.308-80.211,32.308c-31.055,0-59.276-12.286-80.123-32.223
	c-11.492,12.01-20.354,26.558-25.556,42.764c-4.699,14.643,8.685,28.765,23.495,24.622c55.858-15.628,110.574-16.147,164.084-0.722
	c14.892,4.293,28.574-9.817,23.747-24.544C326.046,312.933,317.231,298.585,305.85,286.717z"/>
<circle style="fill:#EBF0F3;" cx="225.638" cy="202.988" r="106.634"/>
<path style="fill:#2F4859;" d="M225.638,309.623c-28.431,0-54.242-11.148-73.359-29.285c-2.337,2.066-4.607,4.21-6.763,6.464
	c20.847,19.937,49.068,32.223,80.123,32.223c31.098,0,59.356-12.321,80.211-32.308c-2.159-2.252-4.431-4.392-6.771-6.457
	C279.955,298.443,254.11,309.623,225.638,309.623z"/>
<circle style="fill:#3A556A;" cx="225.638" cy="202.988" r="62.234"/>
<circle style="fill:#64798A;" cx="225.638" cy="202.988" r="46.633"/>
<circle style="fill:#FCD462;" cx="225.638" cy="120.084" r="9.129"/>
<circle style="fill:#27A2DB;" cx="225.638" cy="202.988" r="30.925"/>
<ellipse transform="matrix(-0.7071 -0.7071 0.7071 -0.7071 227.0626 470.8242)" style="fill:#FFFFFF;" cx="211.044" cy="188.385" rx="5.576" ry="11.034"/>
<g>
</g>
<g>
</g>
<g>
</g>
<g>
</g>
<g>
</g>
<g>
</g>
<g>
</g>
<g>
</g>
<g>
</g>
<g>
</g>
<g>
</g>
<g>
</g>
<g>
</g>
<g>
</g>
<g>
</g>
</svg>
