<?xml version="1.0" encoding="iso-8859-1"?>
<!-- Generator: Adobe Illustrator 19.0.0, SVG Export Plug-In . SVG Version: 6.00 Build 0)  -->
<svg version="1.1" id="Layer_1" xmlns="http://www.w3.org/2000/svg" xmlns:xlink="http://www.w3.org/1999/xlink" x="0px" y="0px"
	 viewBox="0 0 451.277 451.277" style="enable-background:new 0 0 451.277 451.277;" xml:space="preserve">
<circle style="fill:#EA8953;" cx="225.638" cy="225.638" r="225.638"/>
<path style="opacity:0.1;enable-background:new    ;" d="M449.54,253.36L338.221,142.041c-0.246-0.269-0.5-0.523-0.769-0.769
	l-0.001-0.001c-2.24-2.054-5.2-3.338-8.478-3.338H122.304c-6.952,0-12.588,5.636-12.588,12.588v140.875H96.355v14.001l5.896,7.947
	l137.471,137.471C348.534,444.107,436.428,360.316,449.54,253.36z"/>
<path style="fill:#3A556A;" d="M328.973,137.933H122.304c-6.952,0-12.588,5.636-12.588,12.588v140.875h231.844V150.521
	C341.561,143.569,335.925,137.933,328.973,137.933z"/>
<rect x="124.467" y="152.673" style="fill:#64798A;" width="202.363" height="124.006"/>
<polygon style="fill:#6F8593;" points="124.455,276.656 124.455,152.673 326.82,152.673 "/>
<rect x="96.353" y="291.395" style="fill:#FFFFFF;" width="258.56" height="14.003"/>
<g>
	<polygon style="fill:#E1E6E9;" points="96.355,305.396 102.252,313.344 349.025,313.344 354.921,305.396 	"/>
	<polygon style="fill:#E1E6E9;" points="250.818,296.751 200.458,296.751 198.068,291.396 253.208,291.396 	"/>
</g>
<circle style="fill:#2F4859;" cx="225.638" cy="144.691" r="2.391"/>
<g>
</g>
<g>
</g>
<g>
</g>
<g>
</g>
<g>
</g>
<g>
</g>
<g>
</g>
<g>
</g>
<g>
</g>
<g>
</g>
<g>
</g>
<g>
</g>
<g>
</g>
<g>
</g>
<g>
</g>
</svg>
