<?xml version="1.0" encoding="iso-8859-1"?>
<!-- Generator: Adobe Illustrator 19.0.0, SVG Export Plug-In . SVG Version: 6.00 Build 0)  -->
<svg version="1.1" id="Layer_1" xmlns="http://www.w3.org/2000/svg" xmlns:xlink="http://www.w3.org/1999/xlink" x="0px" y="0px"
	 viewBox="0 0 451.29 451.29" style="enable-background:new 0 0 451.29 451.29;" xml:space="preserve">
<circle style="fill:#EFC84A;" cx="225.638" cy="225.641" r="225.638"/>
<path style="opacity:0.1;enable-background:new    ;" d="M451.29,225.896l-96.369-96.369l0.024-0.024l-0.054-0.007l-33.137-33.136
	l-16.266,16.266c-15.843-10.108-34.648-15.985-54.863-15.985c-49.598,0-90.921,35.259-100.324,82.083
	c-14.151,4.795-24.352,18.053-24.352,33.52v83.493h0.846l-17.394,9.167c0,0-13.022,7.992-13.022,20.545v29.476l93.514,93.514
	c11.646,1.854,23.579,2.847,35.747,2.847C350.177,451.287,451.144,350.399,451.29,225.896z"/>
<path style="fill:#E56353;" d="M336.681,221.503c-10.005,38.186-44.801,66.442-86.081,66.442c-49.065,0-88.979-39.915-88.979-88.98
	c0-49.064,39.915-88.98,88.979-88.98c40.662,0,75.014,27.425,85.597,64.741h13.804c-10.888-44.802-51.248-78.076-99.4-78.076
	c-56.507,0-102.315,45.808-102.315,102.314c0,56.507,45.808,102.315,102.315,102.315c48.764,0,89.531-34.124,99.796-79.788
	L336.681,221.503z"/>
<path style="fill:#FFFFFF;" d="M324.137,216.4c-7.905,33.319-37.836,58.21-73.536,58.21c-41.71,0-75.645-33.936-75.645-75.645
	s33.935-75.645,75.645-75.645c35.178,0,64.739,24.174,73.161,56.757l4.123-5.351h8.312c-10.583-37.316-44.935-64.741-85.597-64.741
	c-49.065,0-88.979,39.916-88.979,88.98c0,49.065,39.915,88.98,88.979,88.98c41.28,0,76.076-28.257,86.081-66.442l-8.591,0.007
	L324.137,216.4z"/>
<path style="fill:#E56353;" d="M250.601,123.321c-41.71,0-75.645,33.935-75.645,75.645s33.935,75.645,75.645,75.645
	c35.7,0,65.631-24.891,73.536-58.21l-11.363-14.683h-0.002c-1.455,33.076-28.743,59.559-62.171,59.559
	c-34.357,0-62.31-27.953-62.31-62.311c0-34.357,27.953-62.31,62.31-62.31c32.835,0,59.756,25.549,62.082,57.802l11.079-14.38
	C315.339,147.495,285.778,123.321,250.601,123.321z"/>
<path style="fill:#FFFFFF;" d="M250.601,247.942c-27.005,0-48.976-21.971-48.976-48.976c0-27.005,21.971-48.976,48.976-48.976
	c25.555,0,46.571,19.683,48.758,44.679h13.161l0.163-0.211c-2.327-32.253-29.247-57.802-62.082-57.802
	c-34.357,0-62.31,27.953-62.31,62.31c0,34.357,27.953,62.311,62.31,62.311c33.428,0,60.716-26.483,62.171-59.559l-13.335,0.004
	C297.995,227.442,276.675,247.942,250.601,247.942z"/>
<path style="fill:#E56353;" d="M250.601,149.99c-27.005,0-48.976,21.971-48.976,48.976c0,27.005,21.971,48.976,48.976,48.976
	c26.075,0,47.394-20.499,48.837-46.22l-13.335,0.005c-1.418,18.364-16.78,32.881-35.502,32.881
	c-19.653,0-35.641-15.988-35.641-35.642c0-19.653,15.988-35.641,35.641-35.641c18.196,0,33.224,13.714,35.356,31.344h13.402
	C297.172,169.672,276.155,149.99,250.601,149.99z"/>
<path style="fill:#FFFFFF;" d="M250.601,221.272c-12.301,0-22.306-10.006-22.306-22.307c0-12.301,10.006-22.306,22.306-22.306
	c10.831,0,19.873,7.76,21.882,18.009h13.474c-2.132-17.63-17.16-31.344-35.356-31.344c-19.653,0-35.641,15.988-35.641,35.641
	c0,19.653,15.988,35.642,35.641,35.642c18.721,0,34.084-14.517,35.502-32.881l-13.385,0.005
	C271.349,212.728,261.963,221.272,250.601,221.272z"/>
<path style="fill:#E56353;" d="M250.601,176.659c-12.301,0-22.306,10.006-22.306,22.306c0,12.301,10.006,22.307,22.306,22.307
	c11.362,0,20.748-8.544,22.117-19.541l-21.364,0.007v-7.069h21.129C270.473,184.419,261.431,176.659,250.601,176.659z"/>
<path style="fill:#D15241;" d="M339.58,198.965c0,7.785-1.012,15.336-2.898,22.538l13.715-0.011
	c1.63-7.251,2.519-14.783,2.519-22.527c0-8.354-1.025-16.465-2.914-24.238h-13.804C338.384,182.438,339.58,190.562,339.58,198.965z"
	/>
<path style="fill:#EBF0F3;" d="M336.197,174.727h-8.312l-4.123,5.351c1.564,6.05,2.483,12.356,2.483,18.888
	c0,6.009-0.779,11.827-2.108,17.435l3.953,5.109l8.591-0.007c1.887-7.201,2.898-14.753,2.898-22.538
	C339.58,190.562,338.384,182.438,336.197,174.727z"/>
<path style="fill:#D15241;" d="M312.911,198.965c0,0.929-0.099,1.833-0.14,2.752h0.002l11.363,14.683
	c1.33-5.608,2.108-11.426,2.108-17.435c0-6.531-0.919-12.838-2.483-18.888l-11.079,14.38
	C312.79,195.952,312.911,197.444,312.911,198.965z"/>
<path style="fill:#EBF0F3;" d="M312.683,194.457l-0.163,0.211h-13.161c0.124,1.419,0.218,2.847,0.218,4.297
	c0,0.93-0.088,1.839-0.139,2.756l13.335-0.004c0.04-0.919,0.14-1.823,0.14-2.752C312.911,197.444,312.79,195.952,312.683,194.457z"
	/>
<path style="fill:#D15241;" d="M286.242,198.965c0,0.932-0.069,1.847-0.14,2.761l13.335-0.005c0.051-0.917,0.139-1.826,0.139-2.756
	c0-1.45-0.094-2.878-0.218-4.297h-13.402C286.128,196.081,286.242,197.508,286.242,198.965z"/>
<path style="fill:#EBF0F3;" d="M285.957,194.668h-13.474c0.273,1.392,0.425,2.827,0.425,4.297c0,0.938-0.077,1.857-0.19,2.765
	l13.385-0.005c0.07-0.914,0.14-1.829,0.14-2.761C286.242,197.508,286.128,196.081,285.957,194.668z"/>
<path style="fill:#D15241;" d="M251.354,201.738l21.364-0.007c0.113-0.908,0.19-1.827,0.19-2.765c0-1.47-0.151-2.905-0.425-4.297
	h-21.129V201.738z"/>
<path style="fill:#64798A;" d="M324.443,121.829l-73.862,73.862c-1.379,1.379-1.379,3.616,0,4.995l0,0
	c1.379,1.38,3.616,1.38,4.995,0l73.862-73.862c1.379-1.38,1.379-3.616,0-4.995C328.059,120.45,325.823,120.45,324.443,121.829z"/>
<g>
	<polygon style="fill:#3A556A;" points="321.756,96.346 288.127,129.974 291.332,154.94 324.96,121.312 	"/>
	<polygon style="fill:#3A556A;" points="354.922,129.512 321.294,163.14 296.327,159.936 329.955,126.307 	"/>
</g>
<path style="fill:#64798A;" d="M216.906,302.388v-99.832c0-1.197-0.202-2.389-0.605-3.518c-3.319-9.324-11.349-10.448-11.349-10.448
	c1.027-5.219-0.607-8.185-2.498-9.846c-1.525-1.34-3.54-2.018-5.588-2.018H162.17c-19.924,0-36.226,15.982-36.226,35.517v90.146"/>
<path style="fill:#F6C358;" d="M198.046,284.485c-2.031-2.233-3.099-5.152-3.099-8.144v-2.384c-0.289,0.359-0.551,0.767-0.847,1.113
	c-6.331,7.412-14.156,11.853-22.66,11.853c-8.518,0-16.353-4.455-22.689-11.887c-0.295-0.346-0.558-0.756-0.846-1.115v2.42
	c0,2.992-1.068,5.911-3.099,8.144c-0.931,1.025-2.134,2.116-3.639,3.168c0.146,0.162,0.438,0.487,0.954,1.103
	c1.557,1.855,4.685,5.868,8.458,12.122c6.472,2.459,13.487,3.841,20.845,3.841c7.357,0,14.372-1.382,20.843-3.841
	c3.774-6.255,6.903-10.268,8.459-12.123c0.517-0.616,0.808-0.94,0.954-1.102C200.179,286.6,198.976,285.509,198.046,284.485z"/>
<path style="fill:#FCD462;" d="M171.44,287.493c8.505,0,16.329-4.441,22.66-11.853c0.296-0.346,0.558-0.754,0.847-1.113
	c8.789-10.922,14.483-27.712,14.483-46.677c-1.01-7.672-8.078-12.374-8.078-12.374l-22.718-7.424c-2.89,2.36-6.64,3.82-9.773,4.701
	c-2.96,0.833-6.027,1.238-9.106,1.238h-12.169c-13.378,1.237-14.136,13.859-14.136,13.859c0,18.943,5.681,35.719,14.454,46.641
	c0.289,0.359,0.551,0.768,0.846,1.115C155.087,283.039,162.922,287.493,171.44,287.493z"/>
<path style="fill:#44C4A1;" d="M155.198,310.011c5.644,10.815,11.767,25.646,16.225,44.895
	c4.469-19.297,10.612-34.156,16.268-44.978c-5.211,1.266-10.639,2.007-16.267,2.007
	C165.821,311.935,160.391,311.257,155.198,310.011z"/>
<path style="fill:#31978C;" d="M149.346,300.551c1.684,2.79,3.485,6.021,5.342,9.673c5.357,1.32,10.958,2.038,16.737,2.038
	c5.805,0,11.405-0.785,16.78-2.126c1.841-3.617,3.627-6.818,5.297-9.585c-6.854,2.605-14.284,4.068-22.077,4.068
	C163.63,304.619,156.2,303.155,149.346,300.551z"/>
<path style="fill:#3A556A;" d="M139.945,288.751l-13.153,6.964l-17.371,9.197c0,0-13.065,8.006-13.065,20.548v29.453h75.066
	l0.001-0.002"/>
<path style="fill:#EBF0F3;" d="M155.622,310.011c-1.753-3.449-3.454-6.499-5.043-9.133c-3.773-6.254-6.901-10.267-8.458-12.122
	c-0.517-0.616-0.808-0.941-0.954-1.103c-0.048-0.053-1.222,1.098-1.222,1.098l-6.101,7.113c-1.234,1.438-1.18,3.552,0.125,4.929
	l14.375,15.161l-2.401-0.055c-3.274-0.074-5.101,3.68-2.982,6.128l28.462,32.883l0.001-0.004
	C167.082,335.656,161.119,320.825,155.622,310.011z"/>
<path style="fill:#3A556A;" d="M171.422,354.912h0.003h75.066v-29.453c0-12.542-13.064-20.548-13.064-20.548l-17.371-9.197
	l-13.153-6.964"/>
<path style="fill:#EBF0F3;" d="M196.905,315.899l-2.401,0.055l14.375-15.161c1.305-1.376,1.359-3.49,0.125-4.929l-6.101-7.113
	c0,0-1.173-1.151-1.221-1.098c-0.146,0.162-0.437,0.486-0.954,1.102c-1.556,1.855-4.685,5.868-8.459,12.123
	c-1.577,2.613-3.263,5.634-5.001,9.049c-5.508,10.822-11.49,25.681-15.843,44.978l-0.001,0.004l-0.001,0.002l28.465-32.885
	C202.006,319.578,200.179,315.825,196.905,315.899z"/>
<g>
</g>
<g>
</g>
<g>
</g>
<g>
</g>
<g>
</g>
<g>
</g>
<g>
</g>
<g>
</g>
<g>
</g>
<g>
</g>
<g>
</g>
<g>
</g>
<g>
</g>
<g>
</g>
<g>
</g>
</svg>
