<?xml version="1.0" encoding="iso-8859-1"?>
<!-- Generator: Adobe Illustrator 19.0.0, SVG Export Plug-In . SVG Version: 6.00 Build 0)  -->
<svg version="1.1" id="Layer_1" xmlns="http://www.w3.org/2000/svg" xmlns:xlink="http://www.w3.org/1999/xlink" x="0px" y="0px"
	 viewBox="0 0 451.296 451.296" style="enable-background:new 0 0 451.296 451.296;" xml:space="preserve">
<circle style="fill:#45B39C;" cx="225.638" cy="225.648" r="225.638"/>
<path style="opacity:0.1;enable-background:new    ;" d="M351.891,96.379H99.39c-1.645,0-3.056,1.363-3.056,3.056v23.459
	c0,0.846,0.329,1.552,0.893,2.115l12.27,12.271V266.28H99.39c-1.645,0-3.056,1.363-3.056,3.056v3.996c0,0.846,0.376,1.645,0.94,2.21
	l171.583,171.584c103.945-20.17,182.439-111.637,182.439-221.476c0-11.416-0.866-22.628-2.501-33.588l-94.788-94.788
	C353.489,96.707,352.737,96.379,351.891,96.379z"/>
<path style="fill:#64798A;" d="M229.165,311.411v-40.074h-7.052v40.074c-10.417,1.7-18.413,10.689-18.413,21.579
	c0,12.098,9.841,21.941,21.938,21.941c12.097,0,21.938-9.843,21.938-21.941C247.577,322.101,239.581,313.111,229.165,311.411z
	 M225.638,347.879c-8.209,0-14.886-6.68-14.886-14.889c0-8.209,6.678-14.884,14.886-14.884s14.886,6.675,14.886,14.884
	C240.525,341.199,233.847,347.879,225.638,347.879z"/>
<g>
	<path style="fill:#3A556A;" d="M351.871,96.365H99.406c-1.685,0-3.051,1.365-3.051,3.05v23.477c0,1.684,1.366,3.05,3.051,3.05
		h252.465c1.685,0,3.051-1.365,3.051-3.05V99.415C354.921,97.73,353.556,96.365,351.871,96.365z"/>
	<path style="fill:#3A556A;" d="M351.871,266.295H99.406c-1.685,0-3.051,1.365-3.051,3.05v3.987c0,1.685,1.366,3.05,3.051,3.05
		h252.465c1.685,0,3.051-1.365,3.051-3.05v-3.987C354.921,267.66,353.556,266.295,351.871,266.295z"/>
</g>
<rect x="109.491" y="125.941" style="fill:#EBF0F3;" width="232.294" height="140.355"/>
<rect x="126.464" y="200.56" style="fill:#F6C358;" width="15.007" height="5.304"/>
<rect x="126.464" y="158.136" style="fill:#FCD462;" width="15.007" height="42.414"/>
<rect x="148.378" y="200.56" style="fill:#3EA69B;" width="15.007" height="5.304"/>
<rect x="148.378" y="139.427" style="fill:#44C4A1;" width="15.007" height="61.128"/>
<rect x="170.291" y="200.56" style="fill:#D15241;" width="15.007" height="5.304"/>
<rect x="170.291" y="167.495" style="fill:#E56353;" width="15.007" height="33.06"/>
<rect x="192.205" y="200.56" style="fill:#2D93BA;" width="15.007" height="5.304"/>
<rect x="192.205" y="151.275" style="fill:#27A2DB;" width="15.007" height="49.275"/>
<g>
	<rect x="126.464" y="220.421" style="fill:#64798A;" width="80.737" height="4.7"/>
	<rect x="126.464" y="236.144" style="fill:#64798A;" width="80.737" height="4.7"/>
	<rect x="126.464" y="251.914" style="fill:#64798A;" width="80.737" height="4.7"/>
	<rect x="245.601" y="220.421" style="fill:#64798A;" width="80.737" height="4.7"/>
	<rect x="271.268" y="142.463" style="fill:#64798A;" width="55.071" height="4.7"/>
	<rect x="271.268" y="159.498" style="fill:#64798A;" width="55.071" height="4.7"/>
	<rect x="271.268" y="176.496" style="fill:#64798A;" width="55.071" height="4.7"/>
	<rect x="271.268" y="193.5" style="fill:#64798A;" width="55.071" height="4.7"/>
	<rect x="245.601" y="236.144" style="fill:#64798A;" width="80.737" height="4.7"/>
	<rect x="245.601" y="251.914" style="fill:#64798A;" width="80.737" height="4.7"/>
</g>
<circle style="fill:#FCD462;" cx="257.434" cy="144.803" r="5.924"/>
<circle style="fill:#44C4A1;" cx="257.434" cy="161.827" r="5.924"/>
<circle style="fill:#E56353;" cx="257.434" cy="178.841" r="5.924"/>
<circle style="fill:#27A2DB;" cx="257.434" cy="195.85" r="5.924"/>
<g>
</g>
<g>
</g>
<g>
</g>
<g>
</g>
<g>
</g>
<g>
</g>
<g>
</g>
<g>
</g>
<g>
</g>
<g>
</g>
<g>
</g>
<g>
</g>
<g>
</g>
<g>
</g>
<g>
</g>
</svg>
