<?xml version="1.0" encoding="iso-8859-1"?>
<!-- Generator: Adobe Illustrator 19.0.0, SVG Export Plug-In . SVG Version: 6.00 Build 0)  -->
<svg version="1.1" id="Layer_1" xmlns="http://www.w3.org/2000/svg" xmlns:xlink="http://www.w3.org/1999/xlink" x="0px" y="0px"
	 viewBox="0 0 451.296 451.296" style="enable-background:new 0 0 451.296 451.296;" xml:space="preserve">
<circle style="fill:#E05B49;" cx="225.638" cy="225.638" r="225.638"/>
<path style="opacity:0.1;enable-background:new    ;" d="M451.296,225.638c0-12.179-0.995-24.122-2.852-35.779l-93.526-93.526
	H96.352v258.566l93.552,93.553c11.643,1.852,23.571,2.844,35.735,2.844C350.266,451.296,451.296,350.265,451.296,225.638z"/>
<rect x="96.353" y="96.353" style="fill:#64798A;" width="258.56" height="258.56"/>
<rect x="110.459" y="110.459" style="fill:#FFFFFF;" width="230.359" height="230.359"/>
<rect x="96.353" y="96.353" style="fill:#EBF0F3;" width="258.56" height="44.892"/>
<rect x="110.438" y="110.449" style="fill:#D5D6DB;" width="140.769" height="16.686"/>
<circle style="fill:#FCD462;" cx="274.483" cy="118.784" r="8.34"/>
<circle style="fill:#44C4A1;" cx="304.845" cy="118.784" r="8.34"/>
<circle style="fill:#E56353;" cx="335.206" cy="118.784" r="8.34"/>
<path style="fill:#FCD462;" d="M161.758,227.777v-6.031c-7.55-0.773-14.327-3.772-20.325-9.009l6.031-7.187
	c4.626,4.02,9.385,6.421,14.294,7.187v-16.028c-6.226-1.486-10.784-3.436-13.675-5.863c-2.891-2.42-4.336-6.017-4.336-10.784
	c0-4.76,1.66-8.66,4.995-11.685c3.335-3.032,7.671-4.686,13.016-4.962v-4.128h5.285v4.216c6.057,0.437,11.786,2.508,17.185,6.192
	l-5.372,7.604c-3.637-2.588-7.57-4.188-11.813-4.793v15.53h0.249c6.333,1.486,10.986,3.503,13.957,6.031
	c2.979,2.534,4.464,6.212,4.464,11.033c0,4.821-1.707,8.74-5.123,11.772c-3.415,3.026-7.927,4.68-13.547,4.955v5.95H161.758z
	 M155.929,174.448c-1.405,1.237-2.104,2.783-2.104,4.626c0,1.849,0.551,3.301,1.654,4.377c1.096,1.076,3.194,2.111,6.279,3.1
	v-14.294C159.277,172.478,157.334,173.211,155.929,174.448z M173.322,210.673c1.54-1.264,2.313-2.864,2.313-4.794
	c0-1.923-0.605-3.456-1.815-4.586c-1.217-1.123-3.476-2.185-6.777-3.18v14.872C169.684,212.71,171.775,211.944,173.322,210.673z"/>
<g>
	<rect x="213.571" y="169.882" style="fill:#EBF0F3;" width="107.981" height="4.7"/>
	<rect x="213.571" y="193.48" style="fill:#EBF0F3;" width="107.981" height="4.7"/>
	<rect x="213.571" y="217.037" style="fill:#EBF0F3;" width="107.981" height="4.7"/>
	<rect x="129.741" y="240.625" style="fill:#EBF0F3;" width="191.831" height="4.7"/>
	<rect x="129.741" y="264.192" style="fill:#EBF0F3;" width="191.831" height="4.7"/>
	<rect x="129.741" y="287.744" style="fill:#EBF0F3;" width="191.831" height="4.7"/>
	<rect x="129.741" y="311.337" style="fill:#EBF0F3;" width="191.831" height="4.7"/>
</g>
<g>
</g>
<g>
</g>
<g>
</g>
<g>
</g>
<g>
</g>
<g>
</g>
<g>
</g>
<g>
</g>
<g>
</g>
<g>
</g>
<g>
</g>
<g>
</g>
<g>
</g>
<g>
</g>
<g>
</g>
</svg>
