<?xml version="1.0" encoding="iso-8859-1"?>
<!-- Generator: Adobe Illustrator 19.0.0, SVG Export Plug-In . SVG Version: 6.00 Build 0)  -->
<svg version="1.1" id="Layer_1" xmlns="http://www.w3.org/2000/svg" xmlns:xlink="http://www.w3.org/1999/xlink" x="0px" y="0px"
	 viewBox="0 0 451.315 451.315" style="enable-background:new 0 0 451.315 451.315;" xml:space="preserve">
<ellipse style="fill:#EA8953;" cx="225.639" cy="225.657" rx="225.639" ry="225.639"/>
<path style="opacity:0.1;enable-background:new    ;" d="M451.314,226.146c0.011-5.332-0.23-10.602-0.583-15.843L353.9,113.472
	l-0.027,0.027c-0.914-1.023-2.203-1.702-3.662-1.702l-248.627-0.512c-2.765,0-4.966,2.202-4.966,4.967l-0.307,148.787l-0.051,26.88
	c-0.028,1.513,0.699,2.831,1.792,3.747l-0.062,0.028l154.057,154.057C364.035,436.697,451.077,341.681,451.314,226.146z"/>
<g>
	<path style="fill:#64798A;" d="M96.292,265.063l-0.055,26.832c-0.006,2.752,2.22,4.987,4.972,4.992l248.601,0.511
		c2.752,0.006,4.987-2.22,4.993-4.971l0.055-26.833L96.292,265.063z"/>
	<path style="fill:#64798A;" d="M355.164,116.781c0.006-2.751-2.22-4.987-4.972-4.992l-248.601-0.511
		c-2.752-0.006-4.987,2.22-4.993,4.972l-0.306,148.813l258.566,0.531L355.164,116.781z"/>
</g>
<path style="fill:#EBF0F3;" d="M339.493,131.536c0.005-2.478-1.951-4.491-4.37-4.496l-218.526-0.448
	c-2.419-0.005-4.384,2-4.389,4.477l-0.275,134.026l227.285,0.467L339.493,131.536z"/>
<g>
	<ellipse style="fill:#3A556A;" cx="225.526" cy="281.225" rx="7.163" ry="7.163"/>
	
		<rect x="175.11" y="297.143" transform="matrix(-1 -0.002 0.002 -1 450.2666 627.5818)" style="fill:#3A556A;" width="100.69" height="32.835"/>
</g>
<g>
	<polygon style="fill:#2F4859;" points="175.098,329.874 175.166,297.039 275.854,297.246 	"/>
	
		<rect x="164.089" y="329.977" transform="matrix(-1 -0.002 0.002 -1 450.1763 670.2722)" style="fill:#2F4859;" width="122.686" height="9.856"/>
</g>
<rect x="223.637" y="149.759" transform="matrix(-0.0021 1 -1 -0.0021 489.4365 38.3661)" style="fill:#E1E6E9;" width="3.876" height="227.277"/>
<rect x="132.86" y="234.838" transform="matrix(-0.0021 1 -1 -0.0021 380.3315 109.5522)" style="fill:#F6C358;" width="5.284" height="19.425"/>
<rect x="114.408" y="211.037" transform="matrix(-0.0021 1 -1 -0.0021 356.5823 85.6512)" style="fill:#FCD462;" width="42.291" height="19.425"/>
<rect x="168.62" y="234.886" transform="matrix(-0.002 1 -1 -0.002 416.2076 73.8341)" style="fill:#3EA69B;" width="5.284" height="19.425"/>
<rect x="140.864" y="201.774" transform="matrix(-0.002 1 -1 -0.002 383.173 40.5783)" style="fill:#44C4A1;" width="60.949" height="19.425"/>
<rect x="204.437" y="234.946" transform="matrix(-0.0021 1 -1 -0.0021 452.1634 38.0838)" style="fill:#D15241;" width="5.284" height="19.425"/>
<rect x="170.586" y="195.756" transform="matrix(-0.0021 1 -1 -0.0021 413.0302 -1.2433)" style="fill:#E56353;" width="73.098" height="19.425"/>
<rect x="240.202" y="235.053" transform="matrix(-0.0021 1 -1 -0.0021 488.1099 2.4265)" style="fill:#2D93BA;" width="5.284" height="19.425"/>
<rect x="199.775" y="189.192" transform="matrix(-0.002 1 -1 -0.002 442.3818 -43.6674)" style="fill:#27A2DB;" width="86.41" height="19.425"/>
<path style="fill:#DC8744;" d="M294.888,247.498l0.019-9.297c-11.636-1.216-22.074-5.86-31.303-13.953l9.32-11.061
	c7.118,6.213,14.448,9.928,22.012,11.125l0.051-24.709c-9.593-2.31-16.614-5.33-21.063-9.081c-4.449-3.74-6.666-9.29-6.651-16.638
	c0.015-7.338,2.588-13.344,7.738-17.998c5.15-4.664,11.84-7.2,20.081-7.608l0.013-6.364l8.146,0.017l-0.014,6.498
	c9.337,0.693,18.161,3.903,26.472,9.6l-8.306,11.705c-5.599-4.002-11.657-6.481-18.195-7.427l-0.049,23.942l0.384,0
	c9.759,2.311,16.925,5.435,21.497,9.341c4.584,3.917,6.863,9.591,6.847,17.022c-0.015,7.431-2.66,13.468-7.935,18.132
	c-5.275,4.653-12.234,7.188-20.9,7.595l-0.019,9.173L294.888,247.498z M286.071,165.27c-2.171,1.903-3.253,4.284-3.259,7.124
	c-0.006,2.85,0.839,5.09,2.536,6.752c1.686,1.661,4.917,3.265,9.67,4.798l0.045-22.035
	C291.238,162.244,288.241,163.367,286.071,165.27z M312.769,221.168c2.377-1.943,3.574-4.408,3.58-7.383
	c0.006-2.964-0.922-5.329-2.784-7.074c-1.872-1.735-5.351-3.379-10.438-4.924l-0.047,22.926
	C307.155,224.297,310.38,223.122,312.769,221.168z"/>
<g>
</g>
<g>
</g>
<g>
</g>
<g>
</g>
<g>
</g>
<g>
</g>
<g>
</g>
<g>
</g>
<g>
</g>
<g>
</g>
<g>
</g>
<g>
</g>
<g>
</g>
<g>
</g>
<g>
</g>
</svg>
