<?xml version="1.0" encoding="iso-8859-1"?>
<!-- Generator: Adobe Illustrator 19.0.0, SVG Export Plug-In . SVG Version: 6.00 Build 0)  -->
<svg version="1.1" id="Layer_1" xmlns="http://www.w3.org/2000/svg" xmlns:xlink="http://www.w3.org/1999/xlink" x="0px" y="0px"
	 viewBox="0 0 451.319 451.319" style="enable-background:new 0 0 451.319 451.319;" xml:space="preserve">
<circle style="fill:#EFC84A;" cx="225.659" cy="225.638" r="225.638"/>
<path style="opacity:0.1;enable-background:new    ;" d="M300.079,96.37H158.103v121.855h-11.236
	c-15.279,0-27.784,12.27-27.784,27.266v64.031h0.658l-13.351,7.052c0,0-10.014,6.159-10.014,15.796v22.566l93.536,93.536
	c11.646,1.854,23.579,2.847,35.748,2.847c117.903,0,214.63-90.438,224.731-205.719l-95.448-95.448L300.079,96.37z"/>
<polygon style="fill:#FFFFFF;" points="300.087,96.378 158.105,96.378 158.105,354.944 354.943,354.944 354.943,150.159 "/>
<polygon style="fill:#D5D6DB;" points="300.087,150.159 354.943,150.159 300.087,96.378 "/>
<polygon style="fill:#EBF0F3;" points="354.943,150.159 300.087,150.159 354.943,187.438 "/>
<g>
	<rect x="183.594" y="214.712" style="fill:#D5D6DB;" width="145.859" height="7.05"/>
	<rect x="183.594" y="242.483" style="fill:#D5D6DB;" width="145.859" height="7.05"/>
	<rect x="183.594" y="270.213" style="fill:#D5D6DB;" width="145.859" height="7.05"/>
	<rect x="183.594" y="297.984" style="fill:#D5D6DB;" width="145.859" height="7.05"/>
	<rect x="183.594" y="325.734" style="fill:#D5D6DB;" width="145.859" height="7.05"/>
</g>
<rect x="183.594" y="186.061" style="fill:#F6C358;" width="18.437" height="6.513"/>
<rect x="183.594" y="133.99" style="fill:#FCD462;" width="18.437" height="52.101"/>
<rect x="210.504" y="186.061" style="fill:#3EA69B;" width="18.437" height="6.513"/>
<rect x="210.504" y="110.986" style="fill:#44C4A1;" width="18.437" height="75.085"/>
<rect x="237.435" y="186.061" style="fill:#D15241;" width="18.437" height="6.513"/>
<rect x="237.435" y="145.464" style="fill:#E56353;" width="18.437" height="40.607"/>
<rect x="264.315" y="186.061" style="fill:#2D93BA;" width="18.437" height="6.513"/>
<rect x="264.315" y="125.542" style="fill:#27A2DB;" width="18.437" height="60.529"/>
<path style="fill:#64798A;" d="M188.862,314.648v-76.591c0-0.919-0.155-1.833-0.464-2.699c-2.546-7.153-8.707-8.016-8.707-8.016
	c0.788-4.004-0.466-6.279-1.917-7.554c-1.17-1.028-2.716-1.548-4.287-1.548h-26.618c-15.286,0-27.792,12.262-27.792,27.248v69.16"/>
<path style="fill:#F6C358;" d="M174.393,300.913c-1.558-1.713-2.377-3.953-2.377-6.248v-1.829c-0.222,0.276-0.423,0.589-0.65,0.854
	c-4.857,5.686-10.86,9.094-17.385,9.094c-6.535,0-12.546-3.418-17.407-9.119c-0.227-0.266-0.428-0.58-0.649-0.855v1.856
	c0,2.295-0.819,4.535-2.377,6.248c-0.714,0.786-1.637,1.623-2.792,2.431c0.112,0.125,0.336,0.374,0.732,0.846
	c1.195,1.423,3.595,4.502,6.489,9.3c4.965,1.887,10.347,2.947,15.992,2.947c5.644,0,11.026-1.06,15.991-2.947
	c2.895-4.799,5.296-7.878,6.49-9.301c0.397-0.473,0.62-0.721,0.732-0.845C176.029,302.536,175.106,301.698,174.393,300.913z"/>
<path style="fill:#FCD462;" d="M153.981,303.221c6.525,0,12.528-3.407,17.385-9.094c0.227-0.265,0.428-0.578,0.65-0.854
	c6.743-8.379,11.111-21.261,11.111-35.81c-0.775-5.886-6.197-9.494-6.197-9.494l-17.429-5.696c-2.217,1.811-5.094,2.931-7.498,3.607
	c-2.271,0.639-4.624,0.95-6.986,0.95h-9.336c-10.264,0.949-10.845,10.633-10.845,10.633c0,14.533,4.358,27.403,11.089,35.783
	c0.221,0.275,0.423,0.59,0.649,0.855C141.435,299.803,147.446,303.221,153.981,303.221z"/>
<path style="fill:#44C4A1;" d="M141.52,320.496c4.33,8.297,9.028,19.675,12.448,34.443c3.429-14.805,8.141-26.204,12.481-34.507
	c-3.998,0.971-8.163,1.54-12.48,1.54C149.67,321.972,145.504,321.452,141.52,320.496z"/>
<path style="fill:#31978C;" d="M137.03,313.238c1.292,2.14,2.673,4.619,4.098,7.421c4.11,1.013,8.407,1.564,12.84,1.564
	c4.454,0,8.75-0.603,12.873-1.631c1.412-2.775,2.783-5.23,4.064-7.354c-5.258,1.998-10.959,3.121-16.937,3.121
	C147.989,316.36,142.289,315.237,137.03,313.238z"/>
<path style="fill:#3A556A;" d="M129.817,304.186l-10.091,5.342l-13.327,7.056c0,0-10.023,6.142-10.023,15.764v22.596h57.59l0-0.002"
	/>
<path style="fill:#EBF0F3;" d="M141.845,320.496c-1.345-2.646-2.65-4.986-3.869-7.007c-2.895-4.798-5.294-7.877-6.489-9.3
	c-0.396-0.473-0.62-0.722-0.732-0.846c-0.037-0.04-0.938,0.842-0.938,0.842l-4.681,5.457c-0.946,1.103-0.905,2.725,0.096,3.781
	l11.029,11.631l-1.842-0.042c-2.512-0.057-3.914,2.823-2.288,4.701l21.836,25.228l0.001-0.003
	C150.637,340.172,146.062,328.793,141.845,320.496z"/>
<path style="fill:#3A556A;" d="M153.967,354.944h0.002h57.59v-22.596c0-9.622-10.023-15.764-10.023-15.764l-13.327-7.056
	l-10.091-5.342"/>
<path style="fill:#EBF0F3;" d="M173.517,325.013l-1.842,0.042l11.029-11.631c1.001-1.056,1.042-2.678,0.096-3.781l-4.681-5.457
	c0,0-0.9-0.883-0.937-0.842c-0.112,0.124-0.335,0.373-0.732,0.845c-1.194,1.423-3.595,4.502-6.49,9.301
	c-1.21,2.005-2.503,4.323-3.837,6.943c-4.226,8.303-8.815,19.703-12.154,34.507l-0.001,0.003l0,0.002l21.838-25.229
	C177.431,327.837,176.029,324.957,173.517,325.013z"/>
<g>
</g>
<g>
</g>
<g>
</g>
<g>
</g>
<g>
</g>
<g>
</g>
<g>
</g>
<g>
</g>
<g>
</g>
<g>
</g>
<g>
</g>
<g>
</g>
<g>
</g>
<g>
</g>
<g>
</g>
</svg>
