<?xml version="1.0" encoding="iso-8859-1"?>
<!-- Generator: Adobe Illustrator 19.0.0, SVG Export Plug-In . SVG Version: 6.00 Build 0)  -->
<svg version="1.1" id="Layer_1" xmlns="http://www.w3.org/2000/svg" xmlns:xlink="http://www.w3.org/1999/xlink" x="0px" y="0px"
	 viewBox="0 0 451.296 451.296" style="enable-background:new 0 0 451.296 451.296;" xml:space="preserve">
<circle style="fill:#E05B49;" cx="225.648" cy="225.638" r="225.638"/>
<path style="opacity:0.1;enable-background:new    ;" d="M246.377,97.682c-1.034-0.893-2.351-1.316-3.761-1.316h-23.13
	c-13.304,0-24.211,10.672-24.211,23.694v55.757h0.564l-11.612,6.159c0,0-8.697,5.312-8.697,13.727v19.651l46.589,46.589v5.594
	l-19.134,19.181l-35.024-35.024c-0.658-0.846-1.833-1.597-3.761-1.974h-24.822c-4.513,0-8.65,1.833-11.612,4.795
	c-3.009,2.962-4.842,7.099-4.842,11.612v9.732c0,2.116,0.705,4.184,2.069,5.829c1.034,1.269,2.116,3.338,2.257,6.253v3.009
	c0,0,0.282,12.552,8.603,18.053l0.141,0.141v6.3l-7.052,2.586l-23.083,8.321c-3.714,1.364-6.394,4.56-7.052,8.462l-2.351,14.386
	c-0.282,1.598,0.235,3.103,1.269,4.184l95.572,95.573c10.569,1.517,21.362,2.344,32.351,2.344
	c101.335,0,187.064-66.797,215.571-158.761L247.082,98.434L246.377,97.682z M302.146,324.235v0.003l-0.007,0.005L302.146,324.235z
	 M302.092,354.872l0.013,0.012v0l-0.019,0.018l-0.007-0.007L302.092,354.872z"/>
<g>
	<path style="fill:#F6C358;" d="M149.156,324.243l0.034,0.023h0v-0.031l0.016,0.021l0.019-0.013l0,0l0.006-0.008v0.004l13.134-8.776
		h0.001v-6.61c-0.993,0.684-1.947,1.425-2.842,2.234c-5.763,5.21-11.415,4.318-11.415,4.318c-3.447,0.091-8.358-3.441-10.453-5.086
		c-0.533-0.418-1.08-0.818-1.641-1.197v6.342h0.001L149.156,324.243z"/>
	<polygon style="fill:#F6C358;" points="149.191,324.267 149.191,324.268 149.191,324.267 149.191,324.267 144.941,330.055 
		144.941,330.055 	"/>
</g>
<path style="fill:#64798A;" d="M135.229,267.077h8.176c0.745,0,1.486-0.113,2.195-0.34c1.481-0.475,3.835-1.35,5.618-2.028
	c1.59-0.604,3.341-0.626,4.946-0.063l8.606,3.021c5.79,2.127,6.38,7.562,6.38,7.562v15.361c0,0,0.76-5.128,3.386-9.339
	c0.637-1.023,0.986-2.199,0.986-3.404v-13.252c0,0-0.827-6.499-7.208-8.035c0,0,2.6-5.534-4.136-6.844h-24.814l0,0
	c-9.071,0-16.425,7.353-16.425,16.424v9.737c0,2.11,0.707,4.163,2.028,5.808c1.039,1.294,2.119,3.329,2.286,6.273v-12.906
	C128.849,267.904,135.229,267.077,135.229,267.077z"/>
<path style="fill:#FCD462;" d="M148.109,315.405c0,0,5.652,0.892,11.415-4.318c0.895-0.809,1.849-1.55,2.842-2.234
	c0.098-0.068,0.194-0.138,0.293-0.204c2.551-1.714,7.453-6.466,8.491-18.058v-15.361c0,0-0.59-5.435-6.38-7.562l-8.606-3.021
	c-1.605-0.563-3.356-0.542-4.946,0.063c-1.783,0.677-4.137,1.552-5.618,2.028c-0.71,0.228-1.45,0.34-2.195,0.34h-8.176
	c0,0-6.38,0.827-7.976,7.976v12.906v2.987c0,0,0.277,12.554,8.59,18.056c0.058,0.038,0.114,0.08,0.172,0.119
	c0.561,0.379,1.109,0.779,1.641,1.197C139.751,311.963,144.661,315.495,148.109,315.405z"/>
<g>
	<polygon style="fill:#D5D6DB;" points="153.69,330.395 151.404,333.678 153.515,346.984 158.805,337.363 	"/>
	<polygon style="fill:#D5D6DB;" points="144.898,347.043 147.019,333.678 144.713,330.366 139.575,337.363 	"/>
	<polygon style="fill:#D5D6DB;" points="144.941,330.055 144.762,330.299 149.191,324.29 149.191,324.268 149.191,324.267 	"/>
</g>
<g>
	<polygon style="fill:#E56353;" points="153.515,346.984 151.404,333.678 153.69,330.395 153.69,330.395 149.191,324.267 
		149.191,324.268 149.191,324.29 144.762,330.299 144.713,330.365 144.713,330.366 144.713,330.366 147.019,333.678 
		144.898,347.043 144.898,347.043 149.191,354.847 153.515,346.985 	"/>
	<polygon style="fill:#E56353;" points="149.217,354.895 149.627,354.485 149.204,354.872 	"/>
	<polygon style="fill:#E56353;" points="149.177,354.872 148.754,354.485 149.164,354.895 	"/>
	<polygon style="fill:#E56353;" points="149.171,354.902 149.191,354.921 149.21,354.902 149.191,354.884 149.191,354.884 
		149.191,354.884 	"/>
	<polygon style="fill:#E56353;" points="149.231,324.235 149.225,324.243 149.231,324.239 	"/>
	<polygon style="fill:#E56353;" points="149.191,324.235 149.191,324.266 149.206,324.256 	"/>
</g>
<g>
	<polygon style="fill:#E1E6E9;" points="149.231,324.239 149.225,324.243 149.225,324.243 149.206,324.256 149.191,324.266 
		149.191,324.266 149.191,324.267 149.191,324.267 149.191,324.267 153.69,330.395 158.807,337.364 169.455,318.004 
		162.366,315.463 162.365,315.463 	"/>
	<polygon style="fill:#E1E6E9;" points="144.713,330.366 144.713,330.365 144.941,330.055 149.191,324.267 149.191,324.267 
		149.191,324.266 149.156,324.243 136.016,315.463 136.015,315.463 128.926,318.004 139.574,337.364 	"/>
</g>
<g>
	<path style="fill:#3A556A;" d="M201.949,349.212l-2.385-14.402c-0.644-3.885-3.334-7.119-7.037-8.459l-23.073-8.347l6.128,12.289
		l-7.664,0.118l2.6,4.963l-20.892,19.111l-0.41,0.41l0.015,0.026h5.543h42.333C200.138,354.921,202.444,352.202,201.949,349.212z"/>
	
		<ellipse transform="matrix(-0.7156 -0.6985 0.6985 -0.7156 8.0879 713.131)" style="fill:#3A556A;" cx="149.229" cy="354.919" rx="0.02" ry="0.015"/>
</g>
<g>
	<polygon style="fill:#2F4859;" points="153.515,346.985 149.191,354.847 149.191,354.848 149.204,354.872 149.627,354.485 
		170.518,335.374 167.919,330.411 175.583,330.293 169.455,318.004 158.807,337.364 	"/>
	<polygon style="fill:#2F4859;" points="149.171,354.902 149.191,354.884 149.191,354.884 149.177,354.872 149.164,354.895 	"/>
</g>
<path style="fill:#3A556A;" d="M149.171,354.902l-0.007-0.007l-0.41-0.41l-20.892-19.111l2.6-4.963l-7.664-0.118l6.128-12.289
	l-23.072,8.347c-3.703,1.34-6.394,4.574-7.037,8.459l-2.385,14.402c-0.496,2.99,1.811,5.71,4.842,5.71h42.374h3.271h0.041h2.23h0
	l0,0L149.171,354.902z"/>
<polygon style="fill:#2F4859;" points="149.217,354.895 149.204,354.872 149.191,354.848 149.191,354.847 144.898,347.043 
	139.574,337.364 128.926,318.004 122.798,330.293 130.462,330.411 127.863,335.374 148.754,354.485 149.177,354.872 
	149.191,354.884 149.191,354.884 149.21,354.902 149.231,354.921 "/>
<g>
	<path style="fill:#F6C358;" d="M302.071,324.243l0.034,0.023h0v-0.031l0.016,0.021l0.019-0.013l0,0l0.007-0.008v0.004l13.134-8.776
		h0.001v-6.61c-0.993,0.684-1.947,1.425-2.842,2.234c-5.763,5.21-11.415,4.318-11.415,4.318c-3.448,0.091-8.359-3.441-10.453-5.086
		c-0.533-0.418-1.08-0.818-1.641-1.197v6.342h0.001L302.071,324.243z"/>
	<polygon style="fill:#F6C358;" points="302.105,324.267 302.106,324.268 302.106,324.267 302.105,324.267 297.856,330.055 
		297.856,330.055 	"/>
</g>
<path style="fill:#64798A;" d="M288.144,267.077h8.176c0.745,0,1.486-0.113,2.195-0.34c1.481-0.475,3.835-1.35,5.618-2.028
	c1.589-0.604,3.341-0.626,4.945-0.063l8.606,3.021c5.79,2.127,6.381,7.562,6.381,7.562v15.361c0,0,0.759-5.128,3.385-9.339
	c0.638-1.023,0.986-2.199,0.986-3.404v-13.252c0,0-0.827-6.499-7.208-8.035c0,0,2.6-5.534-4.136-6.844H292.28l0,0
	c-9.071,0-16.424,7.353-16.424,16.424v9.737c0,2.11,0.706,4.163,2.027,5.808c1.039,1.294,2.119,3.329,2.286,6.273v-12.906
	C281.763,267.904,288.144,267.077,288.144,267.077z"/>
<path style="fill:#FCD462;" d="M301.024,315.405c0,0,5.652,0.892,11.415-4.318c0.895-0.809,1.849-1.55,2.842-2.234
	c0.098-0.068,0.194-0.138,0.293-0.204c2.552-1.714,7.453-6.466,8.492-18.058v-15.361c0,0-0.591-5.435-6.381-7.562l-8.606-3.021
	c-1.605-0.563-3.356-0.542-4.945,0.063c-1.783,0.677-4.137,1.552-5.618,2.028c-0.709,0.228-1.45,0.34-2.195,0.34h-8.176
	c0,0-6.38,0.827-7.976,7.976v12.906v2.987c0,0,0.278,12.554,8.59,18.056c0.058,0.038,0.114,0.08,0.172,0.119
	c0.561,0.379,1.109,0.779,1.641,1.197C292.665,311.963,297.576,315.495,301.024,315.405z"/>
<g>
	<polygon style="fill:#D5D6DB;" points="306.604,330.395 304.318,333.678 306.43,346.984 311.72,337.363 	"/>
	<polygon style="fill:#D5D6DB;" points="297.813,347.043 299.934,333.678 297.627,330.366 292.49,337.363 	"/>
	<polygon style="fill:#D5D6DB;" points="297.856,330.055 297.677,330.299 302.106,324.29 302.106,324.268 302.105,324.267 	"/>
</g>
<g>
	<polygon style="fill:#E56353;" points="306.43,346.984 304.318,333.678 306.604,330.395 306.605,330.395 302.106,324.267 
		302.106,324.268 302.106,324.29 297.677,330.299 297.628,330.365 297.627,330.366 297.627,330.366 299.934,333.678 
		297.813,347.043 297.813,347.043 302.105,354.847 306.43,346.985 	"/>
	<polygon style="fill:#E56353;" points="302.131,354.895 302.542,354.485 302.119,354.872 	"/>
	<polygon style="fill:#E56353;" points="302.092,354.872 301.669,354.485 302.079,354.895 	"/>
	<polygon style="fill:#E56353;" points="302.086,354.902 302.105,354.921 302.125,354.902 302.106,354.884 302.105,354.884 
		302.105,354.884 	"/>
	<polygon style="fill:#E56353;" points="302.146,324.235 302.14,324.243 302.146,324.239 	"/>
	<polygon style="fill:#E56353;" points="302.106,324.235 302.106,324.266 302.121,324.256 	"/>
</g>
<g>
	<polygon style="fill:#E1E6E9;" points="302.146,324.239 302.14,324.243 302.14,324.243 302.121,324.256 302.106,324.266 
		302.105,324.266 302.106,324.267 302.105,324.267 302.106,324.267 306.605,330.395 311.721,337.364 322.37,318.004 
		315.281,315.463 315.28,315.463 	"/>
	<polygon style="fill:#E1E6E9;" points="297.627,330.366 297.628,330.365 297.856,330.055 302.105,324.267 302.106,324.267 
		302.105,324.266 302.071,324.243 288.93,315.463 288.93,315.463 281.841,318.004 292.489,337.364 	"/>
</g>
<g>
	<path style="fill:#3A556A;" d="M354.864,349.212l-2.385-14.402c-0.643-3.885-3.334-7.119-7.037-8.459l-23.073-8.347l6.128,12.289
		l-7.664,0.118l2.599,4.963l-20.891,19.111l-0.41,0.41l0.015,0.026h5.542h42.333C353.052,354.921,355.359,352.202,354.864,349.212z"
		/>
	<polygon style="fill:#3A556A;" points="302.125,354.902 302.105,354.921 302.106,354.921 302.146,354.921 	"/>
</g>
<g>
	<polygon style="fill:#2F4859;" points="306.43,346.985 302.105,354.847 302.106,354.848 302.119,354.872 302.542,354.485 
		323.433,335.374 320.834,330.411 328.498,330.293 322.37,318.004 311.721,337.364 	"/>
	<polygon style="fill:#2F4859;" points="302.086,354.902 302.105,354.884 302.105,354.884 302.092,354.872 302.079,354.895 	"/>
</g>
<path style="fill:#3A556A;" d="M302.086,354.902l-0.007-0.007l-0.41-0.41l-20.891-19.111l2.599-4.963l-7.664-0.118l6.128-12.289
	l-23.073,8.347c-3.703,1.34-6.394,4.574-7.037,8.459l-2.385,14.402c-0.495,2.99,1.811,5.71,4.842,5.71h42.374h3.272h0.04h2.23h0l0,0
	L302.086,354.902z"/>
<polygon style="fill:#2F4859;" points="302.131,354.895 302.119,354.872 302.106,354.848 302.105,354.847 297.813,347.043 
	292.489,337.364 281.841,318.004 275.713,330.293 283.377,330.411 280.778,335.374 301.669,354.485 302.092,354.872 
	302.105,354.884 302.106,354.884 302.125,354.902 302.146,354.921 "/>
<path style="fill:#64798A;" d="M205.346,170.327c0,0,0.064,0.071,0.096,0.107c1.005-0.703,1.809-1.432,2.43-2.116
	c1.356-1.491,2.069-3.44,2.069-5.438v-1.235c-5.859-7.294-9.652-18.496-9.652-31.147c0,0,0.506-8.429,9.44-9.255h8.126
	c2.057,0,4.105-0.27,6.081-0.826c2.092-0.589,4.597-1.564,6.527-3.14l15.172,4.958c0,0,4.72,3.14,5.394,8.264
	c0,12.665-3.802,23.878-9.672,31.171v1.211c0,1.998,0.714,3.947,2.069,5.438c0.622,0.684,1.424,1.413,2.427,2.116
	c0.031-0.035,0.095-0.106,0.095-0.106l0.72,0.84l8.784,4.65h0.568v-62.212c0-0.799-0.135-1.595-0.404-2.349
	c-2.217-6.227-7.579-6.978-7.579-6.978c0.686-3.485-0.405-5.466-1.668-6.575c-1.019-0.895-2.364-1.347-3.732-1.347h-23.17
	c-13.305,0-24.192,10.673-24.192,23.718v55.744h0.566l8.784-4.65L205.346,170.327z"/>
<path style="fill:#F6C358;" d="M243.427,168.318c-1.356-1.491-2.069-3.44-2.069-5.438v-1.211c-0.193,0.24-0.368,0.512-0.566,0.743
	c-4.228,4.949-9.453,7.915-15.133,7.915c-5.688,0-10.921-2.975-15.152-7.938c-0.197-0.231-0.373-0.504-0.566-0.745v1.235
	c0,1.998-0.713,3.947-2.069,5.438c-0.621,0.684-1.425,1.413-2.43,2.116c0.098,0.108,0.292,0.325,0.637,0.736
	c1.04,1.239,3.129,3.919,5.648,8.095c4.321,1.642,9.007,2.565,13.92,2.565c4.913,0,9.598-0.923,13.919-2.565
	c2.52-4.177,4.61-6.858,5.649-8.096c0.345-0.411,0.539-0.628,0.637-0.736C244.852,169.731,244.049,169.002,243.427,168.318z"/>
<path style="fill:#FCD462;" d="M225.659,170.327c5.68,0,10.905-2.966,15.133-7.915c0.197-0.231,0.372-0.503,0.566-0.743
	c5.869-7.293,9.672-18.507,9.672-31.171c-0.674-5.123-5.394-8.264-5.394-8.264l-15.172-4.958c-1.929,1.576-4.434,2.551-6.527,3.14
	c-1.976,0.556-4.024,0.826-6.081,0.826h-8.126c-8.934,0.826-9.44,9.255-9.44,9.255c0,12.651,3.794,23.853,9.652,31.147
	c0.193,0.24,0.368,0.513,0.566,0.745C214.738,167.352,219.971,170.327,225.659,170.327z"/>
<path style="fill:#EBF0F3;" d="M215.096,185.365c3.671,7.222,7.653,17.127,10.552,29.982c2.907-12.887,6.902-22.81,10.58-30.037
	c-3.389,0.845-6.919,1.341-10.58,1.341C222.005,186.65,218.474,186.197,215.096,185.365z"/>
<path style="fill:#64798A;" d="M211.728,179.266c1.061,1.759,2.197,3.796,3.367,6.099c3.378,0.832,6.909,1.285,10.553,1.285
	c3.66,0,7.191-0.496,10.58-1.341c1.161-2.281,2.287-4.298,3.34-6.043c-4.321,1.642-9.006,2.565-13.919,2.565
	C220.735,181.831,216.05,180.908,211.728,179.266z"/>
<path style="fill:#27A2DB;" d="M206.64,193.389c-1.415-1.635-0.195-4.142,1.991-4.092l1.604,0.037l-9.6-10.125
	c-0.871-0.919-0.907-2.331-0.083-3.291l4.075-4.751l-8.784,4.65l-11.6,6.142c0,0-8.725,5.347-8.725,13.722v19.669h50.13l0-0.001
	L206.64,193.389z"/>
<path style="fill:#2D93BA;" d="M215.096,185.365c-1.171-2.303-2.306-4.34-3.367-6.099c-2.52-4.177-4.609-6.857-5.648-8.095
	c-0.345-0.411-0.539-0.628-0.637-0.736c-0.032-0.035-0.096-0.107-0.096-0.107l-0.72,0.84l-4.075,4.751
	c-0.824,0.96-0.788,2.372,0.083,3.291l9.6,10.125l-1.604-0.037c-2.186-0.049-3.406,2.457-1.991,4.092l19.008,21.96l0-0.002
	C222.749,202.492,218.766,192.587,215.096,185.365z"/>
<path style="fill:#27A2DB;" d="M267.054,181.96l-11.6-6.142l-8.784-4.65l4.075,4.751c0.824,0.96,0.788,2.372-0.084,3.291
	l-9.6,10.125l1.604-0.037c2.187-0.049,3.406,2.457,1.991,4.092l-19.009,21.961h0.002h50.13v-19.669
	C275.779,187.306,267.054,181.96,267.054,181.96z"/>
<path style="fill:#2D93BA;" d="M242.665,189.297l-1.604,0.037l9.6-10.125c0.872-0.919,0.907-2.331,0.084-3.291l-4.075-4.751
	l-0.72-0.84c0,0-0.064,0.071-0.095,0.106c-0.098,0.108-0.292,0.325-0.637,0.736c-1.04,1.239-3.129,3.919-5.649,8.096
	c-1.053,1.745-2.179,3.763-3.34,6.043c-3.678,7.227-7.673,17.15-10.58,30.037l0,0.002l0,0.001l19.009-21.961
	C246.071,191.754,244.852,189.247,242.665,189.297z"/>
<path style="fill:#FFFFFF;" d="M253.959,292.332l-24.785-24.783v-32.014c0-1.947-1.579-3.526-3.526-3.526s-3.526,1.579-3.526,3.526
	v32.014l-24.787,24.783c-1.377,1.377-1.377,3.609,0,4.986c1.377,1.377,3.609,1.377,4.986,0l23.327-23.323l23.325,23.323
	c0.689,0.689,1.591,1.033,2.493,1.033c0.902,0,1.804-0.344,2.493-1.033C255.336,295.941,255.336,293.709,253.959,292.332z"/>
<g>
</g>
<g>
</g>
<g>
</g>
<g>
</g>
<g>
</g>
<g>
</g>
<g>
</g>
<g>
</g>
<g>
</g>
<g>
</g>
<g>
</g>
<g>
</g>
<g>
</g>
<g>
</g>
<g>
</g>
</svg>
