<?xml version="1.0" encoding="iso-8859-1"?>
<!-- Generator: Adobe Illustrator 19.0.0, SVG Export Plug-In . SVG Version: 6.00 Build 0)  -->
<svg version="1.1" id="Layer_1" xmlns="http://www.w3.org/2000/svg" xmlns:xlink="http://www.w3.org/1999/xlink" x="0px" y="0px"
	 viewBox="0 0 451.277 451.277" style="enable-background:new 0 0 451.277 451.277;" xml:space="preserve">
<circle style="fill:#45B39C;" cx="225.638" cy="225.638" r="225.638"/>
<path style="opacity:0.1;enable-background:new    ;" d="M446.478,272.126L306.817,132.465c-48.146-48.146-126.206-48.146-174.352,0
	s-48.146,126.206,0,174.352l139.662,139.662C359.442,428.189,428.189,359.441,446.478,272.126z"/>
<path style="fill:#E1E6E9;" d="M285.513,316.354l35.71,35.71c3.81,3.81,9.987,3.81,13.797,0l17.044-17.043
	c3.81-3.81,3.81-9.987,0-13.797l-35.71-35.71L285.513,316.354z"/>
<ellipse style="fill:#FFFFFF;" cx="219.648" cy="219.638" rx="123.29" ry="123.29"/>
<ellipse style="fill:#EBF0F3;" cx="219.648" cy="219.643" rx="104.628" ry="104.628"/>
<ellipse style="fill:#FCD462;" cx="219.648" cy="219.643" rx="99.277" ry="99.277"/>
<g>
	<path style="fill:#F6C358;" d="M168.369,278.027c-30.281-30.281-30.281-79.377,0-109.658c30.281-30.281,79.377-30.281,109.658,0
		c14.839,14.839,22.358,34.198,22.654,53.645c0.627-21.539-7.257-43.278-23.696-59.717c-31.67-31.671-83.018-31.671-114.689,0
		c-31.67,31.671-31.67,83.018,0,114.689c16.439,16.439,38.178,24.323,59.717,23.696
		C202.566,300.386,183.208,292.866,168.369,278.027z"/>
	<circle style="fill:#F6C358;" cx="168.32" cy="245.012" r="2.545"/>
	<circle style="fill:#F6C358;" cx="211.149" cy="190.157" r="3.052"/>
	<circle style="fill:#F6C358;" cx="264.09" cy="182.835" r="1.423"/>
	<circle style="fill:#F6C358;" cx="274.33" cy="228.526" r="3.154"/>
	<circle style="fill:#F6C358;" cx="238.029" cy="270.756" r="5.494"/>
	<circle style="fill:#F6C358;" cx="227.021" cy="295.168" r="1.019"/>
	<circle style="fill:#F6C358;" cx="182.666" cy="201.574" r="6.308"/>
	<circle style="fill:#F6C358;" cx="236.595" cy="167.572" r="4.07"/>
</g>
<g>
</g>
<g>
</g>
<g>
</g>
<g>
</g>
<g>
</g>
<g>
</g>
<g>
</g>
<g>
</g>
<g>
</g>
<g>
</g>
<g>
</g>
<g>
</g>
<g>
</g>
<g>
</g>
<g>
</g>
</svg>
