<?xml version="1.0" encoding="iso-8859-1"?>
<!-- Generator: Adobe Illustrator 19.0.0, SVG Export Plug-In . SVG Version: 6.00 Build 0)  -->
<svg version="1.1" id="Layer_1" xmlns="http://www.w3.org/2000/svg" xmlns:xlink="http://www.w3.org/1999/xlink" x="0px" y="0px"
	 viewBox="0 0 451.296 451.296" style="enable-background:new 0 0 451.296 451.296;" xml:space="preserve">
<circle style="fill:#334D5C;" cx="225.638" cy="225.648" r="225.638"/>
<path style="opacity:0.1;enable-background:new    ;" d="M451.296,225.648c0-3.718-0.103-7.412-0.28-11.086L336.001,99.546
	l-1.175-1.175l-0.094-0.094c-1.457-1.221-3.338-1.927-5.359-1.927H121.908c-4.748,0-8.603,3.855-8.603,8.604v227.585
	c0,2.351,0.94,4.466,2.492,6.018l-0.047,0.047l15.326,15.326v0.987h0.987l96.321,96.321
	C351.74,449.758,451.296,349.355,451.296,225.648z"/>
<path style="fill:#FCD462;" d="M329.376,96.365H121.9c-4.743,0-8.587,3.844-8.587,8.588v227.585c0,4.743,3.845,8.586,8.587,8.586
	h207.476c4.743,0,8.587-3.844,8.587-8.586V104.953C337.963,100.209,334.119,96.365,329.376,96.365z"/>
<g>
	<rect x="127.416" y="278.333" style="fill:#DC8744;" width="196.454" height="53.381"/>
	<rect x="127.416" y="115.169" style="fill:#DC8744;" width="196.454" height="53.381"/>
	<rect x="127.416" y="196.771" style="fill:#DC8744;" width="196.454" height="53.376"/>
	<rect x="131.052" y="341.104" style="fill:#DC8744;" width="36.096" height="13.809"/>
	<rect x="284.109" y="341.104" style="fill:#DC8744;" width="36.096" height="13.809"/>
</g>
<g>
	<rect x="127.416" y="273.622" style="fill:#F6C358;" width="196.454" height="53.381"/>
	<rect x="127.416" y="110.469" style="fill:#F6C358;" width="196.454" height="53.381"/>
	<rect x="127.416" y="192.061" style="fill:#F6C358;" width="196.454" height="53.376"/>
</g>
<g>
	<path style="fill:#EBF0F3;" d="M193.538,137.162c0,1.838,1.49,3.328,3.329,3.328h5.706v-6.657h-5.706
		C195.028,133.834,193.538,135.324,193.538,137.162z"/>
	<path style="fill:#EBF0F3;" d="M254.41,133.834h-5.707v6.657h5.707c1.839,0,3.329-1.491,3.329-3.328
		C257.739,135.324,256.248,133.834,254.41,133.834z"/>
</g>
<path style="fill:#64798A;" d="M202.573,140.491c18.411,1.729,27.717,1.737,46.13,0c0-2.666,0-3.995,0-6.657
	c-18.413-1.739-27.718-1.741-46.13,0C202.573,136.496,202.573,137.825,202.573,140.491z"/>
<g>
	<path style="fill:#EBF0F3;" d="M193.538,218.747c0,1.838,1.49,3.328,3.329,3.328h5.706v-6.657h-5.706
		C195.028,215.418,193.538,216.909,193.538,218.747z"/>
	<path style="fill:#EBF0F3;" d="M254.41,215.418h-5.707v6.657h5.707c1.839,0,3.329-1.491,3.329-3.328
		C257.739,216.909,256.248,215.418,254.41,215.418z"/>
</g>
<path style="fill:#64798A;" d="M202.573,222.076c18.411,1.729,27.717,1.737,46.13,0c0-2.666,0-3.995,0-6.657
	c-18.413-1.739-27.718-1.741-46.13,0C202.573,218.081,202.573,219.41,202.573,222.076z"/>
<g>
	<path style="fill:#EBF0F3;" d="M193.538,300.332c0,1.838,1.49,3.329,3.329,3.329h5.706v-6.658h-5.706
		C195.028,297.003,193.538,298.493,193.538,300.332z"/>
	<path style="fill:#EBF0F3;" d="M254.41,297.003h-5.707v6.658h5.707c1.839,0,3.329-1.491,3.329-3.329
		C257.739,298.493,256.248,297.003,254.41,297.003z"/>
</g>
<path style="fill:#64798A;" d="M202.573,303.661c18.411,1.729,27.717,1.737,46.13,0c0-2.667,0-3.996,0-6.658
	c-18.413-1.739-27.718-1.741-46.13,0C202.573,299.665,202.573,300.994,202.573,303.661z"/>
<g>
</g>
<g>
</g>
<g>
</g>
<g>
</g>
<g>
</g>
<g>
</g>
<g>
</g>
<g>
</g>
<g>
</g>
<g>
</g>
<g>
</g>
<g>
</g>
<g>
</g>
<g>
</g>
<g>
</g>
</svg>
