<?xml version="1.0" encoding="iso-8859-1"?>
<!-- Generator: Adobe Illustrator 19.0.0, SVG Export Plug-In . SVG Version: 6.00 Build 0)  -->
<svg version="1.1" id="Layer_1" xmlns="http://www.w3.org/2000/svg" xmlns:xlink="http://www.w3.org/1999/xlink" x="0px" y="0px"
	 viewBox="0 0 451.296 451.296" style="enable-background:new 0 0 451.296 451.296;" xml:space="preserve">
<circle style="fill:#EA8953;" cx="225.638" cy="225.638" r="225.638"/>
<path style="opacity:0.1;enable-background:new    ;" d="M451.296,225.638c0-0.411-0.029-0.814-0.031-1.225l-98.484-98.485
	c-1.128-1.081-2.68-1.739-4.372-1.739H206.667l-17.441-17.441c-1.551-1.41-3.62-2.304-5.971-2.304h-49.692
	c-4.654,0-8.415,3.432-8.415,7.663v12.082h-22.284c-3.573,0-6.488,2.915-6.488,6.535v189.835c0,2.116,1.034,3.996,2.586,5.171
	L224.5,451.267c0.381,0.001,0.756,0.029,1.139,0.029C350.266,451.296,451.296,350.265,451.296,225.638z"/>
<g>
	<path style="fill:#64798A;" d="M102.879,124.203c-3.603,0-6.523,2.92-6.523,6.523v189.825c0,3.603,2.92,6.523,6.523,6.523h12.876
		V124.203H102.879z"/>
	<path style="fill:#64798A;" d="M348.398,124.203H201.042v202.871h147.356c3.603,0,6.523-2.92,6.523-6.523V130.726
		C354.921,127.123,352.001,124.203,348.398,124.203z"/>
</g>
<rect x="115.753" y="124.211" style="fill:#3A556A;" width="85.289" height="202.87"/>
<path style="fill:#E1E6E9;" d="M183.248,104.443h-49.699c-4.634,0-8.391,3.424-8.391,7.648v227.094c0,4.224,3.757,7.648,8.391,7.648
	h49.699c4.634,0,8.391-3.424,8.391-7.648V112.091C191.638,107.868,187.882,104.443,183.248,104.443z"/>
<rect x="219.489" y="146.555" style="fill:#EBF0F3;" width="116.987" height="38.753"/>
<g>
	<rect x="219.489" y="179.456" style="fill:#D5D6DB;" width="116.987" height="5.847"/>
	<path style="fill:#D5D6DB;" d="M238.517,198.461h-15.406c-2.001,0-3.624,1.622-3.624,3.624v15.406c0,2.001,1.622,3.624,3.624,3.624
		h15.406c2.001,0,3.624-1.622,3.624-3.624v-15.406C242.141,200.084,240.519,198.461,238.517,198.461z"/>
	<path style="fill:#D5D6DB;" d="M269.962,198.461h-15.406c-2.002,0-3.624,1.622-3.624,3.624v15.406c0,2.001,1.622,3.624,3.624,3.624
		h15.406c2.001,0,3.624-1.622,3.624-3.624v-15.406C273.586,200.084,271.964,198.461,269.962,198.461z"/>
	<path style="fill:#D5D6DB;" d="M301.407,198.461h-15.406c-2.002,0-3.624,1.622-3.624,3.624v15.406c0,2.001,1.622,3.624,3.624,3.624
		h15.406c2.001,0,3.624-1.622,3.624-3.624v-15.406C305.031,200.084,303.409,198.461,301.407,198.461z"/>
</g>
<path style="fill:#FCD462;" d="M332.852,198.461h-15.406c-2.001,0-3.624,1.622-3.624,3.624v15.406c0,2.001,1.623,3.624,3.624,3.624
	h15.406c2.001,0,3.624-1.622,3.624-3.624v-15.406C336.476,200.084,334.853,198.461,332.852,198.461z"/>
<g>
	<path style="fill:#D5D6DB;" d="M238.517,229.536h-15.406c-2.001,0-3.624,1.623-3.624,3.624v15.406c0,2.001,1.622,3.624,3.624,3.624
		h15.406c2.001,0,3.624-1.623,3.624-3.624V233.16C242.141,231.159,240.519,229.536,238.517,229.536z"/>
	<path style="fill:#D5D6DB;" d="M269.962,229.536h-15.406c-2.002,0-3.624,1.623-3.624,3.624v15.406c0,2.001,1.622,3.624,3.624,3.624
		h15.406c2.001,0,3.624-1.623,3.624-3.624V233.16C273.586,231.159,271.964,229.536,269.962,229.536z"/>
	<path style="fill:#D5D6DB;" d="M301.407,229.536h-15.406c-2.002,0-3.624,1.623-3.624,3.624v15.406c0,2.001,1.622,3.624,3.624,3.624
		h15.406c2.001,0,3.624-1.623,3.624-3.624V233.16C305.031,231.159,303.409,229.536,301.407,229.536z"/>
</g>
<path style="fill:#44C4A1;" d="M332.852,229.536h-15.406c-2.001,0-3.624,1.623-3.624,3.624v15.406c0,2.001,1.623,3.624,3.624,3.624
	h15.406c2.001,0,3.624-1.623,3.624-3.624V233.16C336.476,231.159,334.853,229.536,332.852,229.536z"/>
<g>
	<path style="fill:#D5D6DB;" d="M238.517,260.612h-15.406c-2.001,0-3.624,1.622-3.624,3.624v15.406c0,2.001,1.622,3.624,3.624,3.624
		h15.406c2.001,0,3.624-1.622,3.624-3.624v-15.406C242.141,262.234,240.519,260.612,238.517,260.612z"/>
	<path style="fill:#D5D6DB;" d="M269.962,260.612h-15.406c-2.002,0-3.624,1.622-3.624,3.624v15.406c0,2.001,1.622,3.624,3.624,3.624
		h15.406c2.001,0,3.624-1.622,3.624-3.624v-15.406C273.586,262.234,271.964,260.612,269.962,260.612z"/>
	<path style="fill:#D5D6DB;" d="M301.407,260.612h-15.406c-2.002,0-3.624,1.622-3.624,3.624v15.406c0,2.001,1.622,3.624,3.624,3.624
		h15.406c2.001,0,3.624-1.622,3.624-3.624v-15.406C305.031,262.234,303.409,260.612,301.407,260.612z"/>
</g>
<path style="fill:#27A2DB;" d="M332.852,260.612h-15.406c-2.001,0-3.624,1.622-3.624,3.624v15.406c0,2.001,1.623,3.624,3.624,3.624
	h15.406c2.001,0,3.624-1.622,3.624-3.624v-15.406C336.476,262.234,334.853,260.612,332.852,260.612z"/>
<g>
	<path style="fill:#D5D6DB;" d="M238.517,291.687h-15.406c-2.001,0-3.624,1.623-3.624,3.624v15.406c0,2.002,1.622,3.624,3.624,3.624
		h15.406c2.001,0,3.624-1.622,3.624-3.624v-15.406C242.141,293.309,240.519,291.687,238.517,291.687z"/>
	<path style="fill:#D5D6DB;" d="M269.962,291.687h-15.406c-2.002,0-3.624,1.623-3.624,3.624v15.406c0,2.002,1.622,3.624,3.624,3.624
		h15.406c2.001,0,3.624-1.622,3.624-3.624v-15.406C273.586,293.309,271.964,291.687,269.962,291.687z"/>
	<path style="fill:#D5D6DB;" d="M301.407,291.687h-15.406c-2.002,0-3.624,1.623-3.624,3.624v15.406c0,2.002,1.622,3.624,3.624,3.624
		h15.406c2.001,0,3.624-1.622,3.624-3.624v-15.406C305.031,293.309,303.409,291.687,301.407,291.687z"/>
</g>
<path style="fill:#E56353;" d="M332.852,291.687h-15.406c-2.001,0-3.624,1.623-3.624,3.624v15.406c0,2.002,1.623,3.624,3.624,3.624
	h15.406c2.001,0,3.624-1.622,3.624-3.624v-15.406C336.476,293.309,334.853,291.687,332.852,291.687z"/>
<g>
</g>
<g>
</g>
<g>
</g>
<g>
</g>
<g>
</g>
<g>
</g>
<g>
</g>
<g>
</g>
<g>
</g>
<g>
</g>
<g>
</g>
<g>
</g>
<g>
</g>
<g>
</g>
<g>
</g>
</svg>
