<?xml version="1.0" encoding="iso-8859-1"?>
<!-- Generator: Adobe Illustrator 19.0.0, SVG Export Plug-In . SVG Version: 6.00 Build 0)  -->
<svg version="1.1" id="Layer_1" xmlns="http://www.w3.org/2000/svg" xmlns:xlink="http://www.w3.org/1999/xlink" x="0px" y="0px"
	 viewBox="0 0 451.296 451.296" style="enable-background:new 0 0 451.296 451.296;" xml:space="preserve">
<circle style="fill:#E05B49;" cx="225.638" cy="225.648" r="225.638"/>
<path style="opacity:0.1;enable-background:new    ;" d="M451.296,225.648c0-10.496-0.776-20.808-2.163-30.924L352.849,98.44
	l-28.818-2.069l-6.018,6.018l1.034,16.548l-14.715-2.867l-4.043,4.042l-3.009,22.801l-18.053-1.74l-7.522,7.522l2.257,19.416
	l-21.202-0.471l-3.338,3.338l5.547,19.839l-18.241-7.146l-3.996,3.996l-0.094,21.25l-15.514-5.641l-20.403,20.403
	c-25.951-13.023-58.436-8.698-80.061,12.975c-27.079,27.032-27.079,70.942,0,97.974l116.487,116.488
	C354.291,447.145,451.296,347.756,451.296,225.648z"/>
<polygon style="fill:#FCD462;" points="324.036,96.365 318.013,102.388 319.05,118.934 304.314,116.087 300.305,120.096 
	297.289,142.893 279.22,141.182 271.705,148.696 273.957,168.109 252.755,167.646 249.412,170.989 254.947,190.838 236.731,183.67 
	232.721,187.681 232.662,208.936 217.117,203.284 188.851,231.55 219.736,262.435 354.921,127.25 352.84,98.446 "/>
<polygon style="fill:#F6C358;" points="237.937,221.041 242.95,226.054 354.034,114.97 353.359,105.619 "/>
<path style="fill:#3A556A;" d="M116.65,236.642c-27.06,27.06-27.06,70.933,0,97.994c27.061,27.06,70.934,27.06,97.994,0
	s27.06-70.934,0-97.994S143.711,209.582,116.65,236.642z M190.276,335.357c-20.748,10.257-46.619,6.775-63.871-10.476
	c-17.251-17.251-20.733-43.122-10.476-63.871L190.276,335.357z"/>
<g>
</g>
<g>
</g>
<g>
</g>
<g>
</g>
<g>
</g>
<g>
</g>
<g>
</g>
<g>
</g>
<g>
</g>
<g>
</g>
<g>
</g>
<g>
</g>
<g>
</g>
<g>
</g>
<g>
</g>
</svg>
