<?xml version="1.0" encoding="iso-8859-1"?>
<!-- Generator: Adobe Illustrator 19.0.0, SVG Export Plug-In . SVG Version: 6.00 Build 0)  -->
<svg version="1.1" id="Layer_1" xmlns="http://www.w3.org/2000/svg" xmlns:xlink="http://www.w3.org/1999/xlink" x="0px" y="0px"
	 viewBox="0 0 451.296 451.296" style="enable-background:new 0 0 451.296 451.296;" xml:space="preserve">
<circle style="fill:#E05B49;" cx="225.638" cy="225.638" r="225.638"/>
<path style="opacity:0.1;enable-background:new    ;" d="M451.296,225.638c0-2.112-0.102-4.2-0.159-6.299l-98.367-98.367h0
	c-1.371-1.406-3.28-2.284-5.398-2.284H173.621c-4.17,0-7.55,3.381-7.55,7.55v11.436v16.788v50.449h-4.622h-5.719h-51.824
	c-4.17,0-7.55,3.38-7.55,7.551v3.081v106.413v3.082c0,2.098,0.857,3.993,2.239,5.361l120.738,120.738
	c2.101,0.057,4.191,0.159,6.306,0.159C350.266,451.296,451.296,350.265,451.296,225.638z"/>
<path style="fill:#D5D6DB;" d="M277.656,207.993H103.905c-4.17,0-7.55,3.38-7.55,7.55v109.494c0,4.17,3.381,7.55,7.55,7.55h173.751
	c4.17,0,7.55-3.38,7.55-7.55V215.543C285.206,211.373,281.826,207.993,277.656,207.993z"/>
<path style="fill:#EBF0F3;" d="M155.73,235.735v-30.823h-51.824c-4.17,0-7.55,3.38-7.55,7.551v109.494
	c0,4.17,3.381,7.551,7.55,7.551h173.751c4.17,0,7.55-3.381,7.55-7.551v-68.328H173.622
	C163.754,253.627,155.73,245.603,155.73,235.735z"/>
<path style="fill:#E1E6E9;" d="M285.206,212.462c0-4.17-3.38-7.551-7.55-7.551H161.448h-5.719v30.823
	c0,9.868,8.024,17.893,17.893,17.893h111.584v-5.721V212.462z"/>
<path style="fill:#EBF0F3;" d="M347.371,118.689H173.621c-4.17,0-7.55,3.381-7.55,7.55v109.495c0,4.17,3.381,7.55,7.55,7.55h173.751
	c4.17,0,7.55-3.381,7.55-7.55V126.239C354.921,122.07,351.541,118.689,347.371,118.689z"/>
<path style="fill:#FCD462;" d="M138.309,223.968h-22.868c-1.341,0-2.429,1.087-2.429,2.429v22.867c0,1.342,1.087,2.429,2.429,2.429
	h22.868c1.341,0,2.428-1.087,2.428-2.429v-22.867C140.738,225.055,139.65,223.968,138.309,223.968z"/>
<path style="fill:#DC8744;" d="M140.737,235.615h-7.312v-11.648h-3.081v3.175H121.8v-3.175h-3.081v7.622h-5.705v3.081h5.705v7.86
	h-5.705v3.081h5.705v6.081h3.081v-3.171h8.543v3.171h3.081v-12.996h7.312V235.615z M121.8,245.439v-15.217h8.543v15.217H121.8z"/>
<rect x="112.998" y="273.152" style="fill:#64798A;" width="25.969" height="6.001"/>
<rect x="112.998" y="291.118" style="fill:#2D93BA;" width="54.339" height="6.001"/>
<rect x="112.998" y="309.043" style="fill:#FCD462;" width="84.065" height="6.001"/>
<rect x="152.09" y="273.152" style="fill:#64798A;" width="25.969" height="6.001"/>
<g>
	<rect x="179.61" y="173.568" style="fill:#D5D6DB;" width="49.213" height="6.001"/>
	<rect x="179.61" y="194.596" style="fill:#D5D6DB;" width="64.179" height="6.001"/>
	<rect x="179.61" y="215.603" style="fill:#D5D6DB;" width="87.706" height="6.001"/>
</g>
<g>
	<rect x="191.181" y="273.152" style="fill:#64798A;" width="25.969" height="6.001"/>
	<rect x="230.241" y="273.152" style="fill:#64798A;" width="25.969" height="6.001"/>
	<rect x="166.093" y="137.677" style="fill:#64798A;" width="188.851" height="16.788"/>
</g>
<path style="fill:#44C4A1;" d="M323.778,207.004c-1.814,0-3.534,0.384-5.099,1.062c2.723,3.195,4.43,7.283,4.43,11.801
	c0,4.516-1.707,8.603-4.43,11.798c1.565,0.677,3.286,1.062,5.099,1.062c7.103,0,12.861-5.758,12.861-12.861
	S330.881,207.004,323.778,207.004z"/>
<circle style="fill:#27A2DB;" cx="304.794" cy="219.863" r="13.865"/>
<g>
</g>
<g>
</g>
<g>
</g>
<g>
</g>
<g>
</g>
<g>
</g>
<g>
</g>
<g>
</g>
<g>
</g>
<g>
</g>
<g>
</g>
<g>
</g>
<g>
</g>
<g>
</g>
<g>
</g>
</svg>
