<?xml version="1.0" encoding="iso-8859-1"?>
<!-- Generator: Adobe Illustrator 19.0.0, SVG Export Plug-In . SVG Version: 6.00 Build 0)  -->
<svg version="1.1" id="Layer_1" xmlns="http://www.w3.org/2000/svg" xmlns:xlink="http://www.w3.org/1999/xlink" x="0px" y="0px"
	 viewBox="0 0 451.277 451.277" style="enable-background:new 0 0 451.277 451.277;" xml:space="preserve">
<circle style="fill:#EA8953;" cx="225.638" cy="225.638" r="225.638"/>
<path style="opacity:0.1;enable-background:new    ;" d="M307.443,101.027l-2.398-2.398c-1.833-1.457-4.137-2.256-6.582-2.256
	H152.821c-6.065,0-11.001,4.889-11.001,11v236.565c0,3.149,1.363,6.018,3.526,8.039l98.522,98.522
	c110.002-8.803,197.709-96.442,206.615-206.416L307.584,101.215L307.443,101.027z"/>
<path style="fill:#EBF0F3;" d="M298.457,96.355H152.819c-6.076,0-11.002,4.925-11.002,11.002V343.92
	c0,6.076,4.926,11.002,11.002,11.002h145.638c6.076,0,11.002-4.925,11.002-11.002V107.357
	C309.459,101.281,304.534,96.355,298.457,96.355z"/>
<g>
	<rect x="160.614" y="119.603" style="fill:#64798A;" width="130.033" height="201.421"/>
	<path style="fill:#64798A;" d="M238.387,109.825H212.89c-1.299,0-2.351-1.051-2.351-2.351c0-1.299,1.052-2.351,2.351-2.351h25.496
		c1.299,0,2.351,1.051,2.351,2.351C240.737,108.774,239.686,109.825,238.387,109.825z"/>
	<circle style="fill:#64798A;" cx="200.448" cy="107.474" r="2.35"/>
	<path style="fill:#64798A;" d="M225.639,347.8c-6.053,0-10.979-4.926-10.979-10.977c0-6.056,4.926-10.982,10.979-10.982
		c6.053,0,10.98,4.926,10.98,10.982C236.619,342.874,231.692,347.8,225.639,347.8z M225.639,330.542
		c-3.461,0-6.278,2.819-6.278,6.281c0,3.461,2.817,6.276,6.278,6.276c3.462,0,6.278-2.814,6.278-6.276
		C231.917,333.361,229.101,330.542,225.639,330.542z"/>
</g>
<path style="fill:#FCD462;" d="M223.288,163.016c-19.934,0-36.094,16.16-36.094,36.094c0,15.701,10.043,29.022,24.041,33.989
	l12.053-33.989V163.016z"/>
<path style="fill:#44C4A1;" d="M259.747,172.541c-6.106-11.272-18.037-18.928-31.757-18.928v36.094L259.747,172.541z"/>
<path style="fill:#E1E6E9;" d="M215.937,240.924c3.775,1.339,7.82,2.106,12.053,2.106c14.713,0,27.347-8.817,32.968-21.443
	l-32.968-14.651L215.937,240.924z"/>
<path style="fill:#E56353;" d="M259.747,181.943l-31.757,17.167l32.968,14.651c1.995-4.481,3.127-9.43,3.127-14.651
	C264.084,192.895,262.512,187.049,259.747,181.943z"/>
<rect x="169.523" y="278.426" style="fill:#E1E6E9;" width="21.038" height="8.586"/>
<rect x="199.916" y="278.426" style="fill:#FCD462;" width="21.038" height="8.586"/>
<rect x="230.328" y="278.426" style="fill:#44C4A1;" width="21.038" height="8.586"/>
<rect x="260.736" y="278.426" style="fill:#E56353;" width="21.038" height="8.586"/>
<g>
</g>
<g>
</g>
<g>
</g>
<g>
</g>
<g>
</g>
<g>
</g>
<g>
</g>
<g>
</g>
<g>
</g>
<g>
</g>
<g>
</g>
<g>
</g>
<g>
</g>
<g>
</g>
<g>
</g>
</svg>
