<?xml version="1.0" encoding="iso-8859-1"?>
<!-- Generator: Adobe Illustrator 19.0.0, SVG Export Plug-In . SVG Version: 6.00 Build 0)  -->
<svg version="1.1" id="Layer_1" xmlns="http://www.w3.org/2000/svg" xmlns:xlink="http://www.w3.org/1999/xlink" x="0px" y="0px"
	 viewBox="0 0 451.277 451.277" style="enable-background:new 0 0 451.277 451.277;" xml:space="preserve">
<circle style="fill:#334D5C;" cx="225.638" cy="225.638" r="225.638"/>
<path style="opacity:0.1;enable-background:new    ;" d="M133.661,96.366v258.566l96.256,96.255
	c121.211-2.263,218.998-100.045,221.271-221.253L317.619,96.366H133.661z"/>
<rect x="133.683" y="102.2" style="fill:#E1E6E9;" width="183.936" height="252.723"/>
<rect x="133.683" y="96.353" style="fill:#FFFFFF;" width="183.936" height="252.723"/>
<rect x="148.716" y="135.895" style="fill:#FCD462;" width="17.116" height="58.025"/>
<rect x="169.882" y="110.295" style="fill:#44C4A1;" width="17.116" height="83.625"/>
<rect x="191.027" y="148.695" style="fill:#E56353;" width="17.116" height="45.225"/>
<rect x="212.173" y="126.51" style="fill:#27A2DB;" width="17.116" height="67.415"/>
<g>
	<rect x="245.765" y="130.949" style="fill:#E1E6E9;" width="56.781" height="4.7"/>
	<rect x="245.765" y="149.76" style="fill:#E1E6E9;" width="56.781" height="4.7"/>
	<rect x="245.765" y="168.571" style="fill:#E1E6E9;" width="56.781" height="4.7"/>
	<rect x="245.765" y="187.382" style="fill:#E1E6E9;" width="56.781" height="4.7"/>
	<rect x="148.716" y="206.182" style="fill:#E1E6E9;" width="153.856" height="4.7"/>
	<rect x="148.716" y="225.004" style="fill:#E1E6E9;" width="153.856" height="4.7"/>
	<rect x="148.716" y="243.814" style="fill:#E1E6E9;" width="74.803" height="4.7"/>
	<rect x="148.716" y="262.605" style="fill:#E1E6E9;" width="153.856" height="4.7"/>
	<rect x="148.716" y="281.436" style="fill:#E1E6E9;" width="153.856" height="4.7"/>
	<rect x="148.716" y="300.237" style="fill:#E1E6E9;" width="123.136" height="4.7"/>
	<rect x="148.716" y="319.078" style="fill:#E1E6E9;" width="153.856" height="4.7"/>
</g>
<g>
</g>
<g>
</g>
<g>
</g>
<g>
</g>
<g>
</g>
<g>
</g>
<g>
</g>
<g>
</g>
<g>
</g>
<g>
</g>
<g>
</g>
<g>
</g>
<g>
</g>
<g>
</g>
<g>
</g>
</svg>
