<?xml version="1.0" encoding="iso-8859-1"?>
<!-- Generator: Adobe Illustrator 19.0.0, SVG Export Plug-In . SVG Version: 6.00 Build 0)  -->
<svg version="1.1" id="Layer_1" xmlns="http://www.w3.org/2000/svg" xmlns:xlink="http://www.w3.org/1999/xlink" x="0px" y="0px"
	 viewBox="0 0 451.296 451.296" style="enable-background:new 0 0 451.296 451.296;" xml:space="preserve">
<circle style="fill:#EFC84A;" cx="225.638" cy="225.639" r="225.638"/>
<path style="opacity:0.1;enable-background:new    ;" d="M451.296,225.638c0-0.134-0.01-0.267-0.01-0.401L334.377,108.328
	c-15.984-15.984-41.841-15.984-57.778,0l-7.287,7.286L134.388,250.492c-3.526,3.526-3.526,9.261,0,12.787l4.372,4.372l-9.637,9.638
	l-0.799,0.846L104.959,301.5l19.087,53.406l96.255,96.255c1.78,0.041,3.548,0.134,5.338,0.134
	C350.266,451.296,451.296,350.266,451.296,225.638z M230.359,238.149L230.359,238.149L230.359,238.149z M183.263,285.244
	L183.263,285.244L183.263,285.244z M189.991,278.517L189.991,278.517L189.991,278.517z M203.446,265.061L203.446,265.061
	L203.446,265.061z M210.175,258.333L210.175,258.333v-0.001V258.333z M216.902,251.605L216.902,251.605L216.902,251.605z"/>
<g>
	<path style="fill:#FFFFFF;" d="M285.262,131.581l0.499,2.711c0.42,2.281-2.235,4.936-4.516,4.516l-2.71-0.498l0.499,2.71
		c0.42,2.281-2.236,4.936-4.517,4.516l-2.494-0.458c0.635,0.331,1.26,0.706,1.801,1.245l22.565,22.566
		c0.523,0.522,0.879,1.129,1.205,1.741l-0.455-2.471c-0.42-2.281,2.236-4.936,4.517-4.516l2.71,0.499l0,0l-0.498-2.71
		c-0.42-2.282,2.235-4.938,4.516-4.517l2.71,0.499l3.068,3.068l0,0l-34.104-34.104l0,0L285.262,131.581z"/>
	<polygon style="fill:#FFFFFF;" points="278.534,138.309 285.262,131.581 271.871,144.972 271.871,144.972 	"/>
</g>
<g>
	<path style="fill:#EBF0F3;" d="M169.807,298.701L169.807,298.701l-0.499-2.71c-0.42-2.281,2.236-4.936,4.516-4.517l2.71,0.499l0,0
		l-0.499-2.71c-0.42-2.281,2.236-4.937,4.516-4.516l2.71,0.498h0l-0.499-2.71c-0.282-1.534,0.834-3.216,2.285-4.039l-11.456-32.041
		l-2.706-0.498l0.499,2.71c0.42,2.281-2.236,4.937-4.517,4.516l-2.71-0.498l0.499,2.71c0.42,2.281-2.236,4.936-4.516,4.516
		l-2.71-0.499l0.498,2.711c0.407,2.21-2.071,4.745-4.3,4.521l15.465,43.25l-0.829,0.829l-15.827-44.262l-1.737-0.32l0.499,2.71
		c0.42,2.282-2.235,4.938-4.517,4.518l-2.71-0.499l-5.204-5.204l-9.637,9.638l19.11,53.441l26.803-26.802L169.807,298.701
		L169.807,298.701z"/>
	<polygon style="fill:#EBF0F3;" points="197.798,219.045 201.774,215.069 194.428,222.415 194.428,222.415 	"/>
	<path style="fill:#EBF0F3;" d="M211.753,208.299c0.42,2.281-2.235,4.937-4.516,4.516l-2.71-0.499l0,0l0.499,2.711
		c0.42,2.281-2.236,4.936-4.517,4.516l-2.71-0.499l0.499,2.711c0.303,1.644-0.999,3.466-2.601,4.208l11.393,31.861
		c0.125,0.006,0.252-0.014,0.375,0.009l2.71,0.499l0-0.001l-0.499-2.709c-0.42-2.281,2.235-4.937,4.516-4.517l2.71,0.499h0
		l-0.499-2.71c-0.419-2.282,2.236-4.938,4.517-4.517l2.71,0.499l0,0l-0.499-2.71c-0.384-2.084,1.8-4.453,3.92-4.531l-4.368-12.216
		c-1.016-0.745-2.018-1.528-2.942-2.451c-4.841-4.841-7.141-11.11-7.001-17.107l-1.487-0.273L211.753,208.299z"/>
	<polygon style="fill:#EBF0F3;" points="212.824,204.019 212.824,204.019 207.554,209.289 211.254,205.589 	"/>
	<polygon style="fill:#EBF0F3;" points="172.748,244.095 152.726,264.117 152.726,264.117 157.431,259.413 164.158,252.685 
		170.886,245.957 172.749,244.095 	"/>
	<polygon style="fill:#EBF0F3;" points="151.898,264.946 143.975,272.869 150.703,266.14 	"/>
	<polygon style="fill:#EBF0F3;" points="177.614,239.229 184.343,232.501 191.07,225.773 193.599,223.244 193.599,223.244 
		173.577,243.267 173.577,243.267 	"/>
	<path style="fill:#EBF0F3;" d="M230.358,238.149L230.358,238.149l-0.499-2.71c-0.42-2.281,2.236-4.937,4.517-4.516l2.71,0.499l0,0
		l-0.267-1.451c-4.299,0.095-8.706-1.088-12.659-3.566l4.059,11.35L230.358,238.149z"/>
	<polygon style="fill:#EBF0F3;" points="128.306,278.13 104.957,301.478 124.067,354.922 148.244,330.744 147.415,331.573 	"/>
	<path style="fill:#EBF0F3;" d="M193.78,226.272l-2.71-0.499l0.499,2.711c0.42,2.281-2.236,4.935-4.516,4.515l-2.71-0.498
		l0.499,2.71c0.42,2.281-2.236,4.937-4.516,4.516l-2.711-0.498l0.499,2.71c0.353,1.917-1.468,4.075-3.412,4.474l11.33,31.686
		c0.416-0.103,0.837-0.156,1.249-0.08l2.71,0.498h0l-0.499-2.71c-0.42-2.281,2.236-4.937,4.517-4.516l2.71,0.498l0,0l-0.498-2.71
		c-0.42-2.281,2.236-4.936,4.516-4.516l2.71,0.499v-0.001l-0.498-2.71c-0.332-1.802,1.261-3.814,3.068-4.382l-11.33-31.686
		C194.382,226.324,194.078,226.327,193.78,226.272z"/>
</g>
<g>
	<polygon style="fill:#D5D6DB;" points="128.306,278.13 147.415,331.573 148.244,330.744 129.134,277.302 	"/>
	<path style="fill:#D5D6DB;" d="M152.439,266.461l15.827,44.262l0.829-0.829l-15.465-43.25c-0.072-0.007-0.145,0.009-0.217-0.005
		L152.439,266.461z"/>
	<polygon style="fill:#D5D6DB;" points="152.726,264.117 152.726,264.117 151.898,264.946 151.898,264.946 	"/>
	<path style="fill:#D5D6DB;" d="M174.702,246.413c-0.37,0.076-0.741,0.11-1.105,0.042h-0.004l11.456,32.041
		c0.316-0.181,0.645-0.312,0.983-0.397L174.702,246.413z"/>
	<polygon style="fill:#D5D6DB;" points="173.577,243.267 173.577,243.267 172.748,244.095 172.749,244.095 	"/>
	<polygon style="fill:#D5D6DB;" points="194.428,222.415 194.428,222.415 193.599,223.244 193.599,223.244 	"/>
	<path style="fill:#D5D6DB;" d="M194.686,226.282l11.33,31.686c0.355-0.111,0.714-0.158,1.074-0.143l-11.393-31.861
		C195.367,226.115,195.029,226.234,194.686,226.282z"/>
	<path style="fill:#D5D6DB;" d="M227.649,237.65l0.571,0.106l-4.059-11.35c-0.501-0.314-0.993-0.63-1.477-0.985l4.368,12.216
		C227.251,237.629,227.452,237.614,227.649,237.65z"/>
</g>
<g>
	<path style="fill:#D15241;" d="M311.094,157.414l-6.728,6.728l-6.656,6.656c1.187,2.38,0.955,5.183-0.862,6.999l-46.737,46.737
		c-3.157,3.157-7.211,4.893-11.494,5.357l-1.53,1.531l-6.727,6.727l-6.728,6.728l-6.728,6.728l-6.728,6.728l-6.728,6.728
		l-6.728,6.727l-6.727,6.728l-6.728,6.728l-6.728,6.728l-6.728,6.728l5.24,5.241l4.327,4.327c3.538,3.537,9.274,3.537,12.811,0
		l134.882-134.882l-12.905-12.905L311.094,157.414z"/>
	<polygon style="fill:#D15241;" points="210.174,258.334 210.175,258.334 210.175,258.332 	"/>
	<path style="fill:#D15241;" d="M151.898,264.946l0.828-0.829l20.022-20.022l0.828-0.828l20.022-20.022l0.828-0.829l7.347-7.347
		l2.752-2.753l3.028-3.028l5.27-5.27c0.477-4.255,2.216-8.28,5.354-11.418l46.737-46.737c1.805-1.804,4.586-2.052,6.956-0.892
		l13.391-13.391l-5.204-5.204l-10.769-10.769L134.407,250.491c-3.538,3.538-3.538,9.273,0,12.811l4.364,4.363l5.204,5.204
		L151.898,264.946z"/>
</g>
<path style="fill:#64798A;" d="M334.354,108.322c-15.955-15.955-41.823-15.955-57.778,0l-7.287,7.287l10.769,10.769l34.104,34.104
	l12.905,12.905l7.286-7.287C350.309,150.145,350.309,124.277,334.354,108.322z"/>
<g>
	<path style="fill:#D5D6DB;" d="M146.684,273.368c2.281,0.42,4.937-2.236,4.517-4.518l-0.499-2.71l-6.728,6.728L146.684,273.368z"/>
	<path style="fill:#D5D6DB;" d="M151.898,264.946l-1.195,1.195l1.737,0.32l0.974,0.179c0.072,0.014,0.145-0.002,0.217,0.005
		c2.229,0.224,4.706-2.312,4.3-4.521l-0.498-2.711l-4.705,4.704L151.898,264.946z"/>
	<path style="fill:#D5D6DB;" d="M160.141,259.912c2.281,0.42,4.937-2.236,4.516-4.516l-0.499-2.71l-6.727,6.727L160.141,259.912z"/>
	<path style="fill:#D5D6DB;" d="M166.869,253.183c2.281,0.42,4.937-2.236,4.517-4.516l-0.499-2.71l-6.728,6.728L166.869,253.183z"/>
	<path style="fill:#D5D6DB;" d="M174.702,246.413c1.943-0.398,3.764-2.557,3.412-4.474l-0.499-2.71l-4.037,4.038l-0.828,0.828
		l-1.863,1.863l2.706,0.498h0.004C173.961,246.523,174.332,246.488,174.702,246.413z"/>
	<path style="fill:#D5D6DB;" d="M184.841,235.211l-0.499-2.71l-6.728,6.728l2.711,0.498
		C182.605,240.147,185.261,237.491,184.841,235.211z"/>
	<path style="fill:#D5D6DB;" d="M191.569,228.484l-0.499-2.711l-6.728,6.728l2.71,0.498
		C189.333,233.419,191.989,230.764,191.569,228.484z"/>
	<path style="fill:#D5D6DB;" d="M194.686,226.282c0.344-0.048,0.681-0.167,1.01-0.319c1.602-0.742,2.904-2.564,2.601-4.208
		l-0.499-2.711l-3.371,3.371l-0.828,0.829l-2.529,2.528l2.71,0.499C194.078,226.327,194.382,226.324,194.686,226.282z"/>
	<path style="fill:#D5D6DB;" d="M200.509,219.544c2.281,0.42,4.937-2.236,4.517-4.516l-0.499-2.711l0,0l-2.752,2.753l-3.976,3.976
		L200.509,219.544z"/>
	<path style="fill:#D5D6DB;" d="M207.236,212.816c2.281,0.42,4.937-2.236,4.516-4.516l-0.499-2.71l-3.7,3.699l-3.028,3.028l0,0
		L207.236,212.816z"/>
	<path style="fill:#D5D6DB;" d="M212.742,205.863c0.015-0.616,0.015-1.234,0.082-1.843l-1.57,1.57L212.742,205.863z"/>
	<path style="fill:#D5D6DB;" d="M272.023,145.077l2.494,0.458c2.281,0.42,4.937-2.236,4.517-4.516l-0.499-2.71l-6.663,6.663
		C271.925,144.998,271.97,145.049,272.023,145.077z"/>
	<path style="fill:#D5D6DB;" d="M281.244,138.807c2.281,0.42,4.937-2.234,4.516-4.516l-0.499-2.711l-6.728,6.728L281.244,138.807z"
		/>
	<path style="fill:#D5D6DB;" d="M173.825,291.474c-2.281-0.419-4.936,2.236-4.516,4.517l0.499,2.71l0,0l6.728-6.728l0,0
		L173.825,291.474z"/>
	<path style="fill:#D5D6DB;" d="M180.552,284.747c-2.281-0.42-4.936,2.236-4.516,4.516l0.499,2.71l0,0l6.728-6.728h0
		L180.552,284.747z"/>
	<path style="fill:#D5D6DB;" d="M187.281,278.018c-0.412-0.076-0.833-0.023-1.249,0.08c-0.338,0.085-0.667,0.217-0.983,0.397
		c-1.451,0.823-2.568,2.504-2.285,4.039l0.499,2.71l0,0l6.728-6.728h0L187.281,278.018z"/>
	<path style="fill:#D5D6DB;" d="M194.009,271.291c-2.281-0.42-4.937,2.235-4.517,4.516l0.499,2.71l0,0l6.727-6.728l0,0
		L194.009,271.291z"/>
	<path style="fill:#D5D6DB;" d="M200.737,264.562c-2.28-0.42-4.937,2.236-4.516,4.516l0.498,2.71l0,0l6.728-6.727l0,0
		L200.737,264.562z"/>
	<path style="fill:#D5D6DB;" d="M207.464,257.834c-0.124-0.023-0.25-0.004-0.375-0.009c-0.36-0.015-0.718,0.032-1.074,0.143
		c-1.807,0.568-3.399,2.581-3.068,4.382l0.498,2.71v0.001l6.728-6.728h0L207.464,257.834z"/>
	<path style="fill:#D5D6DB;" d="M214.192,251.106c-2.281-0.42-4.936,2.236-4.516,4.517l0.499,2.709v0.001l6.728-6.728h0
		L214.192,251.106z"/>
	<path style="fill:#D5D6DB;" d="M220.92,244.378c-2.281-0.42-4.936,2.235-4.517,4.517l0.499,2.71l0,0l6.728-6.728l0,0
		L220.92,244.378z"/>
	<path style="fill:#D5D6DB;" d="M228.219,237.756l-0.571-0.106c-0.197-0.036-0.397-0.021-0.597-0.014
		c-2.12,0.078-4.304,2.447-3.92,4.531l0.499,2.71l0,0l6.728-6.728h0L228.219,237.756z"/>
	<path style="fill:#D5D6DB;" d="M234.376,230.923c-2.281-0.42-4.937,2.236-4.517,4.516l0.499,2.71l0,0l6.727-6.727l0,0
		L234.376,230.923z"/>
	<path style="fill:#D5D6DB;" d="M236.82,229.971l0.267,1.451l0,0l1.53-1.531C238.022,229.955,237.421,229.958,236.82,229.971z"/>
	<path style="fill:#D5D6DB;" d="M301.656,163.642c-2.281-0.42-4.937,2.236-4.517,4.516l0.455,2.471
		c0.031,0.06,0.086,0.108,0.116,0.168l6.656-6.656l0,0L301.656,163.642z"/>
	<path style="fill:#D5D6DB;" d="M303.868,161.432l0.498,2.71l0,0l6.728-6.728l-2.71-0.499
		C306.103,156.494,303.447,159.15,303.868,161.432z"/>
</g>
<path style="fill:#64798A;" d="M297.594,170.63c-0.327-0.612-0.683-1.219-1.205-1.741l-22.565-22.566
	c-0.541-0.539-1.166-0.914-1.801-1.245c-0.053-0.029-0.098-0.079-0.152-0.105l0,0c-2.37-1.16-5.151-0.913-6.956,0.892
	l-46.737,46.737c-3.138,3.138-4.877,7.163-5.354,11.418l0,0c-0.068,0.61-0.068,1.227-0.082,1.843
	c-0.141,5.997,2.16,12.266,7.001,17.107c0.924,0.923,1.925,1.706,2.942,2.451c0.484,0.354,0.976,0.671,1.477,0.985
	c3.953,2.478,8.36,3.661,12.659,3.566c0.601-0.014,1.203-0.016,1.797-0.08c4.283-0.464,8.337-2.199,11.494-5.357l46.737-46.737
	c1.817-1.816,2.049-4.619,0.862-6.999C297.681,170.738,297.625,170.69,297.594,170.63z M245.208,192.807
	c1.298-1.298,3.4-1.298,4.697,0c1.298,1.297,1.298,3.4,0,4.697c-1.297,1.297-3.4,1.297-4.697,0
	C243.911,196.207,243.911,194.104,245.208,192.807z M266.318,198.296c-1.298,1.297-3.4,1.297-4.697,0
	c-1.297-1.297-1.297-3.399,0-4.697c1.297-1.297,3.4-1.297,4.697,0C267.615,194.896,267.615,196.998,266.318,198.296z
	 M265.526,181.884c-1.298,1.297-3.4,1.297-4.697,0c-1.298-1.298-1.298-3.4,0-4.697c1.297-1.297,3.4-1.297,4.697,0
	C266.823,178.483,266.823,180.586,265.526,181.884z M244.416,176.394c1.297-1.297,3.4-1.297,4.697,0c1.297,1.297,1.297,3.4,0,4.697
	c-1.297,1.297-3.4,1.297-4.697,0C243.119,179.794,243.119,177.691,244.416,176.394z M252.226,168.583c1.297-1.297,3.4-1.297,4.697,0
	c1.297,1.297,1.297,3.401,0,4.698c-1.297,1.297-3.4,1.297-4.697,0C250.929,171.984,250.929,169.88,252.226,168.583z
	 M253.018,184.996c1.298-1.298,3.4-1.298,4.697,0c1.297,1.297,1.297,3.4,0,4.698c-1.297,1.297-3.4,1.297-4.697,0
	C251.721,188.396,251.721,186.293,253.018,184.996z M260.036,160.773c1.297-1.297,3.4-1.297,4.697,0
	c1.297,1.297,1.297,3.401,0,4.697c-1.297,1.297-3.4,1.297-4.697,0C258.739,164.174,258.739,162.07,260.036,160.773z
	 M253.811,206.106c-1.297-1.297-1.297-3.401,0-4.698c1.297-1.297,3.4-1.297,4.697,0c1.297,1.297,1.297,3.401,0,4.698
	C257.211,207.403,255.108,207.403,253.811,206.106z M250.698,209.219c1.298,1.297,1.298,3.401,0,4.698
	c-1.297,1.297-3.4,1.297-4.697,0c-1.297-1.297-1.297-3.401,0-4.698C247.298,207.922,249.401,207.922,250.698,209.219z
	 M242.888,221.726c-1.298,1.298-3.4,1.298-4.697,0c-1.298-1.297-1.298-3.4,0-4.697c1.297-1.297,3.4-1.297,4.697,0
	C244.185,218.326,244.185,220.429,242.888,221.726z M285.051,170.169c1.297-1.297,3.4-1.297,4.698,0
	c1.297,1.297,1.297,3.399,0,4.697c-1.297,1.297-3.4,1.297-4.698,0C283.754,173.568,283.754,171.466,285.051,170.169z
	 M281.939,182.676c-1.297,1.297-3.4,1.297-4.697,0s-1.297-3.401,0-4.698c1.297-1.297,3.4-1.297,4.697,0
	C283.236,179.275,283.236,181.379,281.939,182.676z M276.449,161.565c1.297-1.297,3.4-1.297,4.697,0
	c1.298,1.298,1.298,3.401,0,4.698c-1.297,1.298-3.4,1.298-4.697,0C275.151,164.966,275.151,162.863,276.449,161.565z
	 M274.128,190.486c-1.297,1.297-3.4,1.297-4.697,0c-1.298-1.297-1.298-3.401,0-4.698c1.297-1.297,3.4-1.297,4.697,0
	C275.425,187.085,275.425,189.189,274.128,190.486z M273.336,174.073c-1.297,1.297-3.4,1.297-4.697,0
	c-1.298-1.297-1.298-3.4,0-4.698c1.297-1.297,3.4-1.297,4.697,0C274.633,170.674,274.633,172.776,273.336,174.073z M272.544,157.661
	c-1.297,1.297-3.4,1.297-4.697,0c-1.297-1.297-1.297-3.4,0-4.697c1.297-1.297,3.4-1.297,4.697,0
	C273.841,154.261,273.841,156.364,272.544,157.661z M225.683,204.521c-1.297,1.297-3.4,1.297-4.697,0
	c-1.297-1.297-1.297-3.399,0-4.697c1.297-1.297,3.4-1.297,4.697,0C226.98,201.121,226.98,203.224,225.683,204.521z M228.796,192.014
	c1.297-1.297,3.4-1.297,4.697,0c1.297,1.297,1.297,3.401,0,4.698c-1.298,1.297-3.4,1.297-4.697,0
	C227.499,195.415,227.499,193.311,228.796,192.014z M234.285,213.125c-1.297,1.297-3.4,1.297-4.697,0
	c-1.297-1.298-1.297-3.401,0-4.698c1.297-1.297,3.4-1.297,4.697,0C235.582,209.724,235.582,211.826,234.285,213.125z
	 M236.606,184.203c1.297-1.297,3.4-1.297,4.697,0c1.297,1.297,1.297,3.401,0,4.698c-1.297,1.297-3.4,1.297-4.697,0
	C235.309,187.604,235.309,185.5,236.606,184.203z M237.398,200.616c1.297-1.297,3.4-1.297,4.697,0c1.298,1.297,1.298,3.399,0,4.697
	c-1.297,1.297-3.4,1.297-4.697,0C236.101,204.016,236.101,201.913,237.398,200.616z"/>
<g>
	<ellipse style="fill:#3A556A;" cx="240.538" cy="219.382" rx="3.323" ry="3.323"/>
	<ellipse style="fill:#3A556A;" cx="231.945" cy="210.807" rx="3.323" ry="3.323"/>
	<ellipse style="fill:#3A556A;" cx="223.349" cy="202.204" rx="3.323" ry="3.323"/>
	<ellipse style="fill:#3A556A;" cx="248.358" cy="211.552" rx="3.323" ry="3.323"/>
	<ellipse style="fill:#3A556A;" cx="239.752" cy="202.965" rx="3.323" ry="3.323"/>
	<ellipse style="fill:#3A556A;" cx="231.141" cy="194.345" rx="3.323" ry="3.323"/>
	<ellipse style="fill:#3A556A;" cx="256.159" cy="203.757" rx="3.323" ry="3.323"/>
	<ellipse style="fill:#3A556A;" cx="247.564" cy="195.189" rx="3.323" ry="3.323"/>
	<ellipse style="fill:#3A556A;" cx="238.97" cy="186.568" rx="3.323" ry="3.323"/>
	<ellipse style="fill:#3A556A;" cx="263.983" cy="195.929" rx="3.323" ry="3.323"/>
	<ellipse style="fill:#3A556A;" cx="255.368" cy="187.346" rx="3.323" ry="3.323"/>
	<ellipse style="fill:#3A556A;" cx="246.805" cy="178.722" rx="3.323" ry="3.323"/>
	<ellipse style="fill:#3A556A;" cx="271.771" cy="188.128" rx="3.323" ry="3.323"/>
	<ellipse style="fill:#3A556A;" cx="263.171" cy="179.555" rx="3.323" ry="3.323"/>
	<ellipse style="fill:#3A556A;" cx="254.591" cy="170.946" rx="3.323" ry="3.323"/>
	<ellipse style="fill:#3A556A;" cx="279.599" cy="180.315" rx="3.323" ry="3.323"/>
	<ellipse style="fill:#3A556A;" cx="270.988" cy="171.716" rx="3.323" ry="3.323"/>
	<ellipse style="fill:#3A556A;" cx="262.393" cy="163.117" rx="3.323" ry="3.323"/>
	<ellipse style="fill:#3A556A;" cx="287.392" cy="172.536" rx="3.323" ry="3.323"/>
	<ellipse style="fill:#3A556A;" cx="278.784" cy="163.921" rx="3.323" ry="3.323"/>
	<ellipse style="fill:#3A556A;" cx="270.179" cy="155.279" rx="3.323" ry="3.323"/>
</g>
<g>
</g>
<g>
</g>
<g>
</g>
<g>
</g>
<g>
</g>
<g>
</g>
<g>
</g>
<g>
</g>
<g>
</g>
<g>
</g>
<g>
</g>
<g>
</g>
<g>
</g>
<g>
</g>
<g>
</g>
</svg>
