<?xml version="1.0" encoding="iso-8859-1"?>
<!-- Generator: Adobe Illustrator 19.0.0, SVG Export Plug-In . SVG Version: 6.00 Build 0)  -->
<svg version="1.1" id="Layer_1" xmlns="http://www.w3.org/2000/svg" xmlns:xlink="http://www.w3.org/1999/xlink" x="0px" y="0px"
	 viewBox="0 0 451.296 451.296" style="enable-background:new 0 0 451.296 451.296;" xml:space="preserve">
<circle style="fill:#45B39C;" cx="225.648" cy="225.638" r="225.638"/>
<path style="opacity:0.1;enable-background:new    ;" d="M351.495,196.617L262.031,107.2l-2.069-2.115
	c-12.646-11.613-55.991-11.613-68.638,0c-16.125,14.808-24.634,67.414-14.01,91.532H96.361v28.442l16.924,16.924v112.923
	l95.714,95.714c5.504,0.401,11.043,0.676,16.649,0.676c104.062,0,191.62-70.46,217.7-166.258l-88.421-88.421H351.495z"/>
<g>
	<rect x="317.224" y="221.184" style="fill:#DC8744;" width="16.087" height="133.734"/>
	<rect x="113.264" y="221.184" style="fill:#DC8744;" width="16.087" height="133.734"/>
</g>
<g>
	<rect x="211.926" y="194.652" style="fill:#64798A;" width="27.407" height="41.656"/>
	
		<rect x="248.148" y="282.24" transform="matrix(0.3368 -0.9416 0.9416 0.3368 -126.9982 446.8026)" style="fill:#64798A;" width="11.018" height="62.617"/>
	
		<rect x="192.125" y="282.271" transform="matrix(-0.3368 -0.9416 0.9416 -0.3368 -31.0648 605.2791)" style="fill:#64798A;" width="11.018" height="62.618"/>
</g>
<g>
	<path style="fill:#E56353;" d="M268.138,205.069c-15.917,14.072-69.065,14.072-84.981,0c-18.793-16.614-10.256-83.001,8.191-99.998
		c12.612-11.621,55.987-11.621,68.599,0C278.393,122.069,286.93,188.456,268.138,205.069z"/>
	<path style="fill:#E56353;" d="M292.727,241.232c-23.716-15.423-110.443-15.423-134.159,0c-2.332,1.516-3.664,5.783-3.685,9.616
		h141.53C296.389,247.013,295.058,242.748,292.727,241.232z"/>
</g>
<path style="fill:#64798A;" d="M154.883,250.848c-0.02,3.592,1.109,6.803,3.685,7.002c24.68,1.908,106.677,2.014,134.159,0
	c2.577-0.188,3.706-3.404,3.685-7.002H154.883z"/>
<g>
	<polygon style="fill:#3A556A;" points="171.297,333.797 166.321,333.797 166.321,318.916 171.297,317.137 	"/>
	<path style="fill:#3A556A;" d="M166.235,333.45h-3.12c-0.833,0-1.508,0.585-1.508,1.308v9.292c0,0.722,0.675,1.308,1.508,1.308
		h3.12c0.833,0,1.508-0.586,1.508-1.308v-9.292C167.743,334.035,167.068,333.45,166.235,333.45z"/>
	<path style="fill:#3A556A;" d="M174.503,333.45h-3.12c-0.833,0-1.508,0.585-1.508,1.308v9.292c0,0.722,0.675,1.308,1.508,1.308
		h3.12c0.833,0,1.508-0.586,1.508-1.308v-9.292C176.011,334.035,175.336,333.45,174.503,333.45z"/>
</g>
<path style="fill:#64798A;" d="M168.809,329.867c-5.141,0-9.363,3.929-9.828,8.948c-0.046,0.493,0.38,0.923,0.874,0.923h17.909
	c0.494,0,0.92-0.431,0.874-0.923C178.172,333.796,173.95,329.867,168.809,329.867z"/>
<g>
	<polygon style="fill:#3A556A;" points="280.012,333.797 284.988,333.797 284.988,318.916 280.012,317.137 	"/>
	<path style="fill:#3A556A;" d="M285.074,333.45h3.12c0.833,0,1.508,0.585,1.508,1.308v9.292c0,0.722-0.675,1.308-1.508,1.308h-3.12
		c-0.833,0-1.508-0.586-1.508-1.308v-9.292C283.566,334.035,284.241,333.45,285.074,333.45z"/>
	<path style="fill:#3A556A;" d="M276.806,333.45h3.12c0.833,0,1.508,0.585,1.508,1.308v9.292c0,0.722-0.675,1.308-1.508,1.308h-3.12
		c-0.833,0-1.508-0.586-1.508-1.308v-9.292C275.298,334.035,275.973,333.45,276.806,333.45z"/>
</g>
<path style="fill:#64798A;" d="M282.5,329.867c5.141,0,9.363,3.929,9.828,8.948c0.046,0.493-0.38,0.923-0.873,0.923h-17.909
	c-0.494,0-0.92-0.431-0.874-0.923C273.137,333.796,277.36,329.867,282.5,329.867z"/>
<g>
	<polygon style="fill:#3A556A;" points="223.16,333.797 228.137,333.797 228.137,318.916 223.16,317.137 	"/>
	<path style="fill:#3A556A;" d="M228.223,333.45h3.12c0.833,0,1.508,0.585,1.508,1.308v9.292c0,0.722-0.675,1.308-1.508,1.308h-3.12
		c-0.833,0-1.508-0.586-1.508-1.308v-9.292C226.715,334.035,227.39,333.45,228.223,333.45z"/>
	<path style="fill:#3A556A;" d="M219.955,333.45h3.12c0.833,0,1.508,0.585,1.508,1.308v9.292c0,0.722-0.675,1.308-1.508,1.308h-3.12
		c-0.833,0-1.508-0.586-1.508-1.308v-9.292C218.447,334.035,219.122,333.45,219.955,333.45z"/>
</g>
<path style="fill:#64798A;" d="M225.649,329.867c5.14,0,9.363,3.929,9.828,8.948c0.046,0.493-0.38,0.923-0.874,0.923h-17.909
	c-0.494,0-0.92-0.431-0.874-0.923C216.285,333.796,220.508,329.867,225.649,329.867z"/>
<rect x="220.139" y="280.755" style="fill:#2F4859;" width="11.018" height="45.988"/>
<rect x="214.24" y="255.084" style="fill:#64798A;" width="22.81" height="39.132"/>
<rect x="96.363" y="196.608" style="fill:#FCD462;" width="258.56" height="28.416"/>
<rect x="96.363" y="216.166" style="fill:#F6C358;" width="258.56" height="8.883"/>
<g>
</g>
<g>
</g>
<g>
</g>
<g>
</g>
<g>
</g>
<g>
</g>
<g>
</g>
<g>
</g>
<g>
</g>
<g>
</g>
<g>
</g>
<g>
</g>
<g>
</g>
<g>
</g>
<g>
</g>
</svg>
